<mxfile host="app.diagrams.net" modified="2021-12-26T14:22:53.454Z" agent="5.0 (Macintosh; Intel Mac OS X 10_15_3) AppleWebKit/537.36 (KHTML, like Gecko) Chrome/96.0.4664.110 Safari/537.36" etag="_A6ycL4TqQtyW92xhqLd" version="16.0.0" type="github">
  <diagram id="wFE0QG_FPsp0jaGvCLVb" name="Page-1">
    <mxGraphModel dx="901" dy="546" grid="1" gridSize="10" guides="1" tooltips="1" connect="1" arrows="1" fold="1" page="1" pageScale="1" pageWidth="850" pageHeight="1100" math="0" shadow="0">
      <root>
        <mxCell id="0" />
        <mxCell id="1" parent="0" />
        <mxCell id="H-cOPBI3KehKyMTL4nlX-8" value="" style="shape=image;verticalLabelPosition=bottom;labelBackgroundColor=#ffffff;verticalAlign=top;aspect=fixed;imageAspect=0;image=data:image/png,iVBORw0KGgoAAAANSUhEUgAAAdYAAAGMCAYAAABnD4PLAAAAAXNSR0IArs4c6QAAAERlWElmTU0AKgAAAAgAAYdpAAQAAAABAAAAGgAAAAAAA6ABAAMAAAABAAEAAKACAAQAAAABAAAB1qADAAQAAAABAAABjAAAAABEU8ezAABAAElEQVR4Aey9B4BkyVnnGV1V7c30eG+lMfJunLzEaIQ0wgiE28Uc9ha7C7u4XTzHwR5OsCywdxy7wGEEAgTyAnkx8iNmZMdIGu/9tO+uqr7/74sXmZEv46WpzKrMyv6iO+vFC/PFF//4Ir7wb8M1f/LFo8GNI+AIOAKOgCPgCDQicNf1N4RP/87rNjQGyDzmMrtbHQFHwBFwBBwBR2BEBFyxjgigR3cEHAFHwBFwBHIEXLHmaLjdEXAEHAFHwBEYEQFXrCMC6NEdAUfAEXAEHIEcAVesORpudwQcAUfAEXAERkTAFeuIAHp0R8ARcAQcAUcgR8AVa46G2x0BR8ARcAQcgRERcMU6IoAe3RFwBBwBR8ARyBFwxZqj4XZHwBFwBBwBR2BEBFyxjgigR3cEHAFHwBFwBHIEXLHmaLjdEXAEHAFHwBEYEQFXrCMC6NEdAUfAEXAEHIEcAVesORpudwQcAUfAEXAERkTAFeuIAHp0R8ARcAQcAUcgR8AVa46G2x0BR8ARcAQcgRERcMU6IoAe3RFwBBwBR8ARyBFwxZqj4XZHwBFwBBwBR2BEBFyxjgigR3cEHAFHwBFwBHIEXLHmaLjdEXAEHAFHwBEYEQFXrCMC6NEdAUfAEXAEHIEcAVesORpudwQcAUfAEXAERkTAFeuIAHp0R8ARcAQcAUcgR8AVa46G2x0BR8ARcAQcgRERcMU6IoAe3RFwBBwBR8ARyBFwxZqj4XZHwBFwBBwBR2BEBFyxjgigR3cEHAFHwBFwBHIEXLHmaLjdEXAEHAFHwBEYEQFXrCMC6NEdAUfAEXAEHIEcAVesORpudwQcAUfAEXAERkTAFeuIAHp0R8ARcAQcAUcgR8AVa46G2x0BR8ARcAQcgRERcMU6IoAe3RFwBBwBR8ARyBFwxZqj4XZHwBFwBBwBR2BEBFyxjgigR3cEHAFHwBFwBHIEXLHmaLjdEXAEHAFHwBEYEQFXrCMC6NEdAUfAEXAEHIEcAVesORpudwQcAUfAEXAERkTAFeuIAHp0R8ARcAQcAUcgR8AVa46G2x0BR8ARcAQcgRERcMU6IoAe3RFwBBwBR8ARyBFwxZqj4XZHwBFwBBwBR2BEBFyxjgigR3cEHAFHwBFwBHIEXLHmaLjdEXAEHAFHwBEYEQFXrCMC6NEdAUfAEXAEHIEcAVesORpudwQcAUfAEXAERkTAFeuIAHp0R8ARcAQcAUcgR8AVa46G2x0BR8ARcAQcgRERcMU6IoAe3RFwBBwBR8ARyBFwxZqj4XZHwBFwBBwBR2BEBFyxjgigR3cEHAFHwBFwBHIEXLHmaLjdEXAEHAFHwBEYEQFXrCMC6NEdAUfAEXAEHIEcAVesORpudwQcAUfAEXAERkTAFeuIAHp0R8ARcAQcAUcgR8AVa46G2x0BR8ARcAQcgRERcMU6IoAe3RFwBBwBR8ARyBFwxZqj4XZHwBFwBBwBR2BEBFyxjgigR3cEHAFHwBFwBHIEXLHmaLjdEXAEHAFHwBEYEQFXrCMC6NEdAUfAEXAEHIEcAVesORpudwQcAUfAEXAERkTAFeuIAHp0R8ARcAQcAUcgR8AVa46G2x0BR8ARcAQcgRERcMU6IoAe3RFwBBwBR8ARyBFwxZqj4XZHwBFwBBwBR2BEBFyxjgigR3cEHAFHwBFwBHIEXLHmaLjdEXAEHAFHwBEYEQFXrCMC6NEdAUfAEXAEHIEcAVesORpudwQcAUfAEXAERkTAFeuIAHp0R8ARcAQcAUcgR8AVa46G2x0BR8ARcAQcgRERcMU6IoAe3RFwBBwBR8ARyBFwxZqj4XZHwBFwBBwBR2BEBFyxjgigR3cEHAFHwBFwBHIEXLHmaLjdEXAEHAFHwBEYEYGFEeOPPfrFJ20OOzbPF+k+sPdIuPPxI0U/d1xfCMxtCOE5Z2wrMv2Z+w6Ew0tHi37uOBwCP/6iU8JFJ29pRxKsP/muu8NjB5bM7ezjNoZTdmxs+1e2R/YvhlsfPdzlfiw6XKQ2aW6DBDYz+48shzseO3bxOXHbQpivDcuos0muMqgGsv72NWd2tPt7Di2FH3/H3eHoOm0Gpkqxbtk4F37rNWeFThFul8ueQ8vhW95wa9vBbesWgcvP3h5+7uWnFfn/w489FN564+NFP3ccHIGXXbAjvPxJOzsiHFxcDo8fjEoVj1+5+oxw0vbuZmDv4eXwzX/lde1UdTperzapbmjwv+rPvlR3PibeLz1zW/ilV5zelddH1Vn7tr+5rct9EIdN0tJn7so7eBvDjz7/lPD6Dz8wSPSpC1Prc0yWv6976nGNShXOdm6eC086YfNkmfTUVx2B2uBg1dObxQTopP6HF5zSlbX/dd0jA40Cmjq3XQRn3MFlsbuANy+MXzp+/UP3dyV01YU7w4Unrs/2fqoU6yufvKsL3LrDtzzz+LqTvzsCjkANgZ972Wlh03xnA8go1GcCakD561QgwLT6jQ8e7OAF6f3Fq7pHxh2BpvRlahQrc/an7Oiekqrj9jxNQ7hxBByBZgSedfrW8OwztnYFeNPnH+tycwdHYFoQ+L8//lAXK7u3zofvfN6JXe7T7jA1ivVbnjHYSJRpCFeu0y5Wzt8kEfiRK0/uSn5x+Wj4m08/2uXuDo7AtCBw80OHwr1PdG9OZYlwgd2O68hMjWJ98fnbB4btG56+e+CwHtAROJYQYGPJ6R2bQGLu3/elvUG61Y0jMNUI/Om/PtLFH0r1ey5dX6PW/nOvXdkcvwMbknY2HLEppfbUU7YENhWMshWbke8lJ20J552wKezT2tOdmuO/Tb9Di+un9Tluy3w4VdPn8wLji48cCkfGdESFDQPQ5rjFwzp2MWuGJYen6AgKz93K5z4dnXho32K4Tfml1zyqYZft6Ts3hv2SqzsePzy2chmErx8qjFaR6P/3k93TbIPQW60wDECYsgYn8NooB2TtQZXD9fcesDo5StrU77N2bbJ15ke0W/V+HdVbbbNj05zq48bwhI6KkI9xGDahcQQRvO547MhY6yP80pY+pl3i1PVxtR+j5PtDt+0NP/L8k8N28Zabay7eFf7ndQ9PBY85X032qVCs3/yM4Uag9GCu0jGCd39xT1O+iu5nqSf/Uy89NZyze1Pj1AJTZp+976AV4pekrOrm255zQri6doQhhfnl994XSnGS/7c++4Twyid3Hn/A74Aa9u//xzst2C419L/56jNDp1gFa/DZOYcy+FHt9nzmaVutc5Fo84T3Gx84GH7jXx4wRZH79bK/+qJd4Ssv3BVOUyO3Qzuv80kXGuXD6mzc9NDBwDGY9Xp2jwbq30vpXHb2trBN9iYDhrdIuf63jzw4VF7pHP7glSfZLsZ5WsHM0Fn72J37wm+pXNhQ9Ptfc7Y1lFmQcLs6dT//7ntzp6Ht5x+/qbhPgfPfbFyaBnOFjll9j9bMzlBd7LXjlqMb77j5ifAX13ePYHrlg/U46idrc7mhE47i/k2VAeekv+eyE8NLzt2RBzF78u/yaHCgPv6w5OrZ6iTk5Y4ckd5NDx4KvydZ4tzrIIYy/MErTg6nCZ9dqoulKVDk6YZ794e//sxjXRt+eqVB2/LvpbQu0GDihK3qzNQ2t8EzRxr/8QuPhb/97GMjDVxyPk5Wx+lntJmufu41hXnfrXvD3yu9ZK6/Z3944XmdZQMOX/+03eGv18lyxlQo1kvPKk8Df1oVgB5VSbi+9inHDaxYif9TLzk1PP/c7R1KIxVk/iQsGz/+2xlnWQP7Y2+/q0PA6NWVzv1B42suOa7nuatXSYGdUKvwxMvPFTKC6jzPRYgQUAwvOX9H+Enlo7PZjv78hfenS+H+yTecG9io8sefeLjtWbDRq/+VV5wRnnpqdoFALRxpEQ5F/odfe7aN6n76XfeoArbPQtaiTN0ruP/AFScV5ajOLBg+RTL3B8rrB768N/xG4RhAPc7/fvlJ4Wskj03lAn6U3WVnbQu/+v7YOarT2LzQrOzrYZveX6eGp2Suu+tAyXlN3cDgt159Vjhfjfog5njVk3/7rOMN15/9p3vCLQ93d3JzOnQKuWSAmZaSQYlTb//rV54R3vKFx8PTJPOlesyFGSjeQQwd9P/2VWd1KSjiIkeMXvlR7j/1znt6drqJ8x3PPSF8k/aaNMkRYTBgyTlwfvdoTfKH3nxn3wtVXixF9eMvPqVnHYBncP/O554o7E8ITMv+w+faCi+mPtxfeP29rz7bjkqWYtKeXnvbvg6vd39pT5diJcBVF+xcN4p19NrcAcnwL6wJAX7JcDSA0UPJnK8RQv04QSkcbr/wFaeFFwygVOvxL9QUzH995Rkdzv+oStk0Wfw8VaAmwyippFQJ/wH12PoZpkZ6KdU8Pmh+/VN399zkRYflL7/5vJ5KNaeZ7OepR/27X3Vmz9FGCjsNz9dq4wNTSzQawxhCc8HCr9bKv06DtR86eYNQ3yoZ+JmXnVonMbb3pg7qO295YmxprIQQsv/HX3/uwEo1T4Ppyt+UwmTqvskwOv39rz6rUanW4321yutMTROPYlDUv6c066O+Ek3K/XelgF9RmK1K4f+HOnLfPIBSTeHTk5H/H33dOY1tKOEYLf60ZuqGqQO0rd8n2X6h2s2VmohRs1Jd0gj5J3S7Un2a/hN37+8YzKT0z1Cnp0lXpDDT8py4Yn1dw0YkpiWuvX1faGoUaMioIP3May7ZFZ47whEdRoDfnS2cH9SUzu0NV73R26MhKJmrelSqN36m/25NBH2QxjtP+7+oES9VJgT+l3VzypYVjpLohf/Cy0/Pk5pKO5t4vveyk0bijXXAb2xYqmDEwvTUMIaZh9UwLHNwgUrdMCLotTxRD78a7z+vji11Y6UGGf6Vq09v7Mz9vG7wGhbXcTTQpbrVlEfqHNOwpWWIb9HI/GzJ0koNI+//+MLuy0Cg9/VqXxlUrNQw08cofiWG2bDS7Bu0GJz84nvuK85EMG1/d2F3MO3fqy/u3+ZDf9KmuyauIUcI29M0ciqZm7U2gXmvpgWaNim9WuuC/cx3a1qjZCjYL2l66aN37Aufv/9gz80SL9M0Xm7edlPzdXuv1iJ7yby0tmaQwrDJgc0Vq2FQnJec3H1zybdrnZhe9CiGtUrWTqbZ/HSPafPEN73mfoZpsVIj+qMv6D7W0o/Wavl/XYOCv1ObpyZpWHt+hjqnvQwl0FTHUzwU5/9WqMt0bi7uMZpN8afhyRos67F1801Pbz5qCDZ05vn1MhdpI2bdILPfrn0doxh4/rEGpd2L7r/T8kjpLHWK89ta6/6U1lKbzKe1hlwyTftbSmEn6TbRlvFq3bSUL/jnQLy1Ul60e7c+ekgL7t0KghEJC/JPZHef5jToHTb1ZH/+n+/tKlh6vlec0927O0GXVzBiTBfDv1ObKr5fglPi/aXn7Qxv1KaCunlSw9VcrCcMYxiB/K3WPd6jeI9LIb9ICvuHtWmmxAt0WS/8rDoOydBTb1qLIwxT7/D0UW22YV31h0S7aWTL1NZf3dB/tJ3SXsvn07WG9uQGzOHjHTc9Ef78hkfs0nBk5GrlhamvEo6UPWu0bEJJhhFirwadzTef0pTWp+8/EJ4s2YV+kywmmqM8n9vwQYOH961Op21QXn/iJeWRFPFZp/+1D9wf2EuBYkVJ8tGAprrCecY3aPNKrmQYBTYZaN6sTXfXqvOsahOu1FJNPyXfRKuX+wN7F20z0X3qJF+u2TH4L3XEoMFa+x/qIoS0R4G14abR86e1O/oX3nNvq91hOYiZpksKHYkTt3XPCPw7zdYguyVDW/aBL+8Jb1M9YIDzjVLuTSPb847vbntLNJMbs4TsOWgyf/zJh23A1OSP+917yru4Vzp67pXWaviNNmwZkSM2+5QMo4gPatt1MiiRJvONDVPJhL9co6qSocLVr88i3K+rFyWvLoNoPj9TuCj7pmMZ5+zunjah114ScNJ60xCbAwj/s/98T/hzbSrgIDU7Df9J62f/WZs7mgyNem6+S73+pkr/Ze2C/tG33WXX3nH8hNmC73jj7Y2jicsbNp3l6U3Kzs7pJvN/ffD+8N8/+mDrSxw01Gxo+eG33GU7q0vx2DWdN4A/WBh5pHiMErmM/LevfcA22P0PNaTfLhxLh99TnFGf7CAtmUkel3qONgGefVx5ihNlhGzdIOWRRqvsOP/3b73LZpFKeUFuf1gdnGTYs0DHscmwy/o/vv3u8HfaccomHDbd/a4udS/V8SYa/dzpZH/X390efufDD4Y3qJNJej+kHf4pT/X4KDE2ZSXDxqaSYSnsv6iup848YTgW+AsNO8fpEHJ7XW6+8qLuEwj4k///IizgmU1htGX/5/vvC+/XZr2SQe5Z/hnE0MH7Ae1qbjJ/r02Vfz9Am3ef5KNkyOcg69qluGvpVq6Na8ABvXfOkJbMF1XYuWCy7b6pMrxcO8WazI5N3b04wiLcf/5N59m6RL4pggYWwX29GsT67xN3dU5NNF0PR8FfmSlh0ntVw5T1PfoEHpVlUPNeHS/KR58p3uc0IqUilkx9upZPYJUM8f+zKlvdwN/nNOoqGTYyTathJFAyKL0PNmwWo2EH45JBZp5+antK89yGNTEawh9X41o3dIJ+Wh2gcinVQw//3rSr+IEJnkN+UeE4S8rZr6tzkyuN5M6Tjk/TFP3TsjJ4pta/m8yb1VEqTTX+0y17wg33lOW5iVaTO7KUz2KkcHep0/sHH2vPbiT39ORITTJ8no/1xPrvTZ/XJsmCsHxDjxvq8g4z9b40+0K679Io9Qu1e3lx/1+faj5F0GvjFXExWzduCL9w1WmNe0God/1OKkRKIdzXMGLF/5yGzlqKOw3Pzi7OGnLUayfl26VIc8O5LXr77ICrGzZF0IiWCuKzDQoBGvTC2FDEj0p8v3pIrLX+yx17BzrGw8YqlFEuzIm3V2mKm7XbZC5t6JW+fcjdmtf3OAbA1GNdiab08+fJDT3Pz+v8a9NZR6auSp2DRxum4PP0JmFnJIMiLJn/qWmoXuaP5H+1jueUojMFd52mdzGc9y0ZRmBNODIL8AXJWK/jTSWa/dyYDWnKb33HZT9a4/Rv6nixr6DUsKe0UbgfV0c2nyVKfvn5VGaCmgyXCTSZ39GolSNpoxrOdTeZt0t5fe+lJ3XMcqSw+eiPdoRfyTDteaHWTpkif7IGIeSXpa9BTGm6OMX704azwcgnuJ1cG/kSL2/PEp36s2nJiHDMhtFhGtRwjKjJnCVcJr0hr4m35D4xxVpqqGGKXhpTkHXzfvV28imU3P/f6os3TLvVDTfpNCm/PCw9O5Q2v1foU0WsY3L7y5+qB9frY880oqV7i59+Wnt6CsV7sg6R1w35fNuQ3xwlvSbDWdhBFOvOhl3LrHM1GXBkOnO9GHZyN5l/7YEhcRhZMnNR2txF44ahTEsdKvz6nbf8nEYK41asTaNn+LlvT3lKDb/VNrkCydPilrN+ho5eSbHSiQB76nXTNDOKmTrcZFDsg7QLTfFxp/72qo+EefTAonX6sedm15Zyp4zdvd+pjYWMxNnXUerc5XR62bkEomQYpDTtSSE80+arYeo3KfVLgzKkBEsYnOUj1jJ8jCi4saRkjqjCfGNhumNLw1lXaHDxQ7i2RC0EFsrZoTaMYQ6ftQ9Gmkyb/J7W40rmjRLCkmKlUWZjFaNsNiuUhIMNWb0qfz09KvKo62VqjxrXJ8Z1BVud70m8N/XWmZkYBHNunykp1jOrCv2khkaLvH5BCqGXuWsVdume2eM4xD09ptR68TkOv9LxH+iWZpfq6fW64YvlDBTvaTvLbQgKrZ9hiaPpMol+cfE/tNR/CYdRV2lJojRtz3GZXkfyBuEpD9PU2TqkD91PwtDJ4lpCRvKDmkUp19J66ukNumNQumsRriyZq5wyt4s0GXqk36Fe2zCG3b80pqUNSay1cJ/u1+rChJKC65UO4V8lYaBy/Iw2EtQNN7Qwuint9mRjFp9B+gpdMlAyXDQxjFlGs45oTm1Yd4Qs1yrOitnecD53UATp3BVN5byjx73Wew/33oXLSGncpldnYe8Eb8jiDuuSOdBjNJnC97oCMFWFzQ135DWt3SbaPBON3G0Y+yDxG2cLaiLAFaa9NmENw1cKe1JhOhe/1ZC/lGa/5/dpl/I/aw9DL3nNadARLinWSeYh56+XvTwn0SvGGPxeWjsXOgaSurWk+aD+H+lqv+/Wzr1P3Ll/RYLFeSxGniXDWlDJXKnrxjCl0RMC02unc4neONxYQ2kyw3wEoYnGtLh/+bHybV1N07d1vpt22KarJ9lc12T6HedgvWzcpunCEtKp7xQdd9q96B1oGB2dNsD5517TfWkU3iTPpTXCOp/DTk3W45d2+dfD5OvBud/BDJdXamNjP6VKe8GMEvdNs7myppdz0i17ktWWQ2UpKap6mNV6B7Mf67Fbv57ugsKXzJ091l9L4SfhtuYjVnbEDboAPwwgz244x5dosL3/F997r70+S2tw3B/LtX4nqpKXiy/FjE+O9ZR2k/61bk0qKV3WVWlES1OKN+ryi0F6vJ0cjP5GT7FpbanphhRSRelekO1kTJw8rtEQ66/TZtiE1mSaNrrl4Utlhj8X5WNotCi/0oDs6ZKpv7NQ5T8XDHkmsEyl07XpzB+hmK2Z1DT/w1IG2wodiV4zJylnTRufUDJJadz9xOHiejUzSCiQppERM1yjKhj2ZUCn18i6aar6sexCmF6fwOQkwv+no3X5Rh2WcwZpr27TkkPpxrkm2U6482Ur8lU3N6kzyezcIIY2oan8XqIZvL/U+XF2TvczTbuaey0T9KO5Vv5rrli/RRuNVsPQG+KYS7577XKtkZaUOGHSDjUElUsWXqEvYjDaaOqJltZKyAdCxGHv+ogP4ec6sJJpOqpTCjtut71aPyz1pPk6R5P5T1r/4aaluqGive4vb607T/ydT+g1me/QTTR8JajJfIXkoGlke6MuG0iGBrU06uFSDWSoNB2JjHA39rgNSr6pw1S6aH7c6TfRo/EsXdXH7tZ+SqnpprL8eNqXVPeubkicayj/8vry5SW9LpVoIFd0/i5dmv/7DTuDUe7nN3SiHsyOQDVtOOR8bOkoT37cqMhU5XjrI+UOL7JNh7+knLiO9fW607ikuP9EGzlLF9/UeWDXPOeH+SBC6QIVaP+srrj8/n+4sx614506VOKDQL02lHYQmeBLd9dklZlpOnoyjmRfp3XU3PyMblLiOq767zXZxRTqANtIFGH4uj//snbyldfINqugm8y/1L7OkMKVem30oj+SHcVJYdfq+UjDxg4+asAIvmSariZrOsRdorGWbiiapt71i87bXlwTT/x9pxrLJvMZfU4wmSYcaVB/Q2tmdUMH7pc449csRvUoQ703rZFPciqYTw2WDBhwK1CT4eL3UueP8Pdmm7FuKpzFTDS5hrIkz3SeX9SwrJPiDvp8Re3SkDze9+gilqayTrM8yEpTR77p4pjSTuk83WS/uQc2P6Gv3JQMZ2SbxPOTDUteOR2OmaVPH3Kjlqph0bCbmw9c9DLMtDSZpiWApvCTcG/mfhW4YQdt01mnu3VZwq/o9o9+ht3Br3/NWcVgF+teXBowlCWGKZdSj/012pD0N5rCLU3H8qHd0nVcjRtalM4bRKvpjmBjJPvT61hLFmzVrKwJl66HpEJxXdq3/s1tHR97/2bNMDRNm61WXr5VN9O8RlP1w5p36FzwP+pgPYYzwnzhp26YXvqT150b+BxgfhMSDdxvqZfdpIjuknzmZ0L/RtdW/iddv1cyXKX4/7z2HF2ltzdcr8sI+FQaG/ZG2YVaSid3e/zgctesCf5Nm1jyuCX7No1e+OLKsIZ68iO6wQrzDyqLb5WCK8kPx9r2a62RDX65Yf/FT7y4PNNDuP/1qfb3WbkxiDpeUsLI86/pE3HXSd4/oDp9UMdMGAW/tE+DnvPSz47M/KnOw/7Qm+/q2LHPpfrX6Fq/kqFp+svqGtAmpUq8r9D5+j/L8ooby2hNt9XhP5cNk5gtYNaklAb1Hx65KSoZRqvXNNQ5ZkMGGSXmU+8sP3xQNzk14f0jurmMpbXUVic+0rPpqFaeRgo7jc81Vazf0HBROMC87ebHi9MTJdDosZQUJo0mV89xUxOG6ZBSOBrPN/6b88Pf6WotKie3n7CBgLXXFzbcFtN0hSHpwE8TT/jnBoU+SfPnOhz+dVI4+fV8iR/WX/7uWy8I96lScqsMG0hKl3IQnrUuaK2GYcq0PrU+SDrPOW1bS7FyEQQNRakjxzGQP5LiY/RD2W/XDV0cOi8pgJQuNwXlxq571O71pqk8jsCgTHvtgM/pjWrnmA95qJvSqK0epvSOYipN45bCNrnRCP6V7vZt2uVPB5ab0ziCxOjuFO134Pxmk2HTWP1bqRyF+znNTJUM057c/V26/7sUfiVuyOmffuO5NtPFLAlKvrRGmWgz8kv3BHOetGkKHwXKyJaO/nbVy2/TEgad96ZRMPQ3MqrIzBs/+6h1bDKnlpXL+WmPOXdNLNq/piUQvku8EvO7H3lA31XdXqTLaB3l+rvZ/dt5GqVjjPgPclQrpzMpe9bHWV0WEIimg/H04oY53/ThHlOpX5VN8/Zay0SJIKyM0v7715yty+ZPtrXWJsFNyroJpffoQut+hopXupKwX7xx+jNK/6tPNytEKhlncPmIcpNShR8u787Xu8bJ4zhokc9et+9QzuSPyyQYUfZSqozM8w0kib/X627paTF/q0a0ZFZjF3IpnSa3v5ZibbqJijh0cmjU2T3fS6nSRvzXWueG+OyXKH1iDL+1MtQZzuYjT72UKnngjurcNF3WQPvEHo23fseTwl9rEMAnMpsUX6JXT5sPZDQtiRCHNNgTwPR4E20Uf53nlF6/J5dR8NGEJsMNZ00d0+c07Plo+oxoUxqTcl8zxXpVj00hHBcYZojPFFOTOVfTJfSGMDeoQeRy9VEN52NLO4Jzun+vyyKoOL1M/b7hXmFX049NCKnXvJJ0mBL9o090TuGthM5qx3nbjU/YyHuUdJDL3yg06NBEvvhKzjCGhmo1DFN/pUaaqcCmjXerwUeJJp8IGzXX79IsVD51n6fzf2i3/7CdvNIyUE5zNeyM/Orrg8yajcvw0YPckMd86jz3G9RO2ZU24g0aH+XOhSslQ4eEb/WWDJ37ukGGhhmA1eOv5fuaKVbuBm4yw/ZCaNibFAOF9Vp9XioZruLrtckhhWt6ckznp97ZfTlEPTy9ci7V72U4mjMt5jv/7o4V4cK3Y39AX+9YJf0wdnh+ULymzSLDEue84fcrfq/v5dKb/5X33TfQ+Wga/1Ebul55aJrJ+Yon9d4o0ovmOPw4f/lr2j+xUmX2Tw07ZBNvd6resTeAj1EMYpie7neRRz86jMZoGwY1TGH/RmE3OoOEYdqnjwvLpnPLLDvUZyjeqmtTSXfYDh1KjM7zBxo+WDFovgn3+7VReh6X9d76hix2jZdG0OR7FCWfp7va9jVTrPUCTxmjsrG1fFhz3d3Nd9teWfucGZ9yQriadk6W0kZxs92dT0INKpS9LtWH3iAbAJoEB0Efp2GKCFz+TOfkBqFNOb1dlfTba5ubVsrTalytdrhwzRwdgB96853WSNAYDmLI6/t0X/W/ecNtA63psMv7u/729vAvWg/jGrt89oUUOZrDyORb3nBraNpdXuJ9EF7zMGyoKpnLzoyXlZT8llaq7UrEerhx0Tx1qXQ7WlM0OjQ/p+8mN63D5fHA/Cffebc14qw3U9/y0qYOs+fix/RZRD672DT1n87IJtpNdR/cvu9Nd9jmtDydFC89ic9RFT5Z12R+Uh339+hGon50/lgX5P/Se++zmZISLWYnLtEGzrrhc3DfrY70oB0BRtX/QRvQmmYG2QhWMuy7KBnWiXtN13+vvoOcm6aO4LADsJzmWts3XPMnXyyjsdacrFF69IauOGdbeKY+P8X8PsKIPHDM5gGNhDlsf5M2NOXnYQdljcr6pm+7oLhlHaXUdOZtUPqrFQ4MnqYPg/NZtIt1DytrRZwi4z7UR/cvhQ/dvlfffd0zcAdjtfgcB13Wk75SOy7p6PGFGvLJng9mHGwnoxoBpv2bGtRBeWA5guut6+uLfMj75VoWqRtG1XQARjV/8U3nde2SpcHjvHGu8EdNZ5T4bPi5WruCL9MpAb5OxdogfSIwRyHeqPr3jpse1zR+7xmgfjywjk5a+1W2eXlS3m/W2qUeXYYyGHaGgx21HOHjc2acbWYTEcrpunv3911CyhmgPWKDEt9QPk1369LJfnDfkfDJe/bbFOg4+kDstmXK+Kla02ZvQfq0Jh0K8s33UktnXHM+V9v+Z9oMVt+dT95fq+OQeTmuNh91+nddf0P49O+8riQ29aCheQteV9DZcGATCr+/DOOflt2tTzo1oc7007QaKvC/6lgIv1k3TMnVd5auJM80gqUPSRxWb56dlk2bRp7VcEPYIBfHD8LnW6SQ2PGZG3bLc8MP613TYFCe7EngN6ph13NpwyHHo1AWpXVnLoRpqqe9RlZNvNJ5YpPWqIaOXf2Izag06/FZRnvnzfyGnyWs01qNdz6wUFeqpEOdnaRSHTavx5xiHRagYcL/4lWnF4MzPdhrna4YyR2nGgE2XZTOA8M0h+TTd1vzTHyPprzYPVoyo47OEk0aeK7frB8z4vjGtCjWxOuoT75XWrqMA7ocy/iev7+jKwnwb7p5iYZ7Wkb1XYwfIw7f9bzOaWGyzZTq6/UN3fVkXLGOUFpMK16pq/626Wsq3MtZOjMLec6TuZktBD6qDzo0Kdaf1blKjhl8WFPorEfxCcIXnrMjNN1gBTJvHNPGNqbMWM/lYobccLUn1yl+svpQe+63Xu10RphtYSmjbtgJ/euvOjP8he6lZYrzPE39P0/lwMUj6dRAPc5ns5u16n7+vvoIIKPP0HJU3TBaHXR9uB53Uu+uWEdAng+vcw6sl2HDDOuTbmYLAXZbUv4lQ0PPpQhNFyPU47DbcZwzGoxMGaHWL9n44eefHL5Tm6xmydyojUp8GLxk2Dfwq688o+RVdPvTf3246O6Oa4PAj0o+69P67A/4zQ+tr9EqaK3ZruC1KZrpS+UfvzD6OtL05co5Yv2O3ZajGhqO3xrzRROMWn9Zu0frhnVh7uGdJfMHH3twLNO3TN33ul1tljCbxrywrnq5bsmqm79QJ/Hh7KMFdf9pfXfFuoolwzELPvvkZjYR4AjXKMqVNT2Ok5RudRoVsc9rJMcRjrr5gStOrjut63emg3/kLXeOpFyZakyXx69rMNYx8/9RH0upT+hzreo4NoVNAhZXrKuEOrfE/CedE1Xb6WaGEUC58uMjEoMaRqnX6ljPN7/htsYziYPS6hXut699oOumH463MEU6Swbl+t06I8vZ46Zz4KX8csSOkX2vM6aleO42XgQ4/vSs2q1R8Vxy89nf8XIwfmrH3DnWcUL4tbrhiS9mcJyBxvJhnfnkHOzn7j8QpuX6wnHm12n1RoDjN1c/eVc4QxtnuFAeJcYXR7hxie/gctThfToje8O9a3esiRtsuBM2Nxx3mWXDJ8kuOWmLXeV44rZ5O6uJwuW2JY7ffEaj+XdrNF86ijPLuExz3jj/O5ctsHKBzDCdpLXI2zDnWF2xrkWJeBqOgCPgCDgC6xqBYRRrZ1d2XWfbmXcEHAFHwBFwBCaPgCvWyZeBc+AIOAKOgCMwQwi4Yp2hwvSsOAKOgCPgCEweAVesky8D58ARcAQcAUdghhBwxTpDhelZcQQcAUfAEZg8Aq5YJ18GzoEj4Ag4Ao7ADCHginWGCtOz4gg4Ao6AIzB5BFyxTr4MnANHwBFwBByBGULAFesMFaZnxRFwBBwBR2DyCLhinXwZOAeOgCPgCDgCM4SAK9YZKkzPiiPgCDgCjsDkEXDFOvkycA4cAUfAEXAEZggBV6wzVJieFUfAEXAEHIHJI+CKdfJl4Bw4Ao6AI+AIzBACrlhnqDA9K46AI+AIOAKTR8AV6+TLwDlwBBwBR8ARmCEEXLHOUGF6VhwBR8ARcAQmj4Ar1smXgXPgCDgCjoAjMEMIuGKdocL0rDgCjoAj4AhMHgFXrJMvA+fAEXAEHAFHYIYQcMU6Q4XpWXEEHAFHwBGYPAKuWCdfBs6BI+AIOAKOwAwh4Ip1hgrTs+IIOAKOgCMweQRcsU6+DJwDR8ARcAQcgRlCwBXrDBWmZ8URcAQcAUdg8gi4Yp18GTgHjoAj4Ag4AjOEgCvWGSpMz4oj4Ag4Ao7A5BFwxTr5MnAOHAFHwBFwBGYIAVesM1SYnhVHwBFwBByBySPginXyZeAcOAKOgCPgCMwQAq5YZ6gwPSuOgCPgCDgCk0fAFevky8A5cAQcAUfAEZghBFyxzlBhelYcAUfAEXAEJo+AK9bJl4Fz4Ag4Ao6AIzBDCLhinaHC9Kw4Ao6AI+AITB4BV6yTLwPnwBFwBBwBR2CGEHDFOkOF6VlxBBwBR8ARmDwCrlgnXwbOgSPgCDgCjsAMIeCKdYYK07PiCDgCjoAjMHkEXLFOvgycA0fAEXAEHIEZQsAV6wwVpmfFEXAEHAFHYPIIuGKdfBk4B46AI+AIOAIzhIAr1hkqTM+KI+AIOAKOwOQRcMU6+TJwDhwBR8ARcARmCAFXrDNUmJ4VR8ARcAQcgckj4Ip18mXgHDgCjoAj4AjMEAKuWGeoMD0rjoAj4Ag4ApNHwBXr5MvAOXAEHAFHwBGYIQRcsc5QYXpWHAFHwBFwBCaPgCvWyZeBc+AIOAKOgCMwQwi4Yp2hwvSsOAKOgCPgCEweAVesky8D58ARcAQcAUdghhBwxTpDhelZcQQcAUfAEZg8Aq5YJ18GzoEj4Ag4Ao7ADCHginWGCtOz4gg4Ao6AIzB5BFyxTr4MnANHwBFwBByBGULAFesMFaZnxRFwBBwBR2DyCLhinXwZOAeOgCPgCDgCM4SAK9YZKkzPiiPgCDgCjsDkEXDFOvkycA4cAUfAEXAEZggBV6wzVJieFUfAEXAEHIHJI+CKdfJl4Bw4Ao6AI+AIzBACrlhnqDA9K46AI+AIOAKTR8AV6+TLwDlwBBwBR8ARmCEEXLHOUGF6VhwBR8ARcAQmj4Ar1smXgXPgCDgCjoAjMEMIuGKdocL0rDgCjoAj4AhMHgFXrJMvA+fAEXAEHAFHYIYQcMU6Q4XpWXEEHAFHwBGYPAILe+5/YPJcOAeOgCPgCDgCjsCMILDw6F13zUhWPBuOgCPgCDgCjsDkEVi45tJzRuZiaWnJaMzPz49MKxFYLzTh97FHHw27jz8+sT7yc73kfTX4dDxDGGc9cjwdz5EbpIqA1/cQPjsuMJ2OI+AIOAKOgCPgCDgCjoAj4Ag4Ao6AI+AIOAKOgCPgCDgCjoAj4Ag4Ao6AI+AIOAKOgCPgCDgCjoAj4Ag4Ao6AI+AIOAKOgCPgCDgCjoAj4Ag4Ao6AI+AIOAKOgCPgCDgCjoAj4Ag4Ao6AI+AIOAKOgCPgCDgCjoAj4Ag4Ao6AI+AIOAKOgCPgCDgCjoAj4Ag4Ao6AI+AIOAKOgCPgCDgCjoAj4Ag4Ao6AI+AIOAKOgCPgCDgCjoAj4Ag4Ao6AI+AIOAKOgCPgCDgCjoAj4Ag4Ao6AI+AIOAKOgCPgCDgCjoAj4Ag4Ao6AI+AIOAKOgCPgCDgCjoAj4Ag4Ao6AI+AIOAKOgCPgCDgCjoAj4Ag4Ao6AI+AIOAKOgCPgCDgCjoAj4Ag4Ao6AI+AIOAKOgCMwwwhsOOWUFx9dL/k7evRo4Fc3S0eXQ5Dzhg0b2j8F4n1aDbyl/JTyVOfb8qI4c/otC4Nx5KyOTxPd5eVl4LW0iVOPV+e16b2e31FoNaXR5E4ezAg45SDMzc01BTX3Eq94rDTvPROreaa0SQs+N8xVpa1CGERWauQ6XlWDrK4Y3aosU3ol2vCQ/CE0jvwnHqCV6OUy1sFwlWYKV/cb5T1PP9Gpy0kpDGFTHlK8lT4FgUxem6lpktUNPFdqUjs4YHwlRd03waBuwBT/O8on+o9aDnNz86LbyZeVfaFd7wwV33IZ3bBBdaPiE9/43pbX5eUli5TyQb0nQj39SLnpr+ip7QAfcJmbn6vaDtJRuyj3+It4femL77LcLTSRc/fZRyAX0tnPrefQEXAEJo8AiqjGRf295j3ZV+tCmTK2roWYX1qKCju1n+QHZT0nRZ+MK9aExDH07NXbPkqnjp6dG0fAEXAExowAyqjevkyrXrWRKPmv2kT4ZORq7mhTvKrh71E1nG21GoIrVoPnGPsjmSgqVwQoatZjDBDPriPgCKwFAqaPuqa5p1W1VpPjKE9+plTjtDBYmVKVs2z8CbYkabYpUaxpSF3xZJmIrLZcOixd4TPfXvGyYMeMFZEtYlKS5Spwwjf1xo4ZsHpkFEwmhketrMbBS6KRyjpOePUAYIa9ip3MhvwOE7aBxDHuLARr8rxyQGKDlWQ50hkbcdtXQnm3Fajp1naDagpXr+zXUKbSFDF8TM2IFXAMJjGLIoiZkc3c5VPDi1eLI3/CsrDMM/3InJsoA7b5BQgTlj2ASRuYDH/CFbVyDwKz4pXlW7BNDIa8zI4ux0rQKpsRsYY2Jq9HI5IcMLrArUYtiQcAziAfkM5owUg71Q020MylTWIFsmCeeE1PgjWWRT0zEeoC5ck7wVo7H8onLFWyYa2xtavj4TPS66SV49npU3rrBDbFzTcjWgj9ycusRKmfm7ItE/FI6YhoKxoay2Cq1lxzv6lRrDELZKP6pQzomWfKdqwpDG4xY1FircBSliEyxYKc2FyrZ2qQDbMKN/BpV6Y2J22xiW4duLaDzbwtzzdyNlGTJU8ZlsptFP7WOn9RxjolLcd7lLysKG6Gbyl+qjf4JbuVAzu2SxEsYJPH9Lmnpja2vC2d2mLU8qg/pkRariuwCOejdKj64N2LcpvXeihJUCoMnixpjWhU0wySTlKJbmcmeFuuOr4kO1WKtR8OZMl6IVYyArLKW2cW+1E5tvxpADDWIKRn1TgnEbEA/scRcAQaEYj1R10QNZ7WEVG12kDdarXmMWryKxEad4eolMY0u1lL1KCd1w02rUazZWlBnovCulKs5KCtKOLZ1Xj+KircVg7d0o2ASp2GwIS7Wya6w7uLI+AIdCDAqJoRFxv8qprU4W8vqmAlP+K6WZ8IWJuZs55r0MrddgQvtPcFrzvFmno2OqZrAkxWujKeg3CM28GLn/W49ZyzyzS8kh/jYuHZHwYBVRfOKKIw547qqVFrqldFMqUGyatcNbhvK582diXA2r6TtHVOA1ecqCxLHaU8F1OrWG1kSs+gNnXAIjUCbr1GRmDZLyldeXeYNMpNjq1wlUPyTwpoGeWToEMx8QYvMimsvVR/kl/u1s/eQQfSFc9tHqi8LS5a6aYRei2LreSaeDF3sLRDzO3YOR/Y8WmFbVHttqR4hE1nu7BHlLrD5y6ES/Fz99W0W5rITcXhMOkPmq9x8k+aJZPch+G/TqcVt5I7e0c0Cmm2wtaJrOH7sDyU8lFi18KZwKe8SzqEibUvuSRbGP0BI9zLRdNKwmoRcSrTix+qZKvyW3hLRE4ZgQHoVEHG8jAMKo2S8hJbhlHJR3xTHUzU4tJkd36T/yDPLhkRuQKEIqWcWFJVWZs9pl0qp7no1clCFqfDI0twahWrMVwxmgtzApBnsgNICZRWBRAQYEH4tPmpA5DKDxqEWVpaNnpGlzjzXMPVVgaJFvXL0sViYNep9n+3NMRoElw6DnbFl3YpckVXhyHPHQ6dL8ZLp5O9JZx4sTaBmoNdT+tEiChh7F+VAH55PItQ+iNSR4XXkvidZzOHfr1M4jE9e4Udpx/pmRwNSTTGGzLSiMGbsGlyHya5WMZVIVe3PFLO/bAZR9rD8FkPO5AsKtJK+DTJyHYE17EgbdqEumFHcT1sPcyK3pVerKgrij10pBJmVRNhtHq3Ok3JCZmcSBaskr7MZXRrl3xYIuWUTN5pD+BPWNtJiAKvtJJpH09fDkWHYktmuhVr4vJYfkYdeCwj4Hl3BCaLgOrgvDrXdbMyhVOnMqvvmZbpm8VhwvYlNrYAwzS95CAP74p1bMWwOoRWpUe8Oqw6VUdgJhGgDubnJFMmWxf2Jwd/thBg9NY1imz5dlsKA8buQOvIxRXrlBdW03TKlLPt7DkCM4MACmJxcbErP9RNr59dsFQOw45C8/FeE8314z51irU+pO4HZeoVzaKAt0StsqTRq01B5XKbAuZu/YAr+kMI6vyLqdVJdqVdBTAWEh9F2u7oCEwfAqn96MdZl9wnWa9XkH6EptA/XxtM7M3GCDIVUswVRZW72KjavHLXhMBoz+lQrPT8lA8TcuXWAGgo2VQR8k03QDCSYlXicABtS5uNDLLw3kVXXty3Yl8orcJwywf8j2QgkOjJvlCt6cCRXYwPcbkbPwoXdy5XKeo9mS5+k8cATzZ2HdUvTnGJqHCwjVTCAX6gbX7iw3Zng1eFUWkNaoAkPcgEEMhlxOTLBGsCjEw4ydSWDMKG1XDqaG6or1TaQUw97iBx1ixMdx7sWy0j8jwMvquR1bYKSRmhvcp1Rcx3O9woXCiNbKfTdCjWleRHmIyr4EypUkVQEuIlvZfYKqvQVvNUijKQW15xc3spMg1jrtjg23hnV24pwihuSGIfkzfUfYK694QRqMtW/X3C7M1u8rRXBSXsdWeVihw916M1TMo0PkdvNet01q9iXaXyWC9kU4VEoTJ6Rf/N8ydJzHrJiPPpCBwDCKT6Ws8q9bfLmFLocl1TB+sEFFgblIlivgaNPAPhXLGu40Js94DpcaFU13FmnHVHYNYRqNdPVdmSApqGvnGJr1kvnnHmzxXrONFcI1ooVLsMvOrt2ueubJ23XnPXiCFPxhFwBHoisLS81O3PiFBVtnPKEkd+btYzAtOnWCvdMEiPiekVwpWmWSw+PUL+8dQf+ylOl/rBreomItLY0zthocH/ZKI1+ihgcl71Z+KDJ5uI2EA1r9uZ0npriYEUh/wkDIa9Mabjtqoqu0w/L+c3VFWYGe4lRtxt6hAweTDBRt6pI/z0XVJu/LJ39hy068LUZWAKGYqYijHArEyqr3kbghd1krpLTU7vqZ5afKtT5jX0H8pz0ia1oX35aEPVN2hTgNi2dfpau9UERD3NMeM1FYrV8mRCNHjuUqGlZyek8S3dYRtBj0gi5DQWHUaVgOv4kqFA7APIONQLQE7EtnSbCo14q2HEiynKirZ9Z1UXwhgvFZ91PMi7GTGNFUy0vzfGGZBHKn+ia42u4pliFy02UINnL2Xd4mHA9MYRLPGbaE2Ch5T21D0RYGQpyYYJuTpe+sc3JTfoglTws8vmKWA3wyHQwrWKJqypI/zvMHq3+pyqaNUGxu96xjKIkaoAHZGbX2Iy1PHmMMmnLQPJZTxP5KfrStYG0rFNGy6P3aS649PSN4lv3o5Ci/KptxndaUSXQTCbCsXalIFR3ZErwEq3fALIMACOmv5Mxxe4URBj7TUlr77JIEK3FrhMCx9rkVdP49hFoFudRCysm9TkmcE1QJAs9LDWQanX1dyw6ZTDD4pBjE07Nhi/g4SabcUqpQoIjEWTckUZdExtDgynArppIUAHpd4bzNd9WwEry6C9wXq8Yd97KdS14mFYnj387CNQlD06p/q3UrXS1MBDL34xZjBci7wNFrUxVK962BhpzB7gMyi2fKs6DhEGY6IfZjOrWNsZB14pAQMZq0lzB3oRUP2tT+F0hPKXOgItjA26WM2LFcogjyjXaazGe4mHFq+rkaDTdAT6IbBKdaCXcu3HEv4o9tUygyq11eKD9AfP3+DcDtKWrCvFakJUU35NmUygdvQIpVQRoyawm4R0tQRvpXRLiqOJVkf+s0AlLDvyn+obHZGCyXGHHxPLDgJZJLm3xFbkjCfKsbJnIVds7YdJi78xprliZj3iMYcAMp/XmQRALrfYCWememBPTV5DVeTitxFMQ6VtSmyIlEpslVIj3Gh5aGYqx7c5lF0yJ+8Sx92xBuG3qFjJvCWRp1NCpDvNVXapmudK0pKgpo0zgNhqQMVvx7V/KU96lsCGlv1SDqYiv4mZ8jNtuLL1zXIQczWclB+Kk2lw25QyL6QqvNKGpKWleCSgVacUJ6XRg3z06oNX2kg2Px83QlkZECeXsb6JlANYqVte5F+TjRTDNuXoyjHtoY5rA334TfGOlWeUhSgfKc9sWnMzPAKpXcpjltzMvyb/R/kOszyiIo4U2u1VLbC8EeNRRblNP6bH39gGdKfXDtHbRkyuR+0yqZ52eUzWYRgMBwlbVKzFLBpSRZ81dUxspMy1ik4WhDEJiSnJ+iJgL04TwV5hptivqeIm94RLVxbId2uePPlatU4vxZ42ntBupNuKXVmoUKb0WiVWDzH0O/SiUkWfRvpkZ75UoTPqJicjN0cZwRmx1ksmyc6MZG9NstGEGe51P2S3tfkj565eELlfzW4jvSHC16L3rAV9qlGdVMc79bAev6n6l8J2EFuDF3Cs89uU7CBhy4rVGiyRJce5IXH9Wzemzn8Pxq1we/i71/QhEJUqCrWtWI3LQWvI9GXJOZphBEyR5vkbon3Ko60HO1lr6nSvIw2yYqjLihVQCiTt8v51gkoawRSyUXSy3qQ3yEVsptcxdvO6GqzpZdg5O0YRMCVTalRnFY80OKvlrz5qr3nPzGuzYrVxe2c+1x0o66QT0Imyvw2KgPWD9GdOczPcGHSUZ7FLOChFD+cIrBICTW3RGJTtGEh0ZZq6NQpd4pZGrJFuDYzaaxcza+EwDA8DhF2w72sWGE9xaaiijsU2x5shnkZ4hDMfXYMWb+PR4jvX7FmrFwnjnzbYEG9UBZ3it3iMpdiRC0uHaesUqMPXmG4VfBKghMUoPCZ80pNkE79M4jexU2ev73uNVkmISzTgxfJbZdp4q+zxhqUqVuWW6LbykBFNeBGGzUlIAjmsh8WH6xcJZz+BgNuoWLTQFCE7UFXRzVhsWW0bjvKOSXlqeR5rlqpskyykcugoE72YDA+BjeFqZZHhLGvaHDcEqRUHTTI2CAHyX5fVQeL1C9PiASyUBvlP6eTtgtkzvKAbRRTHqpCoU3rFlOTWvFLQGGyovxVp0bYUjAGrV3Ig3cS3+VZ1fKAEOEhL+Ir5mE6ssWx9ITnbqCV/0hhU1hKdgXgYIhB0I+3+kQYJ2zhitcxGtC0ls0LRCoBHe2t4hCu6sftyXleitQAFWL3aDl1ZU9j+7HeHsLjwIFM94ktHAVoi0b3H31SQSVirbFn2jLaR6UilB7W2V4RM1BJBeZEGeEKtjms75uC2RGvwGDEk8TApV+nd3ORnm37wNPaFUMwM3o3GFGoVzh6Kn+i3IsmjRYtArP7zrPhphVuhxdKr5a2L1JjS6qK7jh3qctRVbkPkjfqELNgXgSle/uk9r7NDkFvXQVtVv7LYqQXJX6sOKHfJnvzaGSaSAMwKI6+n7XDRRlM7shGN1DGGlu35hAX9+MAH6VNd41WLg6VmYYkkY3JW0VNCdtKA9Ahj9C2zg2dkNaoy/ZhB6Q4SdiEvwDZk1aim7eA2R8ARcAQcAUfAERgAgYU4jiqHHLwPUY7vro6AI+AIOAKOwLGGwELTNEOaqjjWAPH8OgKOgCPgCDgCoyBQVKzjVKpp1Bvn6ZnIXjm7db6MppGrUqkerbTk19RxWDkXHjNHgOJkyZR12WTq5YQXMyOsu2HS017W+R/LS5b3VnYaFmxGEP8W6fVgORbXVtdDuUwDj+3qMt21od6OJexKOqUetnHzEgrQKodQoPEoESMhU2KEsIVqbYCprkFL7kC3QdfYQePoUhvSxOSwz5QB6BtPSpek2QSQNtJs3LgxHDp8uGNn8qDpJLqW90EjHavhrAyEPZq1qiNLfIDdSQwJUQAAQABJREFUZKEbFDYqIAf8t7JrUD7dMaffBbm0n7HKBg37UG6R8Zh3IIugpd3VxcDrzRFRqOpmKuv1lgXnd/UQMNlXA4Dkt6/MHF0vrBbHSd/k9MturSbQgjYqVip9ai/txruGxhIqFrYCqwRRakBy5sZhTxm0iiwuTKeLaRqqpcXFsGEje7OqFn/ABIcLPSDRGQ0WsdLfCjTKI3Ws8ixTHlHZUhpthNu2PPT6tSfZp6rQwWjKX1I8sZFZv/ktc17lWg86XKZcywHd9VhGAPlYp/lPeqeb/XaOGhUrkVs/UbBGcwpGGDRedpG8+OMIz/z8vDXWXCC/QZqVS97hda5y7868u6wmAiYzDEkz0/mWecy4tZTvKahCM466Z88RWF0EYse49oEKetOZaVSsWZgpszItrcsolJGlpahYUa5Ly0uaal6yERON+4LcvLe89kW3pM5OTa+uPRNTkGJ+QUqdnfqIFXl14wg4AusFgfbItMUxTlk1LipWKj7KykYfqvT2j0jYJ9AIZPyKCU0m0u2Xo61Nabpp06ZNlr/DWldl5HpE08Dwz5peR24tVP4nUU7PFD49CYt9fGbWlf28Oj11yOgEleQG1JvQjSWSyiXh3xQ6+fd/jk6hdxqJY6aCmwzya4pXzNjkeDaMrec7nzpvold3TzyQ11ze6rTycHUax8p7js9q5nnodFLhrCZT0M4rBGnae5SclmfOS25PvOU0ktswz0RzVDp5mqLZRXYU+hUxHktLi3lKZrc6zb6KyhQVK36pISQC/xCMxCj+ptywVMbCKayFUsAUL/nbtV7zopQ1IsnPnsq0pVM1wnlacdspQMX4rasVN4h9/dQNkOeGsKgR7ILd/cK7poyNb+6Q5TujXLVISgzh243/Bq7RSInJDg9hA41iXgq5HRpEacfL80SDyfV9KS+ETdhYPK76qtzMMm1/EhYVj0kOBmEzz2ceHsSNbFW28QaXaj22IA+kSfiUNm/gaWWVE16RPZZlXmYrIlNFYvaE3KXOQy4XTXTJFxLG5g36fh28ZPJv0OCvf4OYFsaGXjsOvCVFbpjipcAR5Riug4dBEpuBMEm+xp0VK69Mrm0AUBVHKsveeLfLbty81elxv7YqmsmDSZp1jCs35O5o1VaacCHrhQ4j8UdgmXKAfCRBPa9z2fu9qRyTe9Qbok9ejfZwCZA9MDII9KQ+RTLs64FfcCFIG5u+itViVH8QhpJA5G4mODW+yWBT3EQ/p2FAU1YthCNBaJMlBgMLC5vDli1Sqgpz4ODhsKhR6tyG+bAwtxA2b92sMIvWs1hcOqIklrTmyoYS7IxkNxkwLfKJCXsafLLpSUFECDtCkGYqNPNQMAPXwLdibIVvhVOYmK+IRSvAlFoS9uk5DJulONbh4KJ8ZA+c9Otloj/hIm6xrKIc9IrXz+9o1Xkq8dgvbtGfcpUH1a5fnsrxu/NkcqLAyDt8Jl570SdMjAdgpKQ/NmMjG525ig77EqBrxoKuD3mMDK/CX8NqzHQFbyqzRDmWQXSv+6Uw7Sfl0y0Xbf8x2pCBFgYp3fwZlUZMkcqbvyc+GLis3MTk+RvzbPI5avazfMUOeZsgbUn/MujMT+KRem6URASlap1jdZDBcFnLkck0KtYUYK2eNArWONBA0SiYqcBojSrJCENxRqE0JMvhyJFFKdUjYfvWrXapM8dstijDyzrac+DQQa21bggcv7HTD0sbpFyHyVG7MIaJdayH7VIAwEiRVsWaBHPSOHXxuRKGlKckr3llLdFO/knW6WxQyd04Am0E1logam1tm5HMliowTnX+Uvws+AqtUEop1VMZmqQIxA5k6jjikOrb4NRjna04SwwaKT6sAFfoISNtSjbxObJipZEoNSIpgYGeMGqQ0nuK9FCcCZjKSw2YtKLcUa5HFg+Fg4f22yalTRs3aQS7MRw8eEBuB6RItZlJI1W+nrBl+3b5zZt7OLqgzU2MeEHIzbgRQMGYkNUJJ4GUu8miyoC+0jSY1rTOCMyY/Ff5ScqzRK7ll+Sdip6EuxTB3RyBGUOgVO1tYlAetA1mt0ZiiIxXvdM8WkyHv1Q21TLCVOEGpUycpDRj9zm2W5w+iaSg26aGezIjK9ZEaKSn8s8UHSOapFgNYWNaf1JrrSdTWazXLqhxZufv5s1bbHpx7769NvW7adNGZZb11GUpWIboOtOqEfrR5Tk9dSRHSHCZxGCGcIOGHYziTIdCjlVGPBqN4LTzjdMCaz9+GzPS9mjlGNmSMzJWmhixdU75x5lZdRCplfyQbzeOwLGAAOJeyGdyo/5g0nt86/+32Ka3iMR6RlWz9nyI+mYKuZa8ravmeqFimouQklmxYrXGpMV4IjfCU7RaDVTVywCE9mg4Duk1s2tHa+aZ4pUSXda66aFDizYlvEkXQmzfvlUKlDXXuEP4scf3ha1btmk9dofasCVTrgZugdV2Wm3PWBjt99xG9itMh2ocO+LlBNepvYRbnpVOWamUD9j1Alf+Q8h/nlxvO3KmQmt14HqHHsoXWbA8KV/tKtZJIpV9S246vYtvqV60cFTkiGIxeNuRxGSqR3xZq7/gvCoFuFYZGD2dlP8oEwOW2ejJTi2FlhzWhB9387MKpJfkL/kBO/NDlmRPXl2ZTOG6PKJDHAkrvhHrDJTEVCRqJndQXEUWR8aTlaloRXKRN/hLZmjFagSJLVqMHhGe9tVUiewIT9GNPXm2LvPx9EWloc1HGmbTIWCTEpuwOFKzfFTTvfCgkNu2bgmbNnO+9UBY2LQhnH7G6eHw4SPhzjvvMUV74MA+hZ2zoznA0yH0is87dGQx4Or+eCUT/ShkixHRbWOagtkTvFIhEJy4FjQrhI4I6+wlYQkSKW8tGanyYjPvKifcUTgIOej1MtCKOFOfeoftRafoJ9pMAY/FiDXt7W03BoloA8+WL4WxpzY75B/BTlHTs5XvxGpLfgzAFMye0IsodfoZhlVeodei2RF7jC9KK8kCu2FJb6ztwxhZXS1SVhYsd+hf2hFMOZuJhbRaSU8/XeU/iXNi1uQlvbSeMRSyA562sx2/htnGOk0jU9XB5JfqiH13WjShjXwyk2n1xGpQrCNEpdqknb4UW1SqRjlmQo62T0L1n83TURNF/6EVa0V21R5kFCAso+oh2Hy2HOgtIKRLUrQbOaOK3tVu30WNTmmuWWNdXDwohXsgnHf6WeFFL7rcMv/BD3043HjjlxViSdPGO0wxC9EWqKzD2vVzVgjthifOl6ci6c4uQIuplgfNCRUpN6VGDIqdofIY68dO+dg/nsoUnSyMKYpVyEYJy1VIZkUkB+XNZBqwklkFYajzEhuMlODaPZENNxkCqvT19iHzPWasJhVNDWBy19OqCc/KjXjWIc/a3BWB1kcsIU+SsR7Fts3SqdzNLhp2ukAMxfwQrjXMsiBTp1iNK/5UDXZaKGbUKtUq5bgpHD5yQA340bBr9071NjaFJx5/Ijzy2P1aU90QLrrovPCqV70sXP3Kq3RfsMJv3aiR6+Fw910P2bTx3PxmjXwXRB50lI56klyDyO5inoyuUODMo7PRKQaCITd1BDhCAIQ2+sOCATI3jsCMI5A6lrFlzTIr+W+NTjNntzYjkJoOC1FrP/Az/5p7M7U+PtDpSLB3+HpHldBt3aHmTrQSj6kTQJjpVazqOvDPBFijIdNxAgUFu33bNu0A3hcefeyRsG3b1rB9hzYwHT0Yjj9+R7j0smeGl1/1gvDMZ10sBRnCwcMHwyMPPRLe9/6PhUcf3mfKE7ooA/4xjcfCd5xqXrD1W5u+ETg2VQBKbooImNAJR3p5Q8hqkZY7OgLrDgFrVDslv30JwbrLzZox3IlYTHYQN8KUwg3D+LD6uaRY0wU37XQZrTJd3XaZWsUaM8QahUaq0pAsUTCC5E7gQ4eOxClhHas5qnc2MJ1++ik2/fuqV10dLrzwAo1suTxiLjz96ZcEHXMNe/cdCR/64MfDE3s02p1jx7DOtupCiSPyXDwsZb11m9ZfNbo9ItrsHmb+Xf+aizJD0fAcrsjqsdtFMpptOC5GSEsJUUY0JBukXFlfIE9rlv4IrE9f1By5tmSAaJTByHFEePq4PxY5MtlXe5SXT8LBRjTpxZ8dCNiortZI2OShtSextcWbcO2awPql2v8ULz1zynng3L1mHzCYxSopVXg1o6fVR2M28pszvIAQlAhU0VsPiKQbXFiwtZFkTqkVcngL6UOPkSJ82+YlhJahkBBlXZXplbiQrQ1MRw7rqM3RsFnnU1lcZsT5jKc9NbzmmmvCC59/hTYx6RzrEV3EL//dO08Iz3v2c8MD9zwRHrj3kfDpz9yom5r2h82bdggNKWWt0W7U1LAyJ7raDKWLJeZYwBUj9EDyitO+Ug8u+WGqpySB8W/uhD3HFgzJw5LmD+Lxohg3VcS4rtupnNIGsUg4/oUn6CQDFcp3Tha+9bMWBh6MeyVHirYhoCHhWCEIFXmLf4VcS0o7I+JuYVDcnV4db2kDksmLfIhnWCgSl4hgTGb0hE4Kh/vYjBJM68t1mpS9yba4inmK5Wa4KXDMm95a+Y3StEEFaX76s6yd7MnQ2DD1lGIm92GfhqpoJfwNNdHNZXVYmoSv45vopXTqNJN/3X2kdzCqkE10mtLHP+Udewc/iY6eUdAJ0Wk6wmdeyBx+1PF5dd5hBx5KfJRolNwy8uvC2ioDqwMVtrKXDPm1X/KsMOeR6paaeDP2nipQFR4vjZW6jO33KKRppOSuIpFJ+q/FsRW36bouitHBygeekz8W6k8kaK5DjViTYMBPLW8pidGeYpYGek5rnSi3RbUprHtu2rjVFOCSRpcot107tsvvUDgkBUn4pz7tkvDqV70yXH7ppWHnDilMhTkiJXlYx3C4L/m4ndvClVdcFh568JGwb/+B8IUv3Cx6h0QbNbQUNi5sUqMQwv4D+236eKMunMDEkXJSYIWSi2jGPFtXLFrzimHnqwQW2FlRUAj6pR6ZYYqbjPaW2ZOUWlhnhWWe9odpB3UosFcFDPXEaTvc6toqto2HXillItgKRv6KMlTlt6OitWI1WMQIabQwy+wWg7QiWA0Exu9M3lr4QL5y6M6XSk78EZasqzij0ROEMrEygkeXldMicFW8QR6WWCuZFm+DRG0K05LtKkD9vSneuN0t3UGJZjhYlPSuJ3SsrFQgDZLamEqq/zkGSTbzSLilZafcnTbD4nY40nFZ6xqeMzCkHQwrYY5PA9XyhZznhmAd+aUe6J+ZKqy91+K1aBDe4rRczAKF3oipZFv0q7j2Xjl2kmu9VZy13q1u6y1PayjF2qY0Xls+8rBCUL7IGlcVItRM03JWdfEI0746bjO/EBYPHZZyXNSxmjPCy1724nD55c8LJ550nOJoBLqJ+4CPKjxfIVCPUTk+77yTw0tf+oLw0CMPh8efeDw8+ODD8kOJKx2NWm0EKGUVi1SpW4XqglD+oxuEBEVOHu1npYtrrMQodBu9y53pbDZS5Qa8lqvLLoxvwliQznB5nKm0Kx/kv27WWS7q7Pv7BBEwBTZhARqGh5LCtXnPUh5KbhPEekVJx6a1M2rJrTPECt/K7csKiQ0VbSoUq3VsBC5CtihlyfGXhQUuc9BdwFKUBxY0pcLU72aO1CzHqwt1feHJJ50QLr/i0vCyl78knHLqCRrF6SiOlCrrsgtaf2UdFa165LCmmCWUFzzpjPCSl1wZ7rzrznDttR/RCPWgRsOb7bzrocNHw1YpcBTZESlwDJ9AKwq++a78j+VXSpT/XUYYtAxWumIdw5bKyfzkn8IUibUoTaXFxB7+6yYCVHf1d0egJwKtZrQuU3pPo6eeBMbkCR+2iWkAeiW+mkasA5DzIBkCsSmtC0MWYMzWvCzz0euYkxmCXJZ3wFiWQmW9kzt/NVsrBbhXFUPrk1qsO3zkYNiz53Epwc3amPTU8OIXvzCcf/452h28KRw6fECJLmt0e0DK9JAU5CEp4kNSuIftiM7OXZvD0552oZTr88MlT3mSRoL6MLoU9gJLrFLKjHK50YnRH7/Vat9tbGp6NY5S018Qo3CY8pnXUJorG0vTP4TBjzCMWNtrWxmQQ8A/qaCUNRzXf5Pix9OdAQTqwsT7WhulSYc8/zWxkIdJdipEsqenVZImIuvFfZXKojQ+iZCsUoID4G2bl/JwudbN3VfTzrSn9dKkzRa02I8dgdqyZZMU3XLYv3+PkufO3yM2FcyOX5Tqq655ZXi5Rqu7dcxG90MoHgNwlGOkAc98lHbz5s2mmBc2HQ2nnXG8RrgvDA89fH+4847bwp69+01h8x3XAwf3Slmxvopi22g8QANjRaQ/Udlm6y4ttxiu66/8yQsm/o0hmtfJpGaRlJiQTQl3RCS6/G0KOJIiAdlIyLR1cp2ap+W7wgCm0nvCpc5oaTU7hUn4896WVcoDB/3MwoubhEDCqYV3hRHu5gZua2wST2uVbCvvWYKpQ9s10hU+6e7yLPhA1lI6TREJmzbn5GHYOANvuQGvjjqfe45qT/UmJZnVoZQfwyhzHz5JIitX1g7EhGxkTz75X6DdKpcssTou5lWIm6Ik/tP7Wj1NsZI4BbfWwp4yaekKHANBfCxoJHZESpTvp7JDcvOWjRp9HrTRJyPLE44/Plz5/MtsQ9IJJx6n0eh+OybD1C+0uAXjkL7RCj02Qi0scVZVynuDzt3I/6yzTw7Pu/SZ4aabPh8+fO3H4/dcNft78MCRsGvn8TaVzA5f21iq0aPRVGtPZVsoTg8niUw5aj/zglXSZky2sGFJP70aDimQhdRBYxaBSwZaFWYmV/anFHAa3KoqoryCB6zmuNQ5bPIzfKrA2Nsj9USPGlqndmy/g1PasQ2uHQ0TcLXkbW2Ba6fbLp+mcm+HGJ8tpUX7wJqmde6FRXI3Ia0gKfHai5MWjV6B5Ee40oyURasXR/29D+2BvUXXZCLltVaB4HHQ/ORpdshZ5ZHo0EHgLGjaHAoGpeYLZZunn05N1Fisv+ZsrKk95Y9Ep2ONlRGqgGZTDo0lI06U6tLyYa2Bch5Vn33Tbl6Oxpx04vHhOc99VnjJi18gBXmGFK42MWnEO6ejNYTTnp7w0EOPhk9d9ynRmQsveOGVRmNBtzLZFLH2M83Nb7Up4Wtec3W49957dOXhF6W0j9jxHPTYBv3hLOthrbXOz7NOG3cnIwCkhaGy8RPXUfCkzPXa0yBsLQFqWdpRmqIX3W3dNSopE8A2mam0kYdCllfMa8LEykByk8y400l01+uzl1IoNX5rlU8aoV68rQUfsfasRUrlNIbJ/2qV1WrRbdR2VFX9qKc2SsXerr5dQFnVJowiEM7a2B7huwhMyGHgc6xrwV9sLCNqrKdyFzC7gJkCPqz10uN2bZNCfEp4zWteHc47/zwpvbgeum07R2wAfT7cd+8D4R1v/+fw7ne/O+zcuV23MR0fLr7kSfGCfinrbTt2aS32cNixc2t4xjOfGr7iqpeK9mK45ebbpNw5F8vZVo1MpVA5K1uflrTKaAUMf1UJp9IfECRimiF6+slaFhoFqJKJkQhYhcWa/PTsp9hb8d3iCEwYARPbrEMEO7i16saE+Vur5E25DpDpVVOAa5XRLB3LbtVupaynZxZMbXEmD9gVqBQujzMt9qkYsabDuAgZYPLlGkasXJw/r6M1KFA2L+3efZzOrD4lXHnlFVpXPc7uDWaTEWdeuUGJuF/+8u3hXe98T/jkJ6/TVYdbw65du8K//dZvDM969lM1IobWnOJJIW9ZCGeddXp4pe4Ufvjhx8J99zwQHn5kjzZMbRU9pobit1u5PIIpCBS8jYxZv1XpLaOAWRumsInA5w0GMMTlhxG7rR/vrR4ZL5VJR5HSO0+77ahyINUkgIlu5eUPR2B6EZDQIv9d5hjrHQ48ap2Byp2yQDtH2fOefl1yUDmkto1Xax/NUnlO8WN++/ZzftF4lUBTyL0K2uaQO8LEqjFKXWDVh+M1TAGTNov5hzW9y8IH07KHddcvVxmedMLx4RWveHm45pqvDJdccqHCxs1NjGRRvgd1zeHnP3dT+Id/eEt473vfHx5/fI9N5z6i+4SPO25XOE1XHh5//O6oyMQ2cZRiOPHEkzSy3RUeeeTxcPPNX7KL++ekTNmZHDYsaAMVVx3q4n/tMmZ6eLPsnCvFzsYoCC6wrRgQIhwrLu4S/vm8fU64VE4xfh6qbG+zmUS9O1zySWHTe3fItXNp5y+T1ZrwJX7TlH1rw4cykK/J9uI60SBMnu8m93LBZzxCSJGtzCqCOd1sgaCdYGcAKFQGqeVfp4G3uls7RKdPno92mBi/N5089Pjtxpex2p2/0VJryLHSMvmQd5yaTqlEFKK8iZdO+FKg0Z+ia5s2lUA7rQY7ZT4SIw0YWC7KGWxKLlHqitXlUIIo7o2g3U/LAXIpBYxuKTG9JYx6CHoznTXyefyxW3+JpKRYz/3FVoH1A0b+BImNfSV8wiQ2DLy3f1Fg6n5aAN0gZVQNzZi61W0PigfVJDiss+ou34UNGlnq9iUpTjYsXXrZs8NrX/saO7e6YyeX7kvpagqXb6wyxLz11jvDm9/ytvCmN70lPKhL95ke3radG5qWwuN79mgqeEs499wL5Hac0tLXbXSDjSKqsObCCSecqDuE94Wbbrw5HDggBcq9ElKqcxt0n/D8JjsPyxrsAZ2d5ZjPvNI7sH+/rcWaUuUSijEZ+vEmQFLeVPokTPnT3OXfKrcqbTob/PJyaNkjxFZ29g1brdGygQAFZBsJFI1yjRdMQ7AqVYCmfIg/oBki6IAUY7CIAfaYd8up8UcuxTv861dPH1lENMnfID9osLEiGdIRsCIA5aoRkJW3tjFu9Bqfhp7KQhxVbqzFc2Wn3qFPOCsreUMo/cxCGjio/EnvqOQLOddPOdc/zaYQP/vFrz9V5d+SAYK0COslvuYxqQYEsUZUfBl+vJOC3vWwZBJu0KjLHW6WI8kThKyTjHwSmfiVSTR4QiN/b6UDDRnoldKpSA3/ABN4qX7k1/JsGNKJjunm/G5QOxT0i7zgz4/yTL8qjrknf+gq561fqsN19wofqHExTUXKZFVumEQD+3jwUPvbkkeoYgSEBCDWGjYR8YP/mPfIWMyblZfi2zdKkQ1iCzc2ixqvGgnZZiy1qTF3UX6R4fhjto+2Msq3yXb2brwoRPupNKycKvp6aeqIwMs0mJZi3bEjKlYDxjLVzB5gdRgJD22WgZ/jITujurbgRoAQUtZNMSi0+BPQCkihqYnXuuYGKa94zGZe4VlX3b17u9ZCX6KjNS8Op512stZIj4R5jRKJv2//wfDAAw+H977vfeEd7/in8MUv3moXPPCRc5Tpzp3Hyf9BXSpxSNPCu7Wj+CQ7SsMn5TbpE3SLujdxo87q2N2yEpD77n8wPPHEXuWLM7Ty18j1oBQqI9QFTSMjgihrPriOUkU4rD2xXK3On7qCJRUUIpglQ/nROJhirZVFu9gIT0XQk8rEI6MBLd7bFTrSj+8ppf5Pkl8N0+YjVjTywn/Le5WXxL81RFXGzX8YhmqYxHTJlRqEKNQR6w6aYAUzeqQf7+knt4g1YcBYD8LJ2NPs/KGW8a9qfEyZInfRzZpAq0fQbpvUoWhhBCkaPKNUJURwWS0mT5zTDz95wGNSjCzR1HettrEgQqcBtuRvDaARj24pJGlbkso09vw9heFpnCeAco8e9hSnxYPiQyJ1OKOd9/bPOMjeE2+xg0piZCqWlylfCxDd5FFxk57QJc3Sr+zXAkGUUjyTE5HkHYMsGxvVuzmu6A8DG3hv86sXUYqyhlJN9g3cUU3YDkPbgUN0h0zkkfxynj626dBst++pnedJeOLL38IQzhzMDff2j3DttsjCWfw8DmFk6mxG14n8TYp1QmusCcyIijWGsiLMrIGypoqyelzTuDt3naZzpy8OV131snDyKSeqxxLs4og4FRvPtt5yy83hA+//ULj5lls0bcuZ1Y1ShvrouXb10pt64vG94VOfukFTwSdoSvj08JSnXBy26GwrU7ksj9IJuPjiJ+u87MFwxx13mRK+994HpYC1iWkj1yketHR36HN1e/ftUTkeDZukjBGkNI1tAcZUlOCRpjLzBiqRxz99nN1EUcJJHoYzdHIwVSVBqPXfyiIjZQ05lSAG7vM3hUrPPsHdewUIUCIo2rqJJdXyiy1gPZC/D4QAdQKEq6c99J6c8cNeKSRszcYCNnuvqQ+Ksxc/yY9nso+bwdTurJCu2OrmrNtlhdTHFm2NFSvCmv/Ih5SEFBwj1fkFrhBcsunYI4t7ZT+iD5efH15x9cvDmWedptuVNAWsES9KBKVJL/2OO28Pb33rW8PHPv6JsG/f/rB71wlSrChMRpPzUs57NKW8Lex5Yn/4+Mc+GS644Lxw0knHhzPPPDMcOXRINLcpnWXtEt4SnvrUC6XEXxjuueeecPttt2pEyuh5W1jQ914Z8bKh6YhGuPTo53VJRTRMmZAL9a4sb5XzCh6IB+hgkqjYWm90Kvxdaaqirk5MHDNUgk6PRSb21Okpyl3B7KB85VdgoODEVE/KRcHbnUZEAGHT7vUaxKZHrfdPHaJkU/mOmNwxFz3VwvoTwME+B4Q6g3uHYx5gCu0pD1V+4JC2oCMLHS9jzAN0aS8HoQ9/mPSMb8h1CW4T/RhkKv4m7bCGzORARYAjKHFqk+sHuUh/SVcRnn3OaeESKbtn6ljMySefIDy1znmAc6vauCRl+eBDD4VPfuIT4V/+5drwwP0P2LQva7aMeDdt2q4NR4d1HeIRO3ZzVGdib7/9nvC+933Izr+yIenkk0/UWpqUpa5PRGHukAJ97nOfEf71U59S2C9rt7DOzh49JAWrqWnVIaaAN+nLN4wi49d3FuWu/JAlWrYRSzchw7THQrW+yvdnGUV2GqVPWpZu9IkNa10MO2N1vqFQ+VW0W8JOPnBThnmaN26dsctvCsRaoJtVRCCOTFOx1ROyPQeSjSgzfAHJCrAezN+bELA6BWapckXBb80EVPFilazWI80tw1n1JsZqSmRS7uKqxSYcph9WeZgff1qBVoHRYeg3oVjgj55mU/BVyEU/krZ5qV+gDn+YT/mqGnervLVM2eit5hbpsEECDOLcexRQNQA6M8qFEIyUtIqpnbzbwjd902vDV331q8MZZ5yq0SwjWqiqzyIQH330sfDmN781/MOb/lEbl+6QstUNSwtcqC9FqUv32XvCBqUFrZPGb3PGSvDAA/cr7kO6YWlXOPe8c+zIjh3nsVHwYR3R2aG0j9M67qFw5513axr4sNnZaIUy5dJ+1l9NPMQ8PAEI61Hmhr36l3BrryMklx5PkSOdOR3rYWQecdRfjRrTjzVXNlCZn6XOnyr1CKj5GR+GtYjWyiLiHOPgZ/0DlSfBGKBStDFOO4xcKhPd0roHlRKXaNigMJhy7e4wRApNeOFufCmFUpjIFaNtk5LEUDFsy7OHxSATzpYb0UzdEONbiaVcR54qBCxSmWhVNJaHyH/MTzsvCfT0FB3LS0XU0oxuFA7yUBGz2RvekY24LCF/cRh/GT8iZZxWJBXADA+tfMgoDnIXM0UyHQb3ll/uU/FGcAtDysqw/UjRaJtn9E/0KxrESUFwakynCj/0A8VRM83ylwJabvQCltFuswF0HsFeM2K8033paM+qupiopMznuDWmTUWEVT1S+CRn6dmmG22GXRKuyjPFTWEt9/aHdqSSigqSGJZ6Q5r88NBP9m4Ty9S8+EME8q9nnqbxWtHP88oNeOZc8Rt5EQmSq9JrZ6VysGSi3eRJAfKnvGPa7eA4TcT0XWOtMCkwJ+7138CqdrPZZQ6FTKXMQ8SUgmTRdqDqAgamGJdVk/n8mf6GzVIkh+3s6FF9R/VAOOOis8Pzn3+lpoIvtBGo3fercHOaLt6vdc4Pfeharat+IFx//Q1SnlvDdu0CFin91LfUGuvC/BYbabLjbt9epoNxm9fGpAfDhz74Ua23nhhOPfVU7TJ+npQYDVAIW7dtDdvUjL7wRVfa9PQ9Otv6yes+Ex57bK++88odwvEe4kUurNBoeJt2CLNDkw+xWyWjx5AZ8ljf/JF5N1gNXNuVSicMY6PTaG39TdimpwrE8kB+icbtVQgoa7UbZLeXKnasACgME39zjWu5qnS0FzIpJwg7HROUfKrzdu5YHrhZWAusPymSua79H9t0o1xZ1YWdqoYO+qWRxHFqIHi2ZwbUGFn5xkwis2Da6vykyD2eCa92EBqILA0rOTCNDR82/BOulK1lyfiicec/oQhIrrHH8KamYLXyJkgvY7kSXfswNwHlkHCARsveg4jJIlHFpEmWaGDv3FhFA4x7pJnTtd2mPeiv2Av+a0BYfhOwfQkLTRSo5ScqEJaZaNMsr2Cf6oLSoY2bo+6riCIOZJaK1eYi4VPfQxFlrJshC4/I6V8Ls1q5JJpk1VKqnhbH+DcHEdHTKNFVJGwyqevIe0Qo+bSfMXQrLfiRJ2WaDJgkohEfhZYbEIBbsDsAYj6sc2hJ8SdiS9rxdEKW14odSPPrMHJg43zOMvyAUxvxGAO+jb8OAuN5ydv64lRwAqOeHBWEf8YujBsQhKrntB4zviM0jPYWdIwGBWgjSdFhOpXzqCjoxcWDOju60T5efsGTLtAa53YpCdKKgDJt+/nP3xTe9a5/1oakT0sJi+aW2Dht1GgS5antTXZMZlkjVo7OLCxstfOonIndsGGz7hHep+nez4Szzzpb08Ena8r5jOoYjS6a0BEelNKTnny+rkO8PNx11z2afj4oXtllvE1TxvqU3REauHiWdY5P11shwiBc1kzBqRbCXmOBx3xaE1nRalWiQqSEuiWhP4xWOCZixzpUVsRFMSRBQtjaQkksKntFxXrhhM0SUhDKmONPUUDjX2oINBePkIbC60/yjznIaEzAipwhqykz1rAbjyMwAxZklp+BRCuRg7VS2rFOtWQnFQc1zbKAAyBjhLI1TtjVIaUdlEPseBE4Hp2K4VU2EIDfCZokg2SGnKjFtGcLyzXgzdqzJOcDpQduCmh1MNYJ492UKR64UdfYaImCVbakLNgfgp/t4lfHy47R0AEjbQhUD2hbfbGyFC3zlH8PYzWsUt55MMMxOSgp8ppoWz1Q+rEM6DQrLYUxvsSDdURNPirmEpOJXu1pdMk+HFfYRCyirEIqlmvs0EOONOOcD2EAQIH0i/M/4Gg5s5SIa2koou3xMOwiEwkjk/UCDmmzZwwd/1IOdG5yAwurZRKP0K8l206ynj6RYmMVwxgAhmQ7Tj9bypRNVymwXcJshaH1SxSrGipIcgfwM57xdLu8gYI7fFgfOZdCoxDu1ZWFN1z/2fCFz98cHnl4j5QmZ1ol3Jo+5dIHplFR2of1YfTlJYjz2Rtd4q/vrc7PbQ67jztZG5VO1Aalh8N1131adG7RmVR9Vk5pPPb4E1b4B6VId+/erRHz5eG8885UGmyWOqjdyDr/apnYYEd04E0pWMcgCUUUjc6//XDp8Dfhi4LJzt90rMYaB/nlT71YVEtbDawVh/4YVzyjg+EcKwPBRUN047lI8hN/tiGGTTFqLGydjkZEfppMV7lwXzLhkp/6YxaW3jkNDBVE4Ymjf4OayHfkM7cPGn/wcHVpHjxmCkmujMf0lAOVZ/DcJkrdz1im7Q5ROifIk/JPP2LSpvB5Qxqe2DgxW8KGPtyUT2vcoxtlHX/EnJxpNeCVvFo7sobsdOKbcI4KJ5e7aO+WFSFLUy98qWOxTrTrAh15/eiYIg30fCQZhjydCFmi3FBHGIm16/QwdcVIpzqtFIwWWrKbXfkSIIaJjCQ70sovSS52jHGrp+ghQ+lnfu0/6IAok/EZO/CKUzIVX5ZHSyZimNoW2mTalmDtDxhGuw09e7QlkQfS7/y185Dy0umfwlu4ircS26O4kUYyxRErngnyFBCA2LmLT/JDYKJpE0zhS0+Cc0wmKknFkYNNj7ED1fz4BuucjVYvueTisHXLVgPwsG5VmpNSZL3zy1++LXz849fpTuCHRGtOG452KAykaPSloBlRSolSEaDN7mA8DojGFp1b5WwqU8d7tcv3S1+8Q1PKH9Fa67nhoosvsDuCOa7DGi3Pc889J1xx5WXaeXyf7hK+yy6I0EZi0dgs/40KfxBRU0r6a5Uo4VHlvnptI1ZCJboRJk0VRpqKXBVUXmB1CqlhwN3iganO19J5aVVi8cZMAb03WfVjmkr0rRFIZUfFr/woKPlzVSP02UBltMBZ6RCVTWJ0ZjApf7EXq3f8BzEKl+Km4L3ymsL0e9qIQZmJ0+IR1wrKflEb/UHJeCNzqVzkxuug2W0i3sGbvSBROkqmcqLtjOVEB65KS8qTsgQ78mi76lXmJonIof7ha+U0MndNXA/m3sJN+UKWwDCOsAeLP45QsZ1CmcBNMpSaEKwVXiyLPFwV3iAFU5YaFEllw74LOuQoGD7ywfeRl3WZDXm0zqvSo54xqkWZMUPH+XlGkqaH4SAWUpVI7wflanFFn/rIO8bagPSsMKadtXqg9ygjJkjGs33RRzzbpSJ60ikzbAyLlPcaMCRUyVIbMyRQmEgwbRrUYIn5M8z1Dh/wSlSb9rWOemxXoEgnC7ygaR2XDjc6P1FuLI9V3qweErnDiEDBNIUthy4QGNCpno4pViugHE/LZD3pCCCuwoG/Bkhli5AzzE8GpKy89Mec4xOg7YIHCWH8TqruBtYVhsgXQniivl5zxeWXhosuvCgKMVcLYkT71ltv1w7gj4SPfpSjNYc0vbtViniL4nNPsASItVs9afDn1LNUkUjR6pYavfO5tziNq++zbtmsqwm3hwcefCR84APX2v3DZ599Zjhu904lNCe6W0wYuGWJaxTvv/+R8PBD7wqPPrJXjZ1uXpJypnE4YlpqUYVPZQJKKm/bkG0EL+a/7W54t19bNlsXBVcqnoHX8uqwmB/YGq6WgnhAAVqV14YqRu/Kr6asOSKUG+sEqGkAGwhABsN7q1z1XlE1m9gRnViZlZCtJ7F5ih8GobKfhcYO7USZELzl79jV6ICX5cGCxD/yykNmPh3WTnptL3CgbODH7lQWfSo92NSFP8VK7tYYJMf8WTFEA9pmLuaBOBE3RaiyLachTWz0Eu0WPbAgH5VHJKsylWLlDmvrPOnYGWv+GzcxsyAZIGXFi+21YhjLEJI7jNkzhonY45BMSim9Nz/7ZtGSrORCdsJb2cQeQeSjSJ7AkXoq475pZXRS567lJFrWoDMKq5kyXVzhuwrMUz/eqRPW2bR2hg4Ct7/pRIFm23bMb1MZaLasqnMoE7IxL9mz6WLJOuLD7EKSRVJCGZcMftFUjIgBZAFFZJ3cljxHZU/byQ+MaWPpDJMu7cBRKfMlXWgj5jX7JrcqTW6ugynkKGYypamnMVClzYushEPG0sylrQ+LZlSIsc4Zj+KNtKl3h3Vj3SL3BSietZvWO1Se5RfTpF7yk5OlmejACwMCpasBnaWt9KHPr9vIreac5Kc77Oq7xBErPFXMIjwsxC+To5qJvay2O0I8px28G6zxxj32zGIjLTpyhy6bg2jsAY4pw03aSEThIpBcFbhRvT02MW2XInvZS54fnv6Ui8IpJ+6SMHBtoBSdwi9KgD/7mc+Fj3z4Y+GhBx8LW7busHXUQ3Jf0AjSlGol+Bs3wgf8SLjUk6fnzy1JCCThl9UYbdARmsUjB8IjOuf60Y99IlzwpHM19XuZppA527pZl0Uc0jGdzVprPVvHfS7SlPGN4fp/vVH8LupyCAmLPZWCKgsKG9msN8yGlP2pAxnfU8Fb4ywnq4zCHXdTkgLMlEQtukRZws2dyouakl5QhWbnM2tuVDxaUgmq3ClCsEPiULBUPHSZ3ozfoybcbeKkbFO8cqJDclRlw+5kDDhubMnEsh09WhKW5JsyJg+sb7Ou3ZalXNJpVQgXSwbdq/8y8a9Z+VPVt9Z7Zkkh7ZmTzsJgTemDXf5uaVd5Jgz/kHdwx+Tll+Kah/5EzGI4i2v1RRSUkcQKqcUkE6cpdq8nNPkRR1hbpyR2BLgRjPK1O6nlyzG0I9QplTPFjP+iGnKWPTbOqyFXYTAd3+rwKKzt/laZKErk1fKvtEzRkC7cRxyYpgOP/kbpM5LIA0ISh4S5rBEns7TcOyPlBKJsRL7gqU29860zTjsc4dXw4q0/liPl1UaY5JVRGUH0iKOkhDkR2ob9/qxNW+6oR1bOUfnQuG/W+fV9+oQlMM5LkW7T8hAXyyzP6WieRmMHDj8h/FUX1NFBrA6ojmorguoO2GrCU3UEOYMW9iSHbQ4UGCYx8G3W6BZ5ASdGwsiesgUt/azcKpk03SUG7fYk2kC1v1u2SKYWqVxqs9R2WSdR/FmnIw2fzVd/LF110awI7A+O4gV8qfCVG1O2SvuoOnbUD8JEFtR+qf3QWFV53Bi26b51ZJMjjXZrnRpNRVMeJKvajDpnU78xcWvHFC8q8S2mlJFv2vKtGvBEPWKgyK162kN/EqtGSu9iiZJcG9OROBPb0ZB88iLTANFySGGqgqtezR+n2LSk2PKlglojLk8FQAho1OlF8du6VQCp9A8e2msbibZtlaJVYZ53zlnhZS99cbj4wgslLGq8tdt2swrlkKZx77rznvBhjVZvuvEWKyD241IwtmnAGI1CkxrHKLAUIDmjl0/DI06VuUVJvIpe7wv6oPqy1lqvtw1MFz75Au0UPinlVhk7Kl43ab33KZo2vl1nZR/WqHWfGrij4luX/2tqmXVX6FujBHCZIeWSSTxaZaiiENbWnBFag40KJLv+xyrZSYnyoWJSqdJULXmGHIpiSdPmm1S5mbJGuA4elFCrklvvDwzUiywJHQKNAS+jJ5obObsLYdktjng01hSUHrBhLT8St4pqXPBKZatMJJDeWiFaDskSyaS3MT8NccPVOAN046tKxvKIE/njpW2QcWQpYkZEfpj0JHxnHPMe4E/ECdyNIYuxINlEgTKbQ6OCoYNKmEOUo8qJ3xZd26maYLM/dC75MhRhUCj8pI5jO6gyi5wmPhPfCkIdsdfkJ7eeJovbES7iG50iTShS5zpw7ojTfrG6SgQzeRrET+7piX/6yTMPboGJQ/71U/5is08w/tEe4J7zC138UFTyS7KOi95ZBuMcPZshF4/sV1x1gqSoNgr/reqIL+syGy1CKTmVFR1M6g8dJbFhmx3VBm6ymaSojLrzQ/qVoTySATurW9FNb5WpZDm95lEkF3zcPnXEkGUUElU7jmY1olRbuFntF/TYmGk4GS1hAK12QubKHxupWucd6JAvXOFD/yq7tVVKh02ghKFjT/tBG8EpkMPqHBp5/eGLYYvaBwN/dCDjjJ0I0b6IssYK8lOHnoGSwjBAoipYp9fSI31MbPd45ibW4Y6A0ZsMdgaN7oWgOb1e9pj/doiWYm07JVt34oBTN1Ynk7P8sRJuDgVhkPMOiLEXw0iPXotc1HAAvvylbE/QdYXPec6zwjOf8Uy7FH9ZZ1o3S2hZG3zwwfvChz/8kfCFL9wY9uiy/C2btfaqmsKIDbobJNScVyW9TqPCJKDSQnhQxNz3O6fdw7Q/9DDZ7HHX3fdoQ9Rnwg2f/mx44QuuMKHjxiM+sk7jdf7554fnPfc5Uuq3huv3fEHT0PtEl7REn8KWqTfE5ih/8h5RiS4WFj67WW0H6GMDX6LbaEbYcS8yblzBSGXBcKUjR4Jwp0Kwg9dmGDR6IU/YraJY6PgnCQd5sdGtwqC8wQyhpuxQ4jEc36ylwdFaM/TxU8NuAlDRTOJurxVe7eTkaxhE/FrutdeW+6xbWvmOFrDhU4g0jmoTzXBmmvUsviWMWFNH2LC3oF6/ClT/mSGSB1iDLb8W3Uij/9+hI/QnuaohlEmTLTJbM8LEOg0CIfkaJFUWU1cjj2X1WPQsfIqk+JRFNOAsxaz24QhKga9kqV3RHLC1Lzt37LTR2mHNYlE21FG+/7yMRqbtQbvJ0Pm1tqmVRqTe6y+8WZYsTmpVIj+xMslDvNuMBjwye6RvTNO3WNZ+FOQjtlfgAh+0jZhSmZNI5Z4eSpyZL9oO4h4l3wpjbarxRBeRTh0X9MybQmX2hPaJmUkGA/EToIolmih5Ovu0UUeXN6q9ZXYNklAhr3FKmaW5eJ87l/lwQRAyrnCWpsXQH/JSMZqc9FpziT4kXjeiVZV63WdF70XFSkYZyncyXiXckRllR2HVnsvEXMAzr9bIykZwg1sNOxfa488n2HS3kuJq+ne7dvWqgbjwwgvCZZdfru+s7hZ4KgRpbG5HOnjwSLjlli+Ft7z5bfqs2xfViKgHtGmrBF201JDPSXgZIbdNZDCOVOWlNDCM0Fh1nde0c5SHuXBoUZzZ1OWCPjl3c/ind73HRstMOcDrDilgKhTXHl7ylEvC5Vr7vfXLd2rU+rjcdtoaLwrMdrapd0p5dxiAqBmcYm+20xOu4wijFqHwmpQlAgyeTBszlc7U1II6AwvChKnc/ZqyOnQoTodv3sQsQVXclBl0855xlg4CtkGFCm2bViRjom/fpEUukpHznC7rjvJCZYhlbTXZ3lLA0pMcQ6uGg/JEAxJLsRRvFt3IbfoBieqf5BbsNzG7sxAxolGiwwPeXN9J+e7YvlP+mo48sFdyxVSjOoPqDNHQ0AgKysFNgzx0E2grqm6/tXKp8DJo2tgJHfsnpMQInukXEbbgcqNNwqUOj1ECNCwWONYDXpidouPKLBAjsiNLTLvHkeEhLSGxi55lJNb2URob1enk0hp2zS9KSXSZeuJdATodUr2IeahYVN2MCtc4l6PS1owaG6W4zIYpaQzKiGUB65ypAUSG2h3lOiOkUNGzxLALTxqE9NO7dTDw11QusxIdVBTuiDoU+9Xh5rIdeGTz6MZNCheHumFJbQwnQeBtfo5BVqRAP9FmI+eYbVMHUzOWhw8y0q3krgrXPp8uH5NdY1YxoqETQT7rhugpreRX4z45r/hZVKyWGxit8cRrFwNivMU7UegxifP/n7v3/q7ruvI8LwGCyGDOCWAmJZLKkpUtWc6uqp7qWTP/YPeaWWuqpsvVtmVbOWeKCsw5R4AgAAIgCHI+n+95FwRBSqJdqv5hLvnw7rvhhH12PvvsU0DEd0MzUgB7XuY/HVREK1qe6QJ7uuexEfl20gnuRNB2REgU92MzO9Ocqb79Zk+igbVWOzqce0VAYqFm27l6Xipa1B1DW5AA5u3Vm5O41BgwLdtxls7YHoX0JALfOdorgyPMox6q9u8/XC1dsiSBTCoHI2wP19w0h4QSc6udOx+s3nrr3er4iZMwtqshHvtuJLIMT7fFzONeAyvAZrS0vHbPizNLZAyoy+WzpQ8QN5qwAl5El8AnZqnV6eqmQIi6BRjPIciLBtJmGszYNrt7xYwBtq35eAdFRAVABj8Lxh1Fh3oQoxHkWrASRNE4C6hth8z97j7XHZv+XTMaXphxzET6Gbf/f/9Twm9BOJrURBfjtWuD6bOKjfSjO9882gbNzWnFq8D4SE8GqehJydInaC0MhDfvhvC9QChO3t+T93r7f/m10Htdq3hVf+iDp+Bu4UJ398t++s/HZh7iXl5vgEIYQkTB9XES10wAZ63QGBTA+CY8zA9/ELZ4j1g1EKvQ9vkBzWcrIJrgP/6EZvx4riJd6O1+4C5/cSxL+2yVfbACea7tLpakApDiM/5epw7f4b7pWTVGZsETMm2AAWNDVBTSIP7e8T3VLCpu3CrwKI/JXsJirA/C9yn7I+/x8FwDvYvEO/IG+c71iRHuNGg/7+OmZiVIYgFsn0I2XjIS/NAuebR52oeHR9IHjYNGayjHPvvVgMntG+U6t77rmMmjUsK097/rvfu93tCFbeK0g4bGV37HRe7biSlgl+ejKHjK4EaopqQyoDLjwiR5CQh4Pht/e/ZkRSC6jGZycrzq7dvEjjObSIy/DKDyrhoQg28o+769+xOwNIbGMgdLtQkkvU7ARouauXOkILN1O6dwuxOlkQqWEg3HraTScl6xaFoidSsu5THGeMLoAtp3kaCod975oFq5Ynn16GMPRoBoAWg5K3w3YFVv2rSuOnL4CO7jCxk8Lde4TW9XHsCEYDLqBU65nWoaMJkJ28Zj9ZfWqF261xEkoG9NMI9YKGCvxHyT/MruE2vdIqR5jQWKcB9lhx6FYZCd302zcF25FpJydB2Vyoqm6/M1A7iZRjAHDmHoxvJnM2tXtejFhdnCWE8ENek29rrCuNQrMdlaO9Iggsa5v2OxpnxOpx0qCJY3/ZgOyvp6gdF3AKl+aMa35RaiKjXQqsDHx2ynvPB/7WGFwMm6607Tf3nvOPivu1eB6jF/fk+1Zu0qloGtAieZzsBqMgZhlEC7Xbt2Z42342YmMMdKGi546Nu3OxaGXNfFZe+UMQIW057zrfs+CmApqFFgXf69CuBe2jVjlOtXZ75SUMRWFvz1tVK8cMvl8seq+dwCBzPdgRoIemZ8YSc5HG/Zuj9zCaAHH3hRvPdcoVnX4Lf0LbxNMHNtFMHAqgKflSe5jltlpxVLLEIO2N9g3GahwOv+HYM/lQ1BSn1ash6+rwDRapx5pHqKS/t8lk9alE7bXt+AhqVd28uYy3u18srSK7x6nOvFGifFq8+rDFQo05lP5XdWSuC9KwifAhvlck84TNVuXR7yDJ7HGRIXNoUW/s67DXwVsqWt5Z5CNR/emUQhGRu7Rn9H0kbrUCF07pcwgFInZQoPx25ysp1y8ch09dCuEoClByfjR33SjM3xsJ/aNMEp+5brjqd3Gw952jgy3vUPvvPc3Y9Ne+JvPy2Zbil0iqA4dyBSWYF3Sp12OqMWW1R/CiP1t2V41GX57SX97AoB/enjCNE2Apcee2xntX59b4TqBIhg0I3fA1euYEEeqr7+eg9zq9cAuG4utCsYyhjBOa55zUin4LrhVsKnoCJIwEAhRDsIQnKuY2R4DJep6Q0NDvEp5wC0WpvJsDTBDjhfVA/t2I4A3VB1zyXFYUcnsLDNE+yKM491rY9ma7krg0PV2GhxgxYXq89YbzlkXtFqRQbaI3y9NnVMO526li6UGyKXx9S4TD0kTBvEz/d15hyMsG5F+E8Y8AViCusW4Ktw1a0+hqbtOyJz0ZIB4U0tcZlG0ZrLgIOkdEIinI1bWWKVEdh3+YHl2iLLUMFpNUoPOE7ASFSCJmA8TZkQLHM5ehQk4GjNlsW4O2duO8SBEOa0ftWnM0GT36Xy+pF86xkJsU+7GhjPLID7joFH4ysjUV+Lu7txc0pRzNO3/1hk3QS/y6dUZJnxDvidGsT/ezTC+3UDOK8PekF7UkoKTl0waLORaZnObqi/y5cvqV566fnq17/5ebVo4ULGmnSdI6Pg42m+h6tLly+Fbm6B8/Jr579BQqoRl0p7hE+alo7WtVK31eeR8lzdtu//vrMzvil9ezXMt36ZClPqVB128971zLxa4NWop3HTryjxU1qQ/eCq9fBCsSYbv8U5+EYZF/uet9NGoRIh2miLuKSSKQ1Yb/2x9VpUc4gIHodXuIpBHJ5g7tBnpQXdxNKKgs2+d+Ih8vd1BGtbGxYuZViNMQrOF9qAopDXQCrfti4DkeZbDz/5Y6Ry3a48Yo+gQ+fh7Id1NTPeTl0ZlGkbr4MHN3VZwwPgcOCRhkURXInG5Tkt2PSP8vRmCR/7I3y5wcEf28Bhn4PnPFeCRmV4TjuoyJe5ZpViYztKJLseFIReDKwKvt5EZK9KSVH6Z8OjbLc8S57jFIbxK9dGr8FbUVom8cSwcsPret2icNOu9Js6mbEtegEwKAf3SqN5Rl7m1fpe45F8Tb9W+Nn0uz/GeXyXNqcGnlUKxwauTdXRgO3U7/ok72ZoGV4GuvwujGUKiVN8sYIE4mw0vAki60xduLmUD4sAAEAASURBVHbtyuqRRx8i29LKILluiVJXU3Xo4BFyAX9N0vzBWKkdnT0IEDMtTSIsXD8mMhFAA/OeOmw4A2nduiSUT64vM8BjEu1ysnHdeUmP4jaDMEB2J/qPHT9VfcWynh24fbc+sB7h4dypAhSBzxzBY489Uh07erI6fPgYSfrPB9lrrbgexKLR0YxQBe0BGUReDxlPnis/c23qTwPI5b2pq/c88dFJkRhlQOHYTaIMGWkTLicJ1jXCwmASFzj4i7UzP/NDpS8wA7Iiy4BpUWBoJRKu72QNGmUGhmj/49dHQywyaLVihegYyD84NuzbGZNWNHrZ201dzDAhrVjrwhFNOWqg1kDfG/0XngGPl3/gCFju8bDXbeP9HAUvbz95x+8G3HN3+vntx8vQAm9rs85Sr99cKA2JkK8F7He3a2YFM343ynIpmkrnHMZRWvEw+nTpsoXV8uWLst7bumvlbuGiuYzv7LjNRG3dj3p/VGZ+8GjUWTr5g083HpjR7u94zdoVXtOfFvb3wvHQSAB6uzB/lmUjgplSwAPpTbaK05AHraEIVt+XUWe6ibFSYZIWDZzJvHOjbIVUEf98p6wyhEkBSWlRDqzKsmVrnOsCvg4diL5dXR3ZMcto36Grw6nfuVXpx/rHXR4ibSJgNI8nSdPagsKpUBUv/I77vhAF73//Yf3CMEKcH1PKC+/rkXNdfngOfM8xNy1sSwvCvXsOxnVX6NC4ljkEg2pAiBPOz19jnh4yzTRRxkNlK7xKPiBsqVio0xdPy/jwLRz5Ha4GHcvPnWq7EQ9kWXojfU+ikNP7qhNX8KLFiwhKnVstmt+VVSEdTPmpoDuFZds1BAT3sAoiu5bJ80eGmKNlKVPqZtczBb/8pghzvWacMkDmj1cPsDz7Yfv8KNCjIPjY1EEl9ziCW/e4/vdeumtSUFD+LUeep0MFVf2l4LBzjQEQWl5lQL0rwxXYV68OwiDmskb0AXavWQKiln1RDZqRMUgMn3++C8H6FecSyeys17sFgE2H5ZzhDQCdsPfUabl1671unbSDwrS4YiUjYJtbCHwCIbPcBEHaDANqh4Hpqhgeds/Vieqr3ayXXfdRtbZvBUK5g2cLIdAyGNvitPnjjz/H9XY57jgtQ9udQaW/Rgzaf7WwDDLX/C2BRPUQXiLx9GPGz+m3Zp5bpoSmMhAXcProfKcBYQhVgha0JEfJiXwdjW/58qXxCjzwwJaqZ24375APWaTjOwgId4m2njaCYhIvbbXNaok+n7lbMFm349mz50kJyS5BBHFdvjzIJgWD1DWUOifdC5exTnYXx55ycPrk2wK1zsrheN1/p0ubKGzGca8S7n5qxks/2k9rsgW3axRmBXZ3t8w+3O9hkAxgZEyZMycmwENrA5SCkTn+uBuBZVt7E/EArBOMt0It37lX4e24CeO/5bi7zfd++/77cdf7DXCpFM48ZNQyw+lHwcFyRaFWavZvwdNyRbzyPadGVP4ULvIM2bC8yaPBbDkT1x2LRLjzuwwLT1mZ5eZfuZ57tElYmohj8aKF1TPPPAUP2I7A6GC/5wHqYkMOzq3D7HB62HZ/+S2ljFWD168xRcOYIeDiptXDo4XWsNZ46T4PW1UEbESeSgN8ySbrBbKT8kyn1gwI3bp1A1639VXfurW0rS0ejcIDWzm/xhTbgWoXvNUUsVGAgZvl01PK5QwckqenYL4VrkVppCLgIWyFlX2agMf4HF0DRghAeKiW6Tw2OnFrzvXr+6oHH9xWLV9G7Aq7luldc+29JSSBD0B2zORp5itwPnVoaJjPaHX82AmMmKMsdzzCVF1/ym42HaJ95j2tV/lLUiVaoICYdpSxnXZhmpEz7eqPfgoo7j4KyO6+fu8rjafpoGIjHywU1646kKK8nY9/HGTQdek9O7yGdatPPPl4tWTJ4lhTRvfqAnaO9Sw7y+xm4C9duowQxX2AAFRDcU2r785GsOpOvtFw3WSOdRpQ0yoGSwtVLVJhrvbvPqchagKg/KfAVnukQDQ4hDaAP3rsOAn+v6xefuU5tpFbBYPDKkbjlFjVhp3neuihHWwGcLgauDzCoNLXCN+idak8SLhakn4rxCVitVdB9J0MlkYX8uG5Hzjsn5alEcwSqn28zndxkzg/PQ6sdAHfqBYs7GZDgceqV9gwXnd25uB8n0Jsq+4jy8qaXPBS1LRPnvllruQ8h1vp6tUR0kleqE6fPludYZ7Z9cX7DxyqTp44VV25erUaQhNuaWXeCXi5HEpCUci2ylDMSkN74g4WVf6Gw/aUNk176Xvg9Z0wnvb633IqzoGEYQZTbRE43sjNBtwawuyutqYyaeE+a+W5RM9jrc5iPtwDMEbYSj8yMOMQuMI4j2X+yvEWz6QL6y8eA9nwfR4zhNo93xItAoV73r3rouMQ2g+cBFUBQBPMO0VNe6M8MgNA/hTO+Sr42IB0rtV/pspCABixq+fL/isQxW2HpVY0tNocS8u1PdZrFfKD8q3Kkl/oJwqUEpwoffT0dFVPPvkEtPRyNX9eZ2IapKd6mds4864LF8wnic0lxuQENMX8LO9FQaXwznbiOgZLMFoAMKO7dX9mfstLVAjM9GRL5UkBDf2q14wSvcadSWJVllbPPf9U9fjjD1cbN/XFaBkDR1y9oFu8H4XYXOgnT55ik5HT4YGYAamy4K3QpPS0rTRQPm4WqRgQKjDwQduh0m2A3QT8JlHTePgWLlhYbd6ykc+GatWq5RGsmVrr6mQtb1F8aoMgPDIlFdyYoi2umRhCPvMVyyCNtdm372CCWPv7rwbf41LGU6YyJmuVByYXAHw/AtcxDpD5qg+7E0u3vvCf831PwXpXY36gbhHT9hfk5gcXAB9ykuEAmcAJmDNCEyauVtXV1Q4iLkCj2hQBpZvA64Ztu59qC88ePXasOnzkCMAS2dU8ZyHkujMP6hKcSSxXXV+pV3fXDP4hgWg5CmC1IaWadfioATZNRPqq+ShInSvxEdegjZMnWDfJ/v370Ty/qRbgYtPKI14+GpXW6dKli9Pu1157jzlb2sKynSJ0KY6K/UiwsdwoOASNa0SNTAqvkWkmWCNUbWrj4Okcfk9nQ+KLEFZgS2wSmYKvRMzRHwRsCEkLh3lo9YZ161aTBGNxCEIil2FoUbusSg3WKOw2Ml+l/VFWrLW0QPcSFQLPquoBRsuImt6OBjqCInL+3MVq3/6D1UcffkKqyY+qiXOjaMjmUm5D88SFPM5cLoEcRriqTcdTQFnCgMpKB+/jr+N2+yg/hJfsL41r3PRazbxvP+/ZHQXceeu+fikgmNNJOWWMbX49XMLN8Z0+/qGL+yg7ZeZhCkwzKUscRQAYgBY3H+UUZlHGwjgEvS0KV9sgDmhJyOR9PnPpU62b1nvL94V8l9YHX7lU6vaEo9wq59P/5t3phUy/6Xk6MHVRuiqWTmNcZM78c5lFjql6gAIIFlhMvd1oKo8Ka9spHedLVpoyZPleF/Y3YbhkReL6vHk98YqNsMVkGwFewknGa1tu3VSZNoZAOqU9fOpxowhKsmyKRKBCvYmQt97QF3i7cNECPt1VO7t06WqVHovbmTdxE2/dtrHagmA5cOAw7zg2BA/SLi1Ap2gKP7CTpfOlz/bBK41rfJUz+y2Nm+BBwwThSfNUTo1noEskq2FHMLxuCs1mlKr1G9YSC/JIrNaubtaAwgPMCdDSwooL3tWz1YWQs0/jtKuFJUGe25FAErg4bqUFpXW2SziJZj4r/PxWWVZ5vo5l3t7eDZ8hgx25AJ5//plqw4a+WM9tbXPiPs9cKgUIqxgCTCkJd+HqMkH7p2u7KEMsbcKq3bCht1pMjoNnn/1JpgXfeP1tMvDtRcAeR6HUa6NC4DhZprEFeOOg0xanFKUpYDf9qKFMxeXy9NuNS1OAn/7i33g+O5XXhVOwnRKxbFN9+YfL9GFeTmNt3e3BuAUCWN4EggnU5jHW3w1fI+m97oEHIYBFAJSUfAocBm4OE/0GZBw7daK6RPDSNVwrXV3zYNC0Cdk7a1bJdqQ7F4wPAjCzQZ0OdKPFDWAK7BBdAKbrpBCf7qE8K5bxrsIpFoCBIkT3Xb16pbpwubn69LNPq4ce2YGQaAUxXb9GO7FaOzs7mRNeVT2wbTOu0CtY1xerud0LGGjbRPownjN9lwujtdbG+A5zEaggT5rDc/cDX70yed4WM38poRdGIoNwvOyjAUH0CgJWSxf61ptoX2Dk82ZA0VpHd6dtritT0TDBgEFOMnAQVAuIykwm4dwHj2c+xPJvuLEB94SVgtrH29C+e+Z2VvNRPlavXVat6VtaffjRJ9W33+6rBtmIvrNrPnNQBuBQK5857bjLgIUuNXHBNbA1f6V79rDxqc/9lmxoSD2PTrvTyKkX6Z0AonyDNgrxg3EQWRiYsKDNYZycOwTWkhO/87InP3xEMZr2mGXJIFTcXEsKMaXOaM73KNd2WLttsQ9+ZZmB2XrAWRlvbkVYwsjoTxMXFLIesyZJmEK0ZPMt5k/5qLyGbgQPbZB+ZK7Z0alJLw+0FxyXKXo/tdJmyvNZ/gFcDr6pvfHDC/z0t4eNrM/LlfLsjGuUrWfDSHMBLJYr6LSgCm8QH1EE7L/4yhOCw1/SYJQ9zuxHEXLW1YCRBfqfT074W4JnijvcsgJbimoPQ6Ve5hlvTRLweAs8ZsrH9aRN0KVxElp4CijjBVQuVfhtl/DC/itttx3Ul31WcYvqjm+WZvTr8q1cgcSgA06EDx/LmORbK23btk1JlXrkyIlqmN2ztBbdAvMG87Q9EWo862vpmN0SDrQjfeQn40MtXBMneHaC9qjwTrJCAVq/OcF928I9g4CKUjGMtbqo2rh+DVnsllXzejqKa5wyxSEoP0IMu5eyxjEgrgID+sG4CQFbYF6AzEsaK8EFcbK4WmmD1WGcNIGv10cJ3hy7AsxuVO3wwyVkrHuQHcl+9etfkeRnO8bHkgjv0AKlyK4zr2wmsQhlFX7X+FIpnkrdz0XhKLgqPCbpm6sSulGSeujD091PVstYOfLxR59lZzLd7Rcu9AMrII8RpxJj8qDiZneHM7yj+qcD1AZg7ST11WAvRlfBM254k/98Go9z4b6P6Qq9I0cZlML/QvBcsHwH+r4LtwRf4lXf89W8a6H8ByFuaO5gZTpHalIG0wc+sG0bwO/KYCdvcGPe6PTZs1irh6sRtm8zs4l8QAGtNSuTF5HshO0VqDKMOw8Hx/bUDMNzDgDso3mcc+HXuJP2xr2Shs+qLg/0MwfxJVrnAeYFeliIr7ZHQAKI4b6vy5ctTdDVoUNHEaznKKsh8Cg8i5ulUQ4FrAzZ5UFWkjELNpX7P/TX9jXwgLbyqyFYphZH2w/+SSAe5RnaQF0SbiqEbIRR6TcIi0CdhRYr8dqmBFTxbTt9RmRzWZR90lK8haBVMZrDO2rf8uq42LmpRbyMYJr5C7qreXzWru2t/tt/+78QsJ/BjCRkxopxMIrbPM2WnRB7GS7/S6P49rC9047y0xbZ+EYHSycyXjSZV/iDchEGkP4UhmMbdTel0MZzedVK7DP/CqxmVDqt/u89nXrNMbVkPzIh/nFq6TOPXAHG4kD5iL+Ole33Pd5nIDMutN0SDQIpLl/PucJHgWg9dRU5T2VcS+XCSoVWJKQyrzUO25VfGWvftP3etC31c7lQv3L3t4/NeMRLvl6K8m/9AN/Bd2u279bnuc9Te6PK0LLX6vbQqJTCH3E7j9UP5zmRp9Cc71iQOG7EPwiLJ+kq3zeqtatXIOjWMN20nACapWnWHjK47ceaHMYz1QycI7AozQotK0qwhTUqjmGgYGIsJmIVEaijMBbv6Jv3/Wd7xQFdwRs3rs8SwlO4Mq9dG2LKBssWhNddj2TJe+KnPKe8ly7wZ+oXQ01bqMMy4zqlzngpgI2BUSrRumS17Fyjqlewr3dNtXXLpqy71wUd2DvA0EMWv1tbcArFU0lJfeGlXLfmGgfkn7niRfGONtjXgJo7zqtOTAwTONUEXJdjoT5fvfDCCwR97swe1xYWtzXfuogt1/lUrVs9ZEb9jow4hUGueLyABjMZZ9PRgeJAnwywkn8pN3xfb2MrKzu2PrA5qxGWr1hFbMECNmX5mO1DB5K/WctXZWdszCmxBl7b/qnDfvgpF4M3nJdn6wfr76mX/q6TCNa/683vfanRcDopC3BgJGfdurpCOjpaQLqtmPkbozHW/nYBMw6gDx44WH3z7Z7i4sCF4X0TSZS0fCXsXdjo9gJ+fEQ+AVYf3BQZgqTTr3u/PCsjtk3lPZi9bhRGZTKpFNshhsFMmusO7u3tZW6lOwNQW63z5ncngOETgpi+ZeN1LV4DqWSSImUEEM1w7jWCCs1YqOiGEc9ntsqW/ccPUEVYpO/U0ECuuBVhEvIJK1bwezhffe3aMPMYFxC2RSP1elxePAdqh5jmxFWEqxwY6GLrIBuQy3GMSHYesI3f5lTegLK0aOFi5m5OV5f7r1RnCO6qXW7O40Zxc8A4ipDQcrl9lPG4/btAyScaROItgehvFIxSFGwNKWp5MhpdjE0wDi6UR3l+Sn4HTyyjUatfDkZ5ku8fOKY3No/WeCfjE6a2k/ZQvkx05hEPAnVZZf2xEyqPpa/gD2MjzQh7rdkwurSRd+ifgvY/ftAA+mIt6Xv65bncd/pRnitt837jCPzs+4xDDZAj45Ez8bHARY9CNEQr5ggulLMUX4Qt99I96qLPCiyfk6YKLddtqL9TgKVNfcQJ6xcXNqxfXz315KPVls1b2GRjQ9W3bl08TP/9v//f1aEjR4Bno7/SrNCgmKgt/FZkOzZ+GTTmPT8KKtvlN7cyPuWe4+7YQvsIil62onzssUdJk/pt0rCWVQlFsMzCQ+eywQKDQotWZPGWee8DOCDsFTI3UYyTQxpcVwF2zn18tAQtbdu2JXtZG1hVCxfloXili1SF23rL59413b4qRQoUvsE7hdYkhsW18UHonzS0CxagsLAE8ZmfVL/7h98wPfYQvIO4F6fc4NnyolbcwNZ17tx54jCw3ocGq0HmmPvx9A1eGY5wdXx1r6/E0l+4cB6eLpc5dlTzWVI2d+7cqX5brrzVGJeF8JnubiLh8Sa+/fa71bFjpxgT6cMVJ8bxqNDr7neMhWrBTZryv+T4EQXrnSjhPI8BRSJDNHI6rQtKl2pv39owYcOvHXC1L7/VvNy5Zs+3e6vjBBA5OM7Nuc60RMDi9EXJ8no0RqAUosvwl/rLX4Eo8vPFQJTDO5yH+CVyEdrnJH6GAOZmakWtgza0S98309MXn39RPfDAVrTeFRESutoUriq0K1ctTdKIpcwBnGXjdEJ24ubIHBf9KQgtagoHAyhkFsU1SwU/+mE/+M9RvmvCqufoRKoQJ+0XQS9d6s+8xeuvv1tdONePkC0h7SZ2d77VZ0RSM6A4T7JqxQpc+BtRirYEuXW5eF2E1uUjXObO7aqeYoP4k6fOVP/j3/6I8MaFxmb0rhvu7DQiu0QYg/Hgh8pGGbHvA4bP6OXI+DmGjY99sRzh6scx020c4cqvYomXx5UFMk2PUmddnuPh+Q8dpfxSt8+XcS2CQ8HqNbV6m6SX4m4BGKUnVd3uQ3kHvOFd70fA8EyYd5rEs/FS+EMm4ef+D/ta+peKGy/WULcdHgqJuk3lSv7e8crtH1AdDawFwu3nbb+uad1+gTbjE3ycEsQF/uJVuU877GsGp9AiWOEFdB8KCVOs+8s7AjfNmNHWlMc71D3GNIfu6CWLF1S/+92vq9/99le4JRdmSYqu9YGBS/COMWjZttFv2hjXKn1KTRRtgn4hFE+BKc4o39gKBYvrP303qQEtg7Y387EJEaz0TAXdeUEDHI2Glc4MahIvbbku3MyHGrvgldugzU+B4nPTL9d8VChZSoxpfjh/auIFI3FXYMW5j/VSom/F/UxTNMrJHCa+UstV0IUXCc8fPHxGyPAOA5t9Z7NGdwK384rqlZ+/WL1EUOQm6nXe3yxJKjbCS6XaCN/Dh49UH7z/QfXpp59Whw8eYnpoBL4AIxfmjbkudzxznbAKuglQtm3bWm0nG9/mzZuILu7J8jKVpRGsf9N4Llo8lyQ+O5iK6srqh6tDQ2ztWdzC8nIVEA254FB4foH97e5Oh+7tqz/W2Y8gWG1gYTK3UaEQTLkKoTHozuu5DmzhgnnVE48/hkBaT+cVNkW71P9uppnjx09ire5N5JrIXRhmqcMdP6Q711Ga7MHQ+toyVOf0EA2KcBEFQYhcmLrDicyrdpP5zG0AlzB4B8XrnQiVSVzBB4MYTz31JEKkJ2WLsJAGWlVbXD6r16ysTp/CHWxpCk9OYh1StnM4Ri57hPC874/b1frrRzsUphZe/nHGb4MChLP74Do/IoHPAnaX+gcC6/fe+4AgpH40TTRSEF0B2c78qQzQYJAbzMeI+HMJ4jLdo8zikUceAvmxBPr6Mo5yFuds1aANWngIonjvvY+YryZSFWFqlKYEXbcn83zMOznG4Up3QMCrBWZetkfNsXy4lv45t1aYSwQS44yumvILIfEcfVY7l9kL91JcYZjCppQqw3Csb9fFj+85Gs/lqwFnhaE4hWAtwtXXi5CcWW4CtrhbMEBY8IP3K+ZLbQ9DxLki1RNVBPvEuc9xoJs18Kr8vr+/5WWbPHUWQe0vrvJVYN3o2/RCIxDLW+Vy4zyCR7jdeQQOlFk2qKBcGVqEps/V5di3InyCC1x2tAvstDBkSULI3jdcepyVpywjQOLbw98WwCenJR+t86S6E5eRUGPV6uUoiab9LM82zb6ZpWEjI4PgNQGQgS+eE8rIuOB5ULin6amX98ClxDAg7CPgEMbSd8Gj0gQVZ0sQ1+QP4rT1Sytff/U1FtVJ+EdHhM91AiSlLXMJ17zB3pRO0B3aUtNxuS6ueA3LFA+RU2pZWYGlaialMQIEu3s6s4mJfFVaU+cMjSFMo9A51EE4y2/gVfpXarj33wJ3/Gyp+wY83Lnm1tZbEXSPPPII0dGvVBu2rCNYyO30WNNL2+vdsC5cuIBhsqt67bXXkxns4sWLeLluoMCzdhV6cY5VUBmLIi9vQ6gakDo4OFwdOnysehdhvG59LysanqqeJiBK48Y9skfNfgW0Ozpb4DVrkzDFMl776+vV4FWC1Vrdpg480V0ftHbs+Z0xFm/9/Z97fKdgbYzBHbU7IB71AOWHlxx00Srftt+B4wZ9UDu7QTSoE+WzQWpN/idZYqO24+GcpR0VMS9dHIggO3H8RISn5rxCtJlADAWs6/NELiO/Qg9oj8ENACaDKma/lyjPDvjhwXI9DeWcdmpdlFdy3zcsU8urCCGZGJZp1cY6r3PkEN6LcD2M5boNYdqeNulmMPp1KwFMDz64tfr8s11x86qxhzAQ3hKj84lmNykKRINArPweSF3DtYZzoG0fpj1fIF26Zv90TFFh4xlPC9EUpmx98gW1Vy0JTQm1dJ6jnaZku8T8xOnT53CRDfGsKRC1RK7hPWD+CWRXIboBIascnTx9pjp46HB1EFjs2be3+jlLDhbiDnJ9mv1xqYfW2jwWgbtm9idYrgNX3qjO44VwvuUG9Rm1mHklm40Qd0wzPrRbZiVzs23iUMbQkrnn8h3b7XIdCcQ+iQu+4Zo6CTX8jP4GN3hW5mJ5QtAj58EVny+w8XoN9zwTWOZi6o3rzDdtn+VZJSX6j8sps+CXrnYq5bqi0b+pjwGw/CLky7lrHT3Uqp27Lu/wZeFKV2BoVizLsQbr9fA78391G7nnuzk89fDbj03JvdLXRtNyM/O2PESr+NBSacRXaGfBPdspfGs4iU3eK2XGSpeOrIFnPMTvuFa5njK9aHl8SW8+pjDgJuWUyE17KL34kPdjreaHz1Jn5jBTQqNdFlrXSdlRUnmrwW/sR5RiXjGOwGCWVpZ+odvyEupK+ul13uGa7ch2b5ajsk0701aBZ9spx/SIgRftxC/DuXSka9ix4bB5HIGD+MhLxWPVFGtqx45t1Sef9LJ5x1FwuKQCVQhZJihN/4MlpRBhzFmBM2WmYC94YhutW4vQFRHSqYGIxKEgRBbDVx99jEQ7CJ94cnjZSGLbVZdngWliKY6/jbGyLzxnfeV567IdKHeA4haEJS6al3oUr9Yw2ZF+9sqvqv/6v/8zyvW2anabBfu8Xxo7sytjT9555/3qzTfeqj5mv2sTPvT0zMM7II9xnOYgGOfyvK5b18LqLWOFBRHbw642uHApy/jMY+CSy/7+y8zjPl1tw3tYkQvdMsw50Eqwq9nwTHZx4sQRVnJ8C39mb1zabtCVeGWb0kA7GGCUfvODn/KB0v4CZ88DcB6+91GMPSmi8V4e45flN457C9Y8cOeDBdClwrqAtJGCCgOUSCVAjjTWrkg4RsQKhOtYPPNi5q9nLs7sJUaxGo0qs5CQL5y/QCj1N5kH0cUr8AuzVDA0mKsMEQJ1fVgYNHXUwTcRmlQfuIQbifx2xk84TeqRQ4k0Zc6LuxIdg9rMZtEmg3DjdpmA/TM69hhu6a92f1Xpwm5j4bPuIIHqvyW4fNav7+V7Aa4IsoUQ0dyc9FtmhRKxLR+dr6E9RbMtwKRN33044MLS4SsIUMopiGCPChE6yM69icweCcSwfBAvTJLTMD2uCWvTiimcJmAUoh7N4tu5kE7KYE0sbnfLNEuV/eh0nDCodMGYK9UsJ5ecH/nki1iRG9atZ871Cdwz7VgJtKHR4UW44h57/NHqg48+Z671EuVpzbIRAO0wiKGkNtSqLBalLRbBtaZtWYS0HQICtsc5bGJkGVuYWkODLmMk8dNWPw485blfrkK39NuC5Q70k08Tgjyl0m9lrEyowFrBXnDEZ71mveKmYyDv4YG8m5GnrY6QmrbgTnSufeew3ggRC8qnjKHKjVMaie7m2TIWRRnJYzw9C5rIXBgXwHqiIm2DpXLYP67Xf4OFFs1n6iqNybh7OW20f+KCrS7PZd12sfF5ryE4vNcYi1RA7cJK61NSCm1Rcawf4eFDNqSc8UWfI63KFWFQjlLr7fEsggkCpuwyRvINaaVsQSg8fdcaGopg2sgl4UB70v9GP+1j4R8oAdDu4OAVmmKmox7Kd16/TEEZZGc94lcLNKBwnd0QsDIZBZyR3ea5roVrFDfhTxcmvA6PkGEb21HzD5XmUFBgbX/0piDUKMut01avXYl3ro/laB9ylXrAfSOTR4klmTUJYVl4jvJd981LKpeOWoG/CCteiV9OX/ATWlDIdzMnqft0M9M0c+d1Q2cBVPA5yodE7hsULq7mDz+L9a03i74jp73lY+KpvLVcUajqtnWTARI/tM+uVq/eVP30pRcTY2JynZskhZEHN5FJz6AkI6F/z25k7hZ28sRpeAoKzhyCVJvImicVq1GgyNxwP1us1hb4wi2it6+7OUqUMK7zvNHtZo4z+tdsTIMkFRL/1q3r5R08nCioygU3Vtm0eV317HM/YTOVAXK5H8978VJQj20vACu06rl4IxwKrYSiyzOBgg/w2j0O4Vfwk5vSo3RFWVPD2Hjn3oK1cTODMK3waEIpuL7oUNxGdBGsbpEVCRQFazOWqv7zZVg2O3Y8SJKCBWEWGVAQ0D645vH0mbPROBROPiChSnAOjPOwzc2Ej/O878kErEPkF9gSvhfKPwEmAsos7TQCDoAVLcbnCgEAFcosAlo3m79liL6jdScBRfs6fKj6YtcX1Ys/fb5awC43EeQ8a12dna1VX9/qWK3vv/8J9ZodRwu7vCthu8xHZm+fLE8XmcJ8+mFZ9zrC9HkUtkGNMlv74RnPy2TsJ58QAwircFALhFworigkJXgJAuWeb7qdk2q8sLU9BhwYZKCr2yCm6ywb0sI0z6nfraRGa57TWXWQhUpragwhOzI8TOrHPdWrr/4VbXlR9QjzSTdZinQLZmV7tOZddjCXBfVqogZAGVCh62uMHXgcL93kwiZtZkyEXcZARYePTFDlC30nglX4CbdEluNhMH2iDLwwcfsnOoM3ru8ECkVQAqOGEqFSI8BoIeU64OKOMKTBPC8M8w6gdVmV9/1bxsa/1C+/4bofGd5N3ORGfluHuOn7zvGJ+7zg//I0dYhTPi/Ttc5ro1dhNghamFhw2sp8g3th6lp4ts1PjunnjUuNL98veGH/OKc94nzogrPaYs5z0KQWXKEdBQp9o92FSdgnCg09cQ+YwcfTB5UhW+JaZK9YZuaxOBeXxA37aHP1IqR87pWVAtRHFcVadO7eVIAe4qSeESPo4RUE9njYfpm783SWGd6THlENFaQOBTmHFo9CR1ngPN8kDLud6FJTphoJq1vY5WeTrLl0zv8aa1vdnUrG7EblzqnedkXrloehAwPhKfJpGNBTrgcw6WuEuQggQOLlKXgYIyPNctvL5kTnrl/fl+mRPXsOIBDweCWTltNgMvzC/1IMJYkvAI7/4lt+NfpLnyPQ5Ss+I6xLkNCqhaxQYFmgm5gIL14N/OSfRQjQegc1HiLLrMtu1MMlYVpwhn4IS54S/uJxIZVb8OihagUrAH71q5+TfOLR0K9KMhotBajY3GQq73T1h//5p+rf/scfiJM5RZmMRTvpVoGJ3imD/Iy1cN3/ONG7tss0taadbUKRtz7jExzHzo65/C4bixw8cIxzcxzMqf75v/5TtZZlNa7NdU7XwLCVq5ZVL774LFbr8eo8BtowWZscR/Hc90QY+SLExvUGtAUUp0A2kC58IODJ85zd8yi4WKBYxsrHhGs9isZ93+uwMgfCZ6cdsS5sBoD3UKBFg5XBQ9iyoSK9SVIwwVxA1k1ZXdG0tO405XWnFgK8CfKXdWUXyVRy4sQpgHIxwJtEc3H3jvpZkbEZhuxaMDsjU7YdCjAbKg2kPWmfcLGd9oPrEgD/ZQyl3iJQCwKSA5R6kl2IshzowhQsbxb1dTBPOETbTlYXL11M5JpBVtY9IfNksExzqLb46Sef805hVDcRSkngwH0FjVBII2TOMjUZ1/0cpWPlSftE+XbM/iGmKavckihc81j6CXPnX8EnoB8gcEs40I5Y5TBMEXlOG3OpEKBBRayHQYGBKCFAicHCrg5dZfUCjJlnwF8YHOtRWRQvQxwaGqu+3PVN9dKL59m4AIYLkTUz/2I9HaRVU4FasmQRWnQP5ZoNSmFDqynDppbxg1ggIi+ofRfBaXAHmqhWBk0WD+Rp6ul6PibYIUPhOluhi1BQk7atejhUBma7EB74GjDl0igajwtK7bjcl6gVBHHDibt8osBRjmNeMgUJNwmOTnN45jh6L8oSTFECs50ts2WQjAd5msWvKGTgp4vd66xYluUY8Ye5JLfRksBpGu2/yYYIBoKJnyonZZG7TI8Kgzd+cxbhmdO7/tRMQRotCoUgLe+FJhs0EJjDuHSt2wSZc9YVh+k2cBVBYzk1LWcQuFZgUMpU6cmgSPONfzJWGXsJ7lNYUnbDxWfA0AR1QdXAx2V34CuwNjpW5aIkfgemzYwy44UGFpwzR69j4P0oPjJGcGLSyFPKCP7z22xK4sMogTzCrZ1IdZmzTDdwS+sdL8aT+7aBxXOUoZUErcgnZLxYuU1MPUXp41HXrarwNaEwlnYUL1uUDOAraTlGkzyjQBBnC48xZy7pJjP3uYOVDgew5I7StpLkIcvQaDclNMaSHzlqYSfeiZvel97tqzSBIsxY3mJ5jZ47R8Vo2ge3P1B1dXfSF92q0qkKB7ATt1E4Lca+Uz3j7rd4bPstn/Kshd+2wnEp9doW7lKPQr2d1RzrN/Tien0sRpL8TcPEbTxVXFxd8Ges1D//+Q2E6hnKMAc764dnaakCI5T2bKKCwBNPbrVRHw26AfzjyWPcJ6Ff2yR8iufAd2xbEznaT1V/fvU1UrSuYKzJM79mbZ6VxtzooG/dmurll1/Ew3iCrUb35Z7evNI/e0YvA0+u2C/+qFB5qYZznpHZ/MDhu5Zbl+PjjaLz5r0Fqw/NfJJCEGM0BBBlkLW+CkBk4GEclOzgqcDIdGRsFQuIR3Gn2gAXDW/caGJ7o2rpEB+/JcjTp0+TtmofmuQ1CNKOlQ6rCYnEluvg+KzI3II7RYbgZL6D6zNhBEGN0k4HTeLTRSQyOpi5TT8kOF2iN9BazaergLQOGY1LfkSUZjRVXc7+GzG67dDhahPt1x2s1RkGCEEvYN3aps0bMqF/haQWpvfSjWG9aky2Lbvp0J6pASkNEcq3D8cqgJ92ScDlWQfRllhGGfj8Ei789LEwbgqQEHylJhxL8KhLkqnLDkVOlzEJ42j9IKEapYzNbElBOODSMrudYA530in7JeqSbY5VPpEF2lcGhoBbIYZmdtCwna1ooEYWuxRHeBkqrwA0MlPmYD+us0TAoxVN9joM1PHoYFzFJRmfglat3vduXtd6sd5buJ0pF9e1hK5V4Dy9bTUS8coVrJFrvAeeTKLVN0M4Eo+WUBNb/1WshbZMGbW47Do5Bb0uWq1zFSsFtIQRDZ4xCxwpP32EMeU9iDmRpeBIBAUCo4nyglPcm8TN146FvmBBD200d3Mpp7yLwOEZ9/odHh5gYJz24Bna5FhoxbcA/4x3xjFgKuMxAz/KHYsAotIeKO74Jncqz9r2KADBnVBQ6q5d1UUBVtGQ+UJzopbwz/OFGcscVXSNdxDRWg2OaYJOUHRLnba5uEdD86hAbq8WzwQMWXydw5yga9bnMOc5iwA6oz8dM2ltmB2nhtm9yqVbWpcKOPGyvX1exio8h2vxniAsizsd/IFWxY3ijtcKRqLQActQWZOW7Z8pUaVBBZ9jWtOJfEOhqaKpkqXH49YkA4yVRAnx6gjfKHvgSb0OVG+Hw5B2AS+VO13CCvUWdmTRTSmOCzMTTCwjV7crCxaRN/c80yKOsdNJfrsenBqshqN8y7fKefktv1WZA8oJ8NFguUayetvfzRr7TZs2Vr2sXw3Phcdp9RmNe2D/gWopa3fXKIB4u/CDVJQ//qYRDmn6I745fipNGhserVj9E+Y7BpbLyDj32GMPM/XlVF4xjqRR8/4Oj4wnR7Lu3wPsaW1CjNZWdgaDksJToHeVn+QjwHMgvukCrmnJbxUe57p5lANXMTD1/SbmZeUlA1fOxc38ztvvIdiXEgW9EnwyAEovCcn+sYS3o2Bs3boJd/Axoo/1fDZoHx4jTcgLgCblyz097LxXuNaARy7nmXJ2r78+Ktw8pp+XKw2L1UJrC8oqy+/6kfpbpmEb0oQMogRchBEIm8FvtA3IBBlsHAip5m7Iu2u7DF4SAdIrbjv3IoEaHPTll7szCa1rxn0mda3JgFT0W2F2ZtUoyIywgomUDXsVEWq6/AZRAyc7waHWLeNUaxFpJByf0bIq8whmUWqtemC4uo7mMQeslt1/uR+mYG5N34UJUs4V1l7t+mJXdr3p6ZkbpNaqh14zX7yur5e5h5Xk3jwFAgwxNzk3cLTxrmuL1hjNWCDyaQxKGvo9f2w3HeHxiFH64fvl5SgTwEpcVFDZnszLUD7sg6r5pC5gw78clCdjmhQWDaHsuDqfZhpC51nNwamglTEqrHSlF8SDOUFgZkNxR6EWmCXsCENXy+wW3gWVG5Gcp62XIwm1sfibmnXdyKBzGaJqqYYJuy9MUqtUa7G4gBSUo6PmvTX/qPmQybaFkHJefuHCuTCqssOLCSm0TBTa4qUMyaTiJ9GcB65chVmPZM67nzW1KjsqHGWPU4kNLRqhGGEPg7KeWQy5MNMqbQIGMlyAnbJvgN9FeSy4LdOW/3XIeODnRiU2MXfXhYfDrQYXLVoCPqyBqa3hdwc0oJJVhJ5KmnP3uqz27NuTuSMjJU0vB6oCUQfUjxymwFGoyWbKd7l2+45FgwE8X4Qo73EuI5G+ShmOYDk3slLBqlBR6enu7uLDvsLUaSwAvJJv2DfRq1cH3a6RcVYIwLA9V7CKYWVGAVhCe+PAw7phCTDlMcZvGJjOrrrwVjj/vgT6X7VqMYlEuqgTdyDWlb0ZZU7O3NNaGZcvXybIkWUTBNRJ5026YPXupNNaPDQKPVChKwncQmgyVJmemUsGMGl1bOwqc/5N2XjCyHYtn+J6txA8MYzFqlUrs2RsiHEw2cyoS0QY31hJk2wfSYDOEErPOP2YRYfEB4V4E7C8wThHacOymoAO5CcK2oGBASJZD/LOOPOda6oVK1embHFGhr9ixbKsiDhKKj6ntGTv/ivLlhjJMrQ2kkNcdnS9z3/KUHiUzEkq7CaqGa86UHhcjqKws/zMvTKGKve7d39Z/cu//Gv1wnMv4jVaxljgGSR4UH4ibYd3cV5wrFQeJQnB7PKhwIQx6EL4jY8VL8zGjRuql19+iTEk3zhtCJcBJrcQlEcPH60++/Tzaj/5fE380NYqPqm0wzNikaqqipNFwDt9Ij6Va6WPdlaBmykdmmR/NIhUjgxKm4Mb3W3kPv30M8ZvM2lVtzPO9FvFiPbIX+bOm4vxthG620Mu90OBm0q+hoKeOFd6FF4BjOWrNa8KvxLmAfiM8eByfTTGgxfTF+FZxsrv24M4OwzQ8rhWzssLPHXnWPuI1yBIkaUwckUa6IH2KpOybSWFoZoz93TjSBhc71vbWy1fujwakUwsA8MLMjKFlq5W13uNsHuKWUpkbNZntJeDYah6d5frpExqwJZlg258PqdahLXoMg9dIGq8ap5aXLEQIRYVw+Zoj1o1DDiWzpWB0WqcedzunrZEtD708HbmSLdEE1PInyHzkwFLh3Df7Nu7t7oKkx64SBuPnq4unSeN1yYGHwTQ9aSm2o6vvwfmtHbNCgazk11fBphTdHK+4K0atQzLowykSBmQ59q9/kwfpAw2b/jP/8Le0YkGBvOsozRNL+aIONCO8dSHq8X15CBbG9yPa7pEARewVrvXcsdFyAM3YCiOsEgvEd9ACGgZtuNuuXXTfSaLK8/5j0mIZ3gcK5FIvBbC3/HkpT2mdwxjvsrWchC7H102IWQQfPg6QhVLTmUpzA8GqGCQ4K8rYIhGhuczR9VJli6y2Gx5sFIx6+1bg9CaH4VIz0ftUrU/DDcMAaYIYQ+DN+fOnau++eZrNlT4HI/IWXbHGIjAVpNGVUPgqTHrOiPyWTeVjIxyImwBnu5GXaYt9Pv69WHap9DlTaIjy3tjaMXSyy02OlhAOzdB7K5d3Mpc1Dza7mc+ZSKoYCS6oqUdrTTbPcSmBXsP7Ks+/fIz0kDuzaYGgwPDwBzri/5Hu4ahq+B5xP1KG26ZAhF6Awl5RgbkOIFjPDrmWmToy7FSgCqMDDobY4s/g/MSSAgjcpeiNWtWV889+3y1c+dDWbowft0Ud6xNhimOjd4ibdzX1Ttvf1idOHk2StcCErfLlEehvxukC1y0cFFoUabfrtKrIpq2TkS4GXvw+BOPZ22l839zSVqvADSSU8XbPWS1Yp0nO3XyNMGL56sD+/ZVn7FE48hhkgnAF0x32krZc1hCoYIKJlej4yMRqM5Xz5vXhbK7vnruuScz/1dPEThds23bg+DEbHgI7l7qk/EqVH/L+tYnnnoCuDC+XFOZdlz8fRk6/+qrPVkecpJoeV3BTpm0YfXeUhCAu8xCVHPgT3pQpDEZ+0lg9Npr7yZT229/+5vqZz9fBH9ReSXNHtmJli6dn49pPDsdF8ZNIa0yokJIqSnL8pjT4Zew9EfhuQa6ua2l+5XOIljIHNLi0JYt61mSsiaegOAWSunJM2eqv7z2RrVr99ck4d9WDaBgLlkCnVGnuKoipBtXwyUbElCLfFi+Ib3bHsexDe+RY9PCOnQ9En19Cqy+8FanO+gBMG0Kjz64f1/15RdfVEMkfdD1G8U1KSy1UqGl9IVX7E/+cSquKB/oZvpN23LCl+3UWNIDpEUsPMJzsWDPkeluPys19nzzTTUfi91199qIOMmrbvIVb9/2AK7gPYlMHhjAi0B8iHLLcbwFzzOlozLCOrS4SzCqdZb2+fc7D4cEOOag0ZGJXptxfKcr2M7ffZRrDruCwk4796BQFUClYWASAxQXbxqAxsac6rq+vkrGqKXC6xwMsPNjCMPTp09i6Z2EGWLZKAhhZoZSm/7LJSG60lwKMjwykMAaNZAgI8QiEzR7kBogGMl17ll6NF40dupS85HriogSgy5k53YfeWRn9czTT7DDzsNZL+UaW5vWj2A0TeGhAwerP4Fco5R/degKA3W4MnHFFXJhmnWkhfI8JI7urk6i1dbF3X2OnXkUpgpp11+qdQVeNCPBILawACvvz/xzp1Cdebf+XbQ/gM0FPwDOM7WY9IJvL+coCHAbcazfJjB2SlYOtVUJTQSv50L9rUUzZ44ISJAOwhJ85JBZm9LsGpsUdIO4CEXg6nzhhDmdgbXpJw1Cu868rQJ8FoSYCFMEaNolo8NCVkCN4BIWF7SCXaN2jcCSxSwAf+zxnbi5+hCqmwn+2IRWvgIXkDsh4V6y7ZRhn+xH+mPTgIMzCWqjbj21Zev6avuOrcnm9emnX2RLQNfWmlnLfhgEYl+Eg4ElIqBMJiUBDBnMmO1DiTLLC/oU13R7uuD/JhrzklilCqft23dWmzdtBQ9WI9jKfKPWXfGyUCLlCV8D2RSeHmtJWr6E3Ui0cN96873q0gW3G8Mq1H1JH1Rcb1Cfh3SngJC+5FOlBL9RCoCd7VbIUSUXeY7fMlE5gUqg75mKTmXXKPanmCv7zW9+kUw9Bhg6d623ormpnfmsswh7MoohdJLkg46rZPhbK1jrVrhreXvfOXXp1UjcpZS9c+ej7LDyLGsrH87SOl3i0p4JBhw3p3DsnwljpOG+vl6mBsaqs9CkFsebb7yH1fUt1rzroMUh+AAKsmlOHR4DV+aQN9dtyR7cvrV6/oWnq961LjWRcaar4C7CGLiIW9KFbn49HDt2EGhH2xNPgbDWqyU/Ufm5cO4yeNBWHUfRP3biFOXNjkV/k3uj8CcZisq0bc9cp/RGe0xO8OWur6ovd+/OWG5lGUrfhrVRIhQQixaxeqCvL/VLU4CNcqQnx4X2UZ7jk7ENL3N00xMuNe4x0s6bZrkNgnYhytwWLDe3hSweO5oSIX+KYMsvUSwvVEPkZR+FD3noQVBwWm5cr160imCQ33QPGNkUVxDYglHSPkpvixcvZhxXJgLZcXSP5iYEvNMEV9g6b8+eb7NU0ukSeauBStIikKKOVGI1Oe7kb42L3mk85ml9VbiI37qFtTpdhma6SpPw7yEn+SPgVxceIl/Va6aHTctaeZNUjzeHgqe2wTJldyo70oe0pDLomMYDOlX/1AkPzjh4P3EuXK67ZcNvn5fnv1Ow3vUkzydww+bpp2YAwoBopALLwh0QtxbyOQVdmXe5XvVAVH19vVVv7+pYPukMxO1zg2i/CtVTp0+GMHX3CVa1vN7eXjT+BQCLwRu4ilV7OoK2Fe1VwnZboTKXo+uh7O9nO/zIhOS39kNCtEyjAG/cuAqhtMG0H6r+z//jn2G6W8Jk1KJlEGq1i1kqolXkPrFqZa7Dfe+9d7KW6tixoySDOInmzdyZWixPKLjNALKNjETLli6tvm7eEwbknBDT9xnYWA4wJYWJiJW22az/5IOqGvUVeMSaBT5etxHFwpABo/NJ5DaMscl3uHdhVAahKARdqqDF6m8XovfgQjTdowxSvmA/ZUYKjgES8Zs2MXPREKrWkAzAQwVIAaXyYXlzu2WCzqeOkrVmfvXC8z+p/vGfflP1gTPF2pmffkgMbmogroWZSHhQi5aU2qdU06JLG2Yqs9+0aQOp7Xqr8489Eo/EggULcVnJdC5h3Yq7JZBi3KVEtK8OvDGvsYJE+GgluMel/dXNeY0E5KBullE8+eRjSV331FNP0c7lURxbgKOu1jAxQUp/9VHIkMMouCBK6t5atLgnFuOVKyPVZ598haJZ3F/mSYji48vBaf+Wf16ZeTieMmmZmpa4rznn51jY7sCNRAJavXNJx/n004+TMP1nbDKxFQbdFaFSzZLh38BaPFV98MGHCLYvmA5w15LC0HTvSvMqjVrTo2x2n7laGOx1PBB6TNZgmT7zzJPVSy+9kFzaixYtps5aoBa0Uih5zcjxWgFW2JhAv6drEzBZgju1r/rLX96o3nzrvVjMumW7SGE3hrXqtMoEkb8K6C7wb8WKVdDdsghA+1cURhQF5oRx6GSsAnfa7j2Dx+QJ4o8ojizKN6fV9Xm34jqdRx5arRqtWN30LT5bE60PevhNGxwVcfwqHgh3xjpw4ACw+6patmIpOOsGHtLJXNa8P4DivbTqvzTC87g24TXCQosuR4gV3KBMxy/1Zfz5Q92ObysWvHEoHUTMPkySFpVOPSNat/KV/oHLcceeOnUmzw0NDTEdMwwPQ+HS4ucZ4aYCVn/sloJFoaNghjQjhDVAdDnr6Vi1ciNwWQQu4cHBIzJBQCNvAZ+ytdv+fQeqixcu44Fwqg9XU4BTAyq9m/YnnZr2+x6ndpl/8oliGCE04THKl7a2bnjwefp5iOkkPCcLVAic5sFlwyEvXkIiG/MPV7P6Cxy5bn8tVXklbMVlv/WSUVH5WMCPcNxTsJY6RJc7D4HvIfLiEaGhsgcHvFwXSSUYBaYW6zjPqTEvQas0O9EC8kBqkjuwvufHubRjx48zz3ImlkMHQBGY69atIv/kL9Cqn7ZGEjDsJrPGW8m9adrDVsz7ObiIuua041rRVeCcEIwZ5uWPaKAwWnd0kbLcXcXUX6zIxDpdWz39k8eIbnuYOd+5CO4KzW6Q+hEWWXhtROMNhGcXiaWfxT2thnSARcvn+T6CEnCaYKVNlFlcWs4JdkCsa9auZi6p7C1rxqLiynHQEc5o3NG6mMNRKMyELQ37TzokOIoOAgH7VC6M/BTXncIjofy00/FrheHbQgWprqBruA3pRRisTPoGRGWEnxsTGESwiJyecyA2maRjp5XuXJnzZs5jec251NkqIjRGBBehnUPFAcd9mNfoAAz7Zlx7Tz35SPUP//hrMq48CUPqQGlqJbipzKOCQLSrLNnRWrKcslREDwgBU0Q5y+TGmfe5MkCKM/DNOcQ14F8383rOf+o1eevNdxH8uj5J9EE/mptLwBNsJ+XcRMlSeEQIAI64zyhXi8EgOPcSfuWVF6uf/exFBHYfysBi+lgsaffFVbgqkCVemY85otWmFbYysMCD5+cgUDyfg5XkHHdXd0/gpxU3CT5nbBwrD2BXtP2Z2COTQCDLeGHiLm1zOy+VHIWQwvYaQlClZTnz04+xT+fv/vGXpJ58GKVIIYOioueJek4cP1b98Q+vVn/60xusQTxPuzqxUljfjOLi8iD7LvxoHmM8Ql3iisrnjXgXfvnLn1W//BXZeDauC7xVnEbJtuOOULZvWAsKmhcnR8ewjuEPlsmwYqcXntPDOD3x5KPEKbgC4Fb1p1dfYyneBeCpuxYhB6yuXClzv74h/KQ1lYKbKGm6N7Vuw0DDPEX34jWSZzWhAIA1hsWEIXueKSTaBBj5I34XwWwQj3EC2e8ZODkS0khOQlghroyLSpl1Os/44YcfVc+98FyC95zXbwNmBhmZrej1196hFFzCwHWM+UuFs+I5wyxZcpfRmPrtSRlf8dslKa1RNp9/7hn4Dco/7ZCs9e7t3bMfq/nrJGTQU6TXZhjhGuFEjy1bHLLp4mZokavh7TRFb4T3HStbIT3o4TDy2DzhXAhNuBaXEsj3O4gnz03Iy77ZGkJX2dGqllU81DhSM+d+3+9hG/xouOGGYVzkX52d81DIRxI4eeHCAErVisR7iEeRSYy1MQML4UsnTl5IZYXfOPbS9G0lKUagwBMgP+JxT8FqZ9KlaZU50AG697hengBMwEnrJOvZAjudV0ZbqsWO4Qaeg/awMBagbiBTYgmA0lGRYTxuOt2vMhMHy7Dp//K//ab6xa9ehHGvyJyUeYX7SNDwl7+8Wf2dPQK0AABAAElEQVTrv/47yMKCYoIrkhwBwtJ9VhOobVEoiLC21barZRn+rbU8fz4CYcUCNJt2GEpxx/QQFj9xoyxIdqN1XXiJJG6mXiLuVq1aWZ1h7uLwISzW02do9yiMEAUCBNQ104wVvXDhfOZZV8c1c+TISep0LZ1uEQADQNX0bVPANA22P+J43ruowADIMljImRzR0sB+oSM3ueE8Y/Mo7VUIFkESJgOS6jFwGYFWoPPmY7hrZfhrV6/Glf6Tav26dfSraO3OI6rg6F34DNfrZQLBdMdlPgdB4nZ/xZ3FnCPgcL5Sy3+E6Nj5zJc//9xT1W9xTz6FJTiPxe56ImQAwlmt2/WzJ0+eJvLwUHXkKJF/MI2CA83g2WIsnbUoPVujsXYiMPVEGFEovpq0QvenzE9Gs+sLs7qQcQoYuD/lyPB4Arbaaa/Kn0s92glOksFrmV3DYtN1vAHF7MWfPoNV9jwej20RIMIj8IVo7d95XIoHDuzPRtIG41zDLT6KiazXZN488WRt1dvbRwKBXnbtKIEezpk7Lz1B3RK/CmvtuiuDBpiDPfwC3oUZOKDgO+9EiEtDo4wZbrN255ARJMOk7xtnjlhF8fEnHq7+6b/8Fov1MYS46eFQUnGrGjTicrdXX/0TNPYX8PwYpTpHyAd6kLnOYUtFvQsGHInbTgXJ9DiNQvnKz5+vfvnrnzLHvAl8AcYsCVHIC2+na84Qu2CilZMnT8Ul6nIYrfwVWLm6GRcxvaKvS0+P7zzw4Gbq/12mGKT7s+cuoQi4C8pcGPkV8Ep6nQxTP3niLHQtHFVgZJ4GNc2LO1D4eLS1mQBFy3Io1s2IqfWA4xz6H0HAS0YnmwBliG8TpMwnCFFmbPL4W7RLV3iElAwSXmXZKhXCX8VJ6/bq4BD7OR+sDh48Uj3S81DVifIvn9R6f+bZp8nE9EU1cs78wdIRcAKGKnERYzZV48OSHWPPIljx1DAl4UYkToXJC7fveCAuZllJC33u7x9jfvjbau+3B2ivtFwy1pn+VTe3bfBZFQCnNeSXObhuHwFl8MWkJNK7OK33Ss/KOnjysuWLeV8jBT7Ct96Qq4OsZ8dl3395kOfY1pBr7s3qigNeLuXXf+WDtqH+/X3fPMQoNuoySNZpCIOdDBhkg/kbY9Q5XB0/djpTcIukIZ4p8TvuN9uNQbcE+j1KGfSLP9KHvMjpAvEmCgTMrvS9Nva+r1H3f+8uwWpl33XYMO/7z6FXODpa4BQNLWZ1C8hpE0U6+kDAAtbC2lUwOuYkIbbrAESiE8C+4zzchfOXom2JmFp369f3xc2xdNki6lMTv1Utxy07j0CQ/v5+UmW9A5IZNaoVqKDC9QCCyhzUVkUi26U2HGHAMwKvzO/MwrqYl7R7ClXneoxCdt7AuQSTQztAWtyWYT9k+L19fcxb7C7tvXAJ4hyOy83+MmT5OIexEgG8GmvGgA/QL8hrG7XynXwPWqVcYfQfOWwbpaWdOt7vjbCOZv0RBuX58l7mvLim5eoWW1m8D9IZHKOr1361ma6MM8QaS5PM+QxTBVbLlq9k/mxH9TQ5lFfBHOFjCE2ZC8SGe8box30wFwnP3TwUBOKLpXnotm2FsSZijzp75naQ6vJh3JMvY608kg3mJ2FkkxC/FujF/gtEXR7O+jT3e5Wgzp27CHNSwRpjmuRGmIwRmW4T5rq+jVhNW9kXU9eoc0fO5xvR+PDDO2M1SWwfvEfABcs95sD8xM9r7NjjlIBgLa5lg3mYZ0eoav2uXLG8euHF56qf/+IlAkfWNbR4oA8ODeIKNGBKi+Xg/iMwua+rcwTkDIErRiOqOIrvRp87Z7UE9+XWrdvZCuuhzIfJDFUWddl1sF5bL0IW0Ts+HjYqkC7jKDxFJS9HyPFc5jnp69weg34MdtFCHEKotkNTD9Dul7FUH0fJmB+LUxpFLUZpPF/99a9/rf79f/4BoXAEBaqsR70OLGS4TpFkCQs4MA7tZT0lzPwG9LyA6Oyf/OSR6uWfPU9/NiA0jag2kE5mfSPKxWef7sLb9A0W1b5Ebne4Ny9MW7pWaXZMnn7yKfYSZccrJLVMVFzavGVD9fjZh6uvv/0GwXou1xwnFVaFjFH4b739DoFfp4CrLu0xrtumufEmbH/wQcrTUhNQTcD5dPUmzx89eiJjkbXceL4UGAoD+yrunjp1NmMaLwNKmN+6RT0Uoh7FhUixnEcRkheAU471mdPnqw8/+Ag6WZY5P/mIcRlbcN1u3ryRmI0voZNBhHoXLcPTkRzFCjOVAgelKEoGO8qL5JmS6tjoYOb0d+zcxvp5XLN4KKzTjUqkh70koThz1lwA7jjVGU+B0zShPcqR/uUcRkqHz9HmWKtcDD5xr/RPZUqQwV1RLhWq8nCVFr0XvgOaAcNxvBynk99XfmdEtYbWLS1e2mVdZU4yZ8GJ21yAmxzCr7Sr4DNv5L3Uzz3bGVwCRsICdsAYu+KAAEUi60f4XkC0OdWBo/BCYOgyP3fGUYkYG6dG+2JllFzPL1tuUS40jqzbNv7AYSGSO18Fpr4nXAsO1G+Xjc4bv+xcGG99945v7xkcZBfLkXMArCvOwVDbLOdqR7hhEWzOVbrprzsUlAwmpQFqI1dZbiGDvHz5KsTv/KNzDs1E6up2mGfLYeRqr7qMSpajhYvmMU+xEDfABQDs3KDtIsADZI6mixartVoGXiub1jIH5GEATjPC1CUbEr+ELfMy8bwh/GoxMgLpBj6ZQbQc3YfzenDkI7wvMI8gIp1CcM4nC5ParkDN3ASYv2rVqqqvrxdrbVd1DTePc3cSjgMhrokyxWVaQ5Ebf+dhvRFYvh8Oe3dB1qdQUcvM8/yOhg12lMXTKkt2GIsL+Dj3Y1HJtwlsMl8HQMYITHHObm5PmS9X836KyEotdAWBWq1ulZGRiaQU+/rrPXEF65Fody6NpkmQRuCpSWvFu79r3Ig3xkkcsoFozV/CoB/P+BiRC8LEAjB59xe7P63++KdX0fZ3wbQu8b7Cum6ryhF5jy8NhGG24w7++ONP2AjAjZd/Ue3kewmCTCtIN+bixYsyL3oehe7gAd3VJ+i3kYIlIEUBqMtb2KpgOJ/vOBqB+sijD1UvIli3b98G06IfvKOHxOh1d2X65JNPqZso328OJM+0yl6UTkAsbjsH198/xO4/52jz1+z5u5cyTwKHJpbfXKaNrnlFAbNvELsuSr89pBk17mLJ8AiXveO4ynS1MmR8Ch6VSIWMc5Imod9M9OhLL79QPfHEYxFKxR2L6xj38zEC8t58823S0P0RS/UIdRCohHVnIFMUTd370HKCmKhIZu6yK61316Ru2LiWsp9HaGzACiaQhAbh5E5fLfu1116r/vCHPwPrI8RF6BovbmoF+iGsOpXnfczRXTrfX/36l7/KlEoXcRB6l5zbVkFyUwdzWp9lHajKtcxVur3M+ccf91eff/oZ3jGmDJgTNlp448Ze6HANwWQKardQK8FJbl/23rvvV+9/8HGWxclbst5U2AL37s6e4OkVlCQGLEJSK1VYxwOFgiFzl1eomHo4BeG4WIcBU7rhnWb4iD2JDWhbu6Y3y7JMB6gV5RgYHHXp0gHqBM9SDKNLwI9c1LFUlZK8KTQ45rWIRGh106b1Cbxsg4dpqdp+06nu27s/niIjvhWqRtwbU7AYS7l4ziiPfojfemTiCaKP0oVTX3pMpOF0lpbQHX6zeTxTbeb/7mJaxjFTwTDRvQGK7lRjX12t4S5WxlSohAiL4Cd0HoHFd8wxaKrRM3uXQxqys1MrJmijfMvId2lGACks9Z44xTIJv5Ak9P64F6uu+gRI0ljxwqMd/NUdrAJxEw+LFYQHhrfzMuU7juKqcPC35z902CfbavM88rv+US7l710W67R7d5zeq8r4p+mMcLECXVcKogkmkRVYzrvpl9dloVuvaF66CDTHm0GGqywq3g9wiLbLrha47RgwkbODzD/udGFfDbe/4ZyRmjjlmb7q62++QkCo1SIoGGgtDTOA+KxzehhPeXcU94nzR87IT06yUwvvDJFNaBRXrtqKmZV07dSCuKMDrZe6IrQhHJ/RJWrEmcsQLl0giOr4eRSCMwmMmTvX+TEtVi1k595WR0NVYxoaZmkOCaPV9EOEDqLa3D0G4g5g/4g/RGqZgN/igkLAeS+35XJuzTHqImrbNZ8i7BiYmXR/RHcqbHVNqvHr0tcy2clGxi8wd/TCC88TNKICZG5SrVG112sIvX7Wme1iucJXcad1dREOj+vGcHsJehaKT9yELIOQhnWPdrFM57nnnkaoPgkBz834UDVMdS64cSWus39/9ffV66+/CSEjANkcQeJVCIkfEk9HK3OTjLPBNtdZe9nfvyfrRJ1jci72+eefzdIOaUhGaHCD6+C+feBQLChxtqy3K4xMJqDwd/7chCUGdm3durF68afPxv1rgITBeQmQ4VldcH9+9XW8Ke8hqE7SByKjEEydBFoUbRjlC27AwhHKo3MsSdASvnDhSvXWW+/DIIl6R/OenT4Z0YwrMusjasL3fRmAvxlLAR4K5694BaM0elbBqsJSlhC5TrU5VuQrr/w0MHbdn/Pf4qrR9peYG3v77Q+q3//bqygGByjRTae7GRfd7mQ7g/G3gh9+O2dsJrQOBEQyHOHFWL16RSxgN1xwjbpIZtSz7uK9rCP8wx9/j1D9PTA5TVadZqwI99HsipUhz7wFnt24MYrQPVqNXP1DNX5tElf1P1Q7HtoCEzXJwmTo6be//XXcv3/+89u0w8A5YisQulq1w7h2TbcX9x5tMip9oH8wv1UCojBHOVHpAGfgPyOkUJXOVZ7GcA/LL4z0HqN+hYIRqC0ogOFn0ImwNiVnTbvCX76RRA+WSDu0jlwaIg+SzkyUoJVuhPBaeJYzu0byPvrow9Unn35KkvkDjBu8EgUhS4lgpIho2uKabttqQKZjrRKsMHQP1HlJNmFCmjYVHO6p/JwhHezbb7/LFMRFYGIkv1s/dkawagCEj9FmsDtKgPzXcj2sy+kLldVY6NaX/gFLLFazGpkQohVcEudjRPCeuK9Q1WpVmVD5EnaWrXJm8gvrKwGTpS5+cGXmAdLwLH+8Xb49R7BmGs03uO2tWIcwDpVd6XrwKgGSGi+8r+EijViSHhancJRRXhNO0k08LbTTc68ZLJR3bGup3Abcx2Et0480fOrCfQtW35hesed+RDwlq+tGHTyBe5MeApIIFBdHi0xaLd6flTV3BUiXWDN29PBJCF03JEsd0EzUZk+ePI12eh734AaYBG4lAmXG0IQMUujEejRwRC3qyuBlnkcjZ92rcy/unrBo4RKQgJy3ANMF95f7L8KkBgC+GZ1kVkUBMNAkg06dCj0tK+HckiQH2t5YrzAIQ/F16xw7cgpmoTpEVN6wwll3YQmaEJGzRRaF64JS4Bgp61yN7leXo8yiD1lyQ7vybIb/zsEQxj/+oSZcFB7njEUoDyNeF+BadwnUFjwKK1asgml2A2+YCWOo5a4VJ/EtYO5Yhrxs2TKski15Z/XqVRlrkXsWHjLfcV3mJ598Fuvn4MHDKcsIvusIplhd4Iu1K2BNwEH8btqjy+aBBx6AUXaAC2wJxUMGIV0dHCF5+Wexdt7/+KNYGAsXrIRYOhlbguNwf4l3nZ2se0YI6ZFw3rsVnHEeWC3+3Xc+YCx66N9K5v4elDLD9Jxv27hpEwFsT1R7sZacDzMgK2uoYQpalloqWaoB3IwC37x5fdzfMipd0IUebiUN51tvfsCaz4+ZVz0BwWrVoXCAr+aCVZlj2IEXrm/6dVNlD/f4bDR813JeZ9lSa6uEL8PQUgVIlKEF4+JD3YQeatxhhvn2Cr9lEOBoyJAx0O1nm/U4eLj055WfvxT39arVKwN76cxMVOfYiP7tt96t/vDvfyWKdS9tGSUQsBv4iJfEGcC4DaqyTbZfhVXKpUaY63UY15x4A57EAtMLIO4oUHx+UIvtw93VX//ydizNBfMW8Y4pJV2bDsNGsUhJjLUuawOrTp44xzuf4714IAGGPfNUeqF7xnPF8hXMn/cyll/idjzHNZUy6VkFTcWvKzg9iZXuGJdoc+0+f6p8Ow9qH/ROGaGu+9WgrRIV3opiA8QDe6ce7L/znvIRvXD4APgublAtaflcIqJLDRE2KmcT8Cm/ZzFuKo27v/y62rF9R7WaCGFeiYvSTUg2Ixi/2LULBXAYeGJoUKZJUmT8wRV4kjSFbgdelntu+djbu47PmszrG3cgnbqu2PgPI5EHmd/twupWeVU5LcFy4jw8FnqLVwbaL+tXGWfKjxBFs1DRkZ/HUxJl3KmdMkUW7176jWBO360bRRYFKuvg4ZX+Dr/mW7hRGTBtHMDdyuzPzMP6/VeL3NCVFi5BZsE36SEHAPRJBlK+Ki1kyoD2OF/PkPJb4VqMHD2glmX5qd1vfhcjSsNCBaL0P+2camyjuu/4Snt98XuOv0mw1uWkoY0GWryIVOYPy0BGuAJcGZpzjnFNMUBqCEnEzD3LuHChHyF6HoJ2+USZB9Cl4HqwHTu2J4putvM1DJoJIxwrzfvtOx4kCOMRNMJ9DOZNNFo2Il+5NoFO8+cv5BmyHtGwEbRYBWv/wAXmZ06BxBfz/vPPv5B5CttcLFeJBOTmtwNZlp3gVqBfbmX3zTf7iAY+kfkD3UomP7hI201WH58x/SoT+rjjFFjMpaxcuYJIxvOxTuxrNCb6HWF+nwNYw/s/8i0+T82tUpDnIr9zEa6te5SQfVQLCLAkyxYGIqyaqeH2utXnkc3EoKCFPD8fl34tJB1n3bqG8x9kbkeN+b13mUvbvSeJPtzRQrjWFrPEHOuBcp2fGiXQwz0Ye/tgNJs2h4Fq0c9hzG/ikt675xsCaV6vPvn4c8ZuEIJmMT/zasgfxsodMZhuYDxsw+jYEIyMxAEwB5dGdMBclNGXCar47LNdKAYrUCQWYWGtBge1SJgnZkph584d1U7WNZ4+dRamRNIK5+MQasJAAlRg6Q5fv34dwn8zAtpNpGW7/GOsXSv42mtvJdJz374jCFzWSqL8tWBR1USt0liiLItGr5u5aNIE9pAuUpyzRMeGiulcsVYMxFEY2A4PPT6hPX6nbOhBi06mWZ7RwjYAC0sTLmOAyys//2n1i1+8nHOZj/fV5sXft98qluquXYwXyqLBJ+5qpEVICyIoXYIUBQN4aVXTCpRQldRxrP7lJGN/JPPZcQ+HUTXFE/XJJ7sp/6NKz45CTAtqeFjXIdYFbRZG4pjjYARvAqNwLWrZSm8m2VjXuorqZLBY+jy/adMWxm8t7v6zwAL6BI+STxzFupm+qc7fRBlxasOALGFiHVp+0qWeh6JYylzFRRmrFGnfZMLSQVGoVWzERW5FyTOtnwlomjtJjcn41B9KzJg4zeFyDwPsbKvTUirrhw4diXv92jNPZA7YMdTyNULY8bkyuCeCXmVsFNdmD3OuTeGToALjq9KkoLev81iK6Fy0uKjA00iQ71y+fIl1pHuCiwZk6e1LVDMC2ZUOKrI+5yH+SHu1lSb+FMtbuNFn7guRcr9MtamoGYMhL1DJkUY8SkCU1rbwlX87/YDFLy4zPoJPgek/x4bWckFc93P7kNYarUsbbIdwd5ohMOB5x8ilNsLdAEhLLjSl4kP5NtEqeFK42E+P0As39WzMAr51zbFYgYPPpj31DX/+wJH2zXhm5rW/TbBaeWlvirUwEUm/ullwPIcjAniAjvUwHzfhRrQzGZ/HOIjmXJyMzYE3Q5GMyTLjPuFdNc29BL288cY7SQnnPEky2DA5nfk6XKzm3Rwd/XV1Ahez7pdHH32SuYsV1NOGpUGkHyMq0Qhsl89Y56VL50DiAZhkZ9XX61IAdlyQ0cuJAbfWsFGGzhuU9iH4L/ZXX6Fxfsy82VnmZiRMUeQKIeaHjxxL2rwVqxbR1xIY046rRJi4IbiCtfWrPQQpkD0GgaAVoGZqtGZBLrt9G5iWO/PI3bsvNx7j7SCP2HT7Icspv+prhRkXgYaFx4jLzDzs87p167AGVtMY50REXL8Ls9ANAyQhKNMVaj3QAxBbF49BTObidK/EA7i03nvvvex0c+6cEZcwI7IbiRc8GXjaextmQJJE4/KLEVzyHVhIq1exTGnxUhgsBIqgVXM/Q6DKJ599Vn3+xZfVBRbfF+It49OGUmDbk+qMBPjOr0tUErQnLmFwZ5NZuvNI+nDqJGVhST/zzLMws95CnHhGhJQ782xmresH738I43c+nAARmJGave3Jxs6UtQlrdcu2jQhst74z962u0WsEKR1ge6y/Vnv3HqBeXa+6fmH6KAD2V3iWoBi1a9oJc4mGD1EbP2A/tEwy/xyhoHXIM7wsPRWhWcZSASXwZDC2XWUtFiv4Jy4LY4Wg7e5FEXr5Zy9Vv/n1L1A816UtYaA859KIN954s/r33/+JNKLfMo5YfliwRltqYau8gB1JtGGKPumo5MdtKKBc0CWsstW3rg/Fy3gIPAgOPJH3hw8fxVJ9HQXrG2Ci+58kILO18A2ocW5O5lfSlbbQJy2dMHT65Zzp4cNHCMA5V61cvRQFhYBH3KXtTA9t3rylWrN6DTD7jPbZRtuFIiReCVv4hzs3NbF8S74QXOYZLc4WAhMFn+MqjJzD19uhVaOC5pgUJcYctiAT70jt0o3ywAQRtxDSpklUiEgLoVmaUXi4IyKtqVxTBvUPgt+DZI86fOQICsPxxJq0IcBNq+g+prqI96KMmYt7fAKiIIpaXLHk0B11a1VrlcnD1q41YHAnMO8NzmRJH/hwlOj4XSSEsK3WLWQcizZgLXwSlc+3bfZwba4fn1doez0uYPBWoSv/S6wM/E78E/vEd4W5cBcfnCoTZ+2vyojKmhHOJaYCzxdwHSbIzZ4EgALRowCrnDf+5hkfs2AryxcXeDaPg+c54X7mg2Eh4rL8VLe5a8uNfLaG4jkNt4nSKS1ZpDyvLl6aqXkct7juEzbgh49SVpEZdz595/t/m2Ct36V0Tx0YfevOebWwKPg6W0GVzCcgLXOLHQRNzCfgwwxFuoBng7wVgGjG+hzGfeESi+ukw3O5ii6ZWXTelIi6Lz748EP895fQ7NZXPyE70qOP7kxofgcaY8uceSzzeJqAhocAkIxrDq7Z0QSP6BJRYx8i4q4DN7S5Wh9i65VlWCzLV6ykTR0gqURXxkqhaDJ4NUnnX+IGo8zz5y6FGb/77vtZFzaIgGyGyHV9nr90qrp4eQ1ZYIYjZGSManKZSxA2IIKuQxWKElwFCqAxa5UkhB1OUAbTYVKXAxE85SggLtdzzmlBk/JO7ohwPuk8KIiTMnkqGAly67YJMteFcss2iWShrdx3GYQKj1ts0W+8AplXxr2kO1WfjUirMGhikbsBT/6+OQ5y05cTJ4/FzaV1oVDZQ5aeCwTfjLsTDt6H4AWcLN8QtdaOe122tgJn4HgDi8cmOy+3euUqXJDtJAjQaqOttMU8ugcOHaguX73M3rEILLIBOc5jBkDZPNa/NrvhMe46BbEpEN2PNQoV42gCgQnm9K6TvF8BfPL4BVKhXcyCctPqtZOAxExScztmVwtJtRclHLjERU1bZavX08YJxrKt6u1bUS1ZTpIK1ru6NroJZjx0hcX4e7+pThw7Ul3Dam/B2hCHxSF6AhyK5u5QiV/J1MO5FpW/+cMPrVKD6hwkx82yy3lR9rRCcW9yBDd1C4s/lsN3O67fdpia7m/bJZatWrGCTeh/Vv32t79iadA6hAdBSEyL6MK8ePECAvUPUYIOHDhS9aM8uouIDMny4o0AurbE9jUBGJs5Kf4wS6hV5XzcQpK+mN5uPnOmjCgCjeVTWLwqtqdOH0c53sX8F/Oq4M0cLHafkU46OgxCFPekN8dGxQtN3NSDrJOdvIULn2TrZy+coZs7q7YodKL5LOqaR1/FJYPFhhEcZf5anL4ObsLuq7GbLINzTS6u2BLlXjwcVAINyFC1qBSSKE++w/dsxknL95aBj1iGGRa7DxAYDQuvkNW8B1xwNboBu3d0jQtTwIYgQnBxvwnB5k5Regya6d8wEdknz7Dbyv5vq41EkTeTpD9z/Cwj3LSJZWGLP2OOf4D6Z1c9eFmGmC92msq5cr0LHeDn8NWBatGKRUxdrGbFAYkwXBoI3Iwo1qN26NAJ5qgPg+vOPePJgZ+6GTihabSTU/hulLKYkPAieK3tlyY9hy1wX8wRRj5vT4sQM7BMBU/eUR+6eVVMhKfX63X6KrFOHyj0pLmCRRQYbCrfs1JPXVLjm1vhZ8CxPiw7Ch68WGryIx0Zca1S5ty2PE0cchpoVgtKBePhbz2cKguuH9dylqfocYAyObfvpb9a4CoRU9Hd0uQPHVOP2J+Zx9RNfIB/xyHQ6yNaIcQuA07Pafx1IkhdXmK6MdcWqs1Ecwdh1L4mEQiX2bj28qWLYWThEkKNYtX02nDz6cb9+KNPsxbw/IWzWImXWSrwswhXGU43ifD1pxtNuHfvQSLiDqC5Hc28iy6bEfyA7Qi2FSuXV2+99Xb2D1QQm/lErdlBce3sN99+zfzafuYKCKJhblZrQxevyw++IbJ1L5F2rr9zG7XM48DAXHpxZbAfV+/pauMQzAXLXKJS0XDpjtaYyynUboWVWqQJKhzwQoX2VRjWg1PgKYGWQ1Fa/6ifqe/xnVfL9SDkzHKstS6Mx0RSqwOH0m+JUgJQA5WQpBkXXhdLVutBxGtoeVgy13Fvek2tVu3eecFdzA/9y//z/7I04zAufdYgw3wMNrpJuL2C1ahEd8AZ5rcRqLNbdFdSJnWm+RQoMZtv1qw5xQorfZRYz6Ig7du3n3HEmlJoMB+pNp+F/zIKiEiXtpCSofidOU3mSQNjRRvP+5w459rCI4ePVmdx5/Z0r08H1XU6cDsvJtLcMTxynHl0gp/agIWwMnhCmLgH7+rVy1ECyPuL2wkIAY9baeP+vfuqAdfqojwWa8HeNeAPzByawtBl6uXcizXzKuMH9gQffI+HOM/v+lq+CzOwHhm/hfkdlzpzjaaVc63oCubCf/nLX1S/+91vsrTDaRgzPsnoL124RKrAt6s//fFV8ifvBueVEuRXZerE6GADOUaxZG4B39m4Vm8yPrFcdBdCbIkiVzABG4PMnJ93CZwwimIAzfejDJ88dSweonGUZpVJE4qYElThnZfTfNguOJDPLdd5yqC1Oko2tUG8SyqxJlWXQTvdJCM0/3E3LtHBwdEivBDQKjO8JqgjtFwFoECXHgN77kgOBdbCvnzyhvCeOhQs5VlB7EHp+ZfCObvjcX5nKqjcLA2gOC3dNpT3ZmBvoOQ+pqx27+6tXiTgb9lyNo2gXWaMWrdufdXXtw6FdBebGKCAoDCoADXBn0p0rkqzQtqlOnNJ37eTqYiy56oCQyXmAALVvLgXGFubIU1oveWHnUj36t7YI9ELeNn2Bl7Zp/JBucbQcCxVcuVl8nX5hQItz/COylexgouhEHhSpPO6cDvq51nOUit/SmYpGyL8bgto21IfNiWfaRfE2VqJ8TVVO6PkTWAjHViv31k6JA5wFCWHsmA2pZ8lpmO2+QpsS/DXdot7pS2JHG6c19X/Pd8NcObVv0uwTq80mg4lyrzM4yjgFGxdaKXLly/P0hmFZRlgmXhGGgIcIJPRRebZIBAJDqDbUbU5tSgX+N7QnUCkpAv5bfSWrVsRrKvynMtddrGu9LXXXq++/mpvgp2Gh6/GBaQ7SOYnIz9K9h9GJ0z6FPNoW7duSfSpSSt0Y37wwQfV+++9yzzFAIKhOwOpK9EwcgMBDOhIjkraJNKpJIRRszbRNYvuVCJTpuMZdHvXSWLxpWRE0TXtAKupG/lXI1W04OlA/J5zEaAAb+b397w07dZtZqIlqSDVvVg0ULoDIRMJiQvT+RHHMswThHVNr8PivFwCKnwYqPIqH7XJCZjlEF4FEtujxBhApmBxOzGPCFEZbrDZ+iA0hJww0IXp3I707Tyv2ZvUcifNSkV/tR60WE+dOsU13Jzm8EXfhHTTRpUUukHZaMc8b1sMxmrFotWDcZOCC7MH7266jIrdVmBYx4+XTZA3bOzDUEQw0R813Owbu3QR4wR/xhrDkZ0xE04yGZeKmVHLIKlE3ipw+HeJ3ViOnzgBgyPRN0qHHdISnQUcxGePwtj5Bu9zXtA/93wkw5uT8nz9XmEKMlaFbnk8c7CMTRRRrF6Zr+MhrI3aXL++j/iDHZXpBLdu3RRaEJZ6Ipxy+eijjxGqf4ky5JpZ4wXcj1e3PaOPZ0ArRI8CFjv9GZWpYqHKwPQCOr663RNkwwXzJHeaPtE2QvtxG9KuHja3N7uZAU16h3QZ+p5endn8rgWq00EybpeFiGMGFxohbNYmBbf9NCFFkicw4C7fM3uWS0cGBkpWq4ATIKqIqBxMYq3eJPpfuHovDJbe5bkCxh/xL6U6HjMOx05YqViqGLoBhEqiOK1iP4R3w5UPK1euwLX7EPfweFy7JHXRB5VGaAReaHCU9LiQJTN9fYzt9u0Egi5C8UeLoL8uM/n662+zXZtrpVX+5aVGN/PAVKtun01duvOk0QVhJm2SnJq6tXZr5ccziCMfS+MX9OZqB+lDhUe6UPRJQ36H10ngPJ76ayQuCO9D0w5opjzEw56XlxTe0rIelcI3aCDIbt3ivK8oWJWmwlxhPuVxgd6EoeNvlZapN+H/4+29v6y6sjzPSxAGAu+EiwACIxBGEkJKmZRJCaWyqnrWmurqWav/upo1s1b/MFPdM5XVaUqpdCoZJCQhJIQMXhB4ExB4IgKYz+e73w2QyUyyMmsuvHjv3Xfvuedsv/fZZx/v8l/xYhm0oeuOB35fp/6ijz7pLzoyQDqu5SyQy3OlhifKxfWo7u4RAcDvMlQ7SEthqdhcP2XNTAfs3KhMPIHFqZVtTWCZ0gSU06xfUxhowVy6dJkkmfcou/Yr5oisnnOJtglIw6DG9pNuDhOnbwh2Ef/53n0kUpwgWWUzRN3XPP/8M2nbGsTDwycRusfoP4IZ79uXcy7O6xneMtvRsMIVPIM5ZPsq5PMdYnZrNYW7hwpUr9QSfItYzmFmsHM9IruEjlYU5FCGUu55kD+lXL3S59RL4niQIwQF0fle9KoC9XuTueKvWSivweGcoEJQhacytNzaLNatDQxYeNtSlBIulihj0eh59NHHmr/9m4solGmpvOI65GsWKQ/zWZyd8DptqkzjuXO/cLINlagvxZ1C2Kxjrfh49Pzuso7R0csRxsIel4TQE28yEMp1nGzgZGuqaBlIwqoBi9/pQkfYJUQP/McJs6kkreVq29KqW9/ZB0O+KqX5KE+XL1hcPHYe/VBY9BAmt2KR2e2imVvD3E5XuJTHfnpOq1fGrnlQmB16lE44mXG3tM9JzvFb+slnEdF+8Xzn8JPCJEqrMx5pyKVlLlGpNaR5AkUvZqf84yMb11M7diM5CBsZk1WX+J0w6yh0+s477zX/8i8/xVPdQxh1DN5i+zYyl10SdJddSMSX2ztaMCFTIsDcghq1dSAJRsx9u4zHbOBkxRKq1CBxT1ynHjRkRMGSJQ9RfP85nm+ZSNoCLtfwpJ3LM6Jg247XpRrO8yWawXlpRKPPtbcaWqvXUCccL00AKhOcrvA+6cVoi3Sqss5+ptImiHe3JF3XKcBHI1FDMpnMgTE//f9whM94tvrJ/qrszdp1De4hIiZmPEsjwsUlXyZp7tjxQUK6N6nEZKRHmlBmmXjlXtZDQwOsQ36YOdYVgZPzp8JPZ8CI2vHjJyOrYFLgUgbct4cq58h93z7K8BPG0i4viFk6L+Pb64EhfJai+tInhmu8RK41eiSeDVs7b531rUS4ygD0eRwt7DukrQK8R+XVm7Zf9kGY+RZFyTuohd78zh8NOEdBB03mskRqlcrkIo5yHLiCG4x2uLbc9hIp4d1+G8HyAfYxfen0zzH/NY+/WLGmMwxa4Go8uPVYMmMRlmaRWvDagQhlhpPBiLSzeKsmL+nue96BOdBaQ6m1QXtYTc6/zGCdo1m/s2fNg6DusI70JOsFd1CP88OEQ1wi4VZgItbdVFQcV1nbFGTwYBMtkkyDZ7Z375esh/xtFrK7Bm8LqfBm1Km8Fd4+M8+lXwqmKuxs7L7mC7X+Pe8YtBhrW7sOYdJ/YeDawcUwTZXUOpyi8dgHKNnyvNoQxIMgslWqLUG1SkMSfJBDhhIeHtKOxKWyVzGdOHEiSSwuSXE9msaElajEn8k/CrZt27Y1L7+8naSRwRS3hq/4vRcmH2p+8jeuJZwTuLnVlokqfXjprsW8BZ5cOqO3qVcEMsiyRngb2kJz2SUZQe9jBopNEpHYDTlZvN+XAkhGcA2xc/R3pQ/6qPBwTljhqRekV22pRW7lULiYmKEgF0qFGxlf4S7ehKn3eo1LFiysYNnDJGegJMAuOFb5M7c7fTbeE6UV6afKsTwCa0tfZY3tBWqlXqbPzndRScjQM+06NwQL006wFtpW+Qr/4C3d8rcSdw5e/9m+e8ajaKT6nhP8MRPXdbrStS/nsTRWXFP7/AvPRdHMYR5SnjIxytD5NZaFWVry9dffaD78YFeSWpyr1SOxIpbZ1+MITKM0qkZD9Ro44+BJfqx13sCTATh+R2FWs8aInrxwYci0xW/ATHiuZDmchURUoipL4anwFAa8cY28VTjQcBbHeg0aOtKfWdiGfJ0bds5bBer2ZI5JgSqteIgLFZTK9Sbz0CpqPXQ6y3OBqd21z7537vG+/7ijcKrhZJavcNS46OvtjzNg1ant27d3lIEGZ1v8YjO8eJKVB8Psf2qSoIDCudC4Yzx6/0+Qve8qC718aV6H4AvasxC9a54N5xt9UuHWYNsBO3hf33/k1/CDisaIkn0XlSXnlMOO42Yqkt1m6oQIFnTlYehXGWF0weL8FV2Av8FJ8WEuix1Zn8QJuKkvk3/tqUll9lvcloL1Z75wsb/UZg/QEEaTSzKNGs6YMR/jZDG0yEoFrlPO+S5/W0J05OJo4OG4hFv4Bplg+wllE3r3s3KgDFif9Nc5/mzFem/QZYmXaabFaieVHhU+M+vWdYkSvowjsehZ6BWZrn+RQWvxy7zSkV5SFACIdf9UQyCtEltAGG7bk0+RPboylt/bb7/LnMVneAtXISgKAxASLCHss80wxksknCdTK/SKWCiKzpzEOBbxu+++mzDMihV/32zauClbfR08cJSwrt4A/UUxGFI0Q9lKMe6t6mJjvWVB72JuCceao65V0zrVYpc4TDzpomCC3qrLbtxI+TZrvSTQwA7Ea20LEw++8oLYpChaB4qeLmqqT9/9C+F43zcuym3+qV/yM38mw660n5CcngN9ValZFEJP3S2mLo5cpn+GdhBWMIyKT4VllSl3O3mCkNUzJJG5QxGVZRF+M5LNq6AQDyYpfU4ik8+X4fQyzQpWWGatq0QfpYW4gJAlcq9TqRnG9VkeCm/DZ5W5CMHTb+e9TVHts12eLZRUwuJVGASWMLuZseN4VI5TBd4LDntMZOGfgsK5WMOYMl69QBxwEIFtEY8o1ChVmZdEO2Al7ivL1Gd7+V0E26XM0bvUSCVhvx2P+DMKIw2Lb4WUOJg0btpnM34Lu6uIvYfTGY82ueFwDz3m1KFmfigH7UQIdEIeEQr0UdofIKyoUaIUswCF8DEKoAH7/vvvk2j2KcL9EoLR9Z7CmvlpaF28AX5g6Px1hdLdL/Y2cDF0psFhycg78I1zZz7fkpblqdSSI3qK4NJgquQ+8WFx+FLwGmqAmbEGL+BBD8LphNpfFWMUGIgGAEGfFYDCQsMG3qNPLjsSz34XNBrfht5dUmPm6w2UsQluFqHXwHJNqDiqe6AVPt7PGfZFfJQg9ro6pIk8nI7kM6e9Nh3rXPPdt3v31286D9KJioZnw1PTWR8ujR0mOmTZwaEhNr7XCGHMc1FMRhrM6h0eHua5tXZ8jHW9TscYgduAt7pu3doYH/KFho3FO+Q3o03yhLBWBot7JM13u/kHzhi9cYwxmrhNeWxfVUQZGfRkWc0LqZ9M/WHzZbhG+DiNYo11q+tZkvQyS6lS8IJ7NL41xjwKlgWn9nkF1/wYHrfHgnryfG4s3nE8bW4GHcWB0hO1HvCMhNZdsSDdJ3GRvvlYaW2E3Ad5MYdjBB93O8Rgnwq1SodO38T/Ax7f6Of33CM5P/BhY1EeUEQ+506tUQUlFg7CDFDkGkM2WmRe7yBkcrstE2lZqZSuINgL9g7SrpjFWdVsPC+gnNMcGBjIIuuHWHeoIvjdb38Xb3c6nqiw8DoJ1Ws9pyD3hwoLW//3Vp5nd7WMDx06FEI+PnwCr/oh5qM2Z8mJAlzLLLtkYMlbDaqUrOFHm9RDkrDK4rY8msZBKzgDkw5NWxTCxA5hoKfkb4V4YJix2pvO0bkn3zqfhVkbYm4v+8a7A+fwcglk8tniKCfuEalhyxC393Tu816ZSQFkv8wmNAw1exaFy/H+FbS38GIOHTza/Pxnv2z+23/7v5rX//XX2RrKZ4pHlY3FMF5++WV2enmV2qUPQdBjmXNUIRkpMGxn/dqEiTB4DLdqbfrdDMzJcCfgttta4zJJrEyIQONKIaXkVWArDIWtXnVgJLMwLOcFcy9Xh0ZpTAGgEPZdmHi9v5UxpzGo0VcJGno6esLK48CFMQobro4QVwF6PR2hDyZE6cHJwCoAFILf7Qv3RFmKHgeUO+4Jcp8dXNGObZXRp6Cq72ESruHpdV2a4AHyFcrYiIV91WCUpxTetmO/wwd2ptPHhMkZr0JJ/lDYGNLX2CsaNMKigurHCJ4N/i1kjhdLXzJy+hHlIL/zSvY17QjnmeQjGNq1cpd4aa+XLuyRcIiQBwbudmSf2mhJDFPOVwShogh22zZigERIilfnKglBQ5v8kue4LK/NZrVvhrCVGU4ZiB/HYxtmn8bYNuoBDNqDVvOx+KVoIrzBJaEP+hVa8arObfexTNtM5z0j5bpq0xu81+cKQ6NrJgBZZAN7JEbqXhKNKq/EaI01oadlPtziI/MXzAJm1zFg3J7PcH1Xs2btKn5fH94yoiKcXOZ28OCRbMh+lQpSSDVgoFNRvCMcJzufnnb62en1/W/2V7yIizg/8K2HSlGHxWzna5RIdBrNtc/oXMZH6zzCKIXRpnUPr4Z+pjMuNrQILJTHZVTLS/JQ8Q8GR+Dr/cJKnLfHvT4Lb3EhT+RfeJZ2MLBMcDNyY6RkMQ7XKpZ86bG2vGwrerQ6PDpvGgjCQi9bmg+PI+98uN/loRgVbTf+Su/lJvwFjYUosR7saKDOZwnbQg4qthLc1fmyOIsZnJsylOqgA0AGqdeqhaGn47ysGZImKwwNrUoykHMLp06xw8zhQ9x2N5WDDH1g+6YtrWmtlyh0+mPBAAV3PGcEgM+3Og/72TWuK9u793OWDKwkrLkqhdv3fnYAwCO4IVSXorhkxpKIWexNCE4FYdF407vHCPcdP34iIUvHqKdTa/1KwInoBXiszjXfvn2qmYZH1oZBVO53Ra5jp5+qDglNipWoFJKZB1TUcNrXgxwSof+VI362TXHhXKNjl4HiVeFFyqBF3MAZoRVhhRAznCuxcVvmhwyBu3XWiZOnmdfe0bio3UL2eixldXezCfkaLOjrk1GEi5dkMJ5LuFHv3Dm5nkQVeJLWPFOEGlflOSnqtJARDK5PBU+yW5gcA4ZHJ2LQg1I2rV9662bd3x0yJYVnjDmiAVYnUrEAwYzT+X69YZnRo/qj0BCYpfx640ppWFjcHC+NkFcpdFGhAqqF7xp8UXxKAV8c0rbVoWy3FR75GbiqcO7A0CXQS1CV4rR9n+8YaYobosTFF+0EH+mf3oLj9LmGwmu5jYLM/ACznVOOjzYsbKAhotBTcc6h+pjPF/+OwUzmp57aRoLM59mdR2XkUonsB5qkMOkV2EsnUZAax5VAaMjW+sDaOna7DEiNKsO2HWNCMuZZJpjExKZ9IyE3b45wXhjW9EjoOTQnXciLNf7AUzoNHDuwA8+WqUudai7Mkjj43B2tXHNL93O/8uAOssJlXL0oKXMsWM2S7fZiVPEcDYLCuc8DqvIqbcbYtBP2kueHB/OtvsuX0RHeI6L+4OFv4rRzgIvIPMPpGF1T+c46EGDHWvpz1DSmWMmTTz6R6QX53BDq0NBgKljt+WwPRVH28TzW7TqnzRr8bU8+3rjbl3vXigNlhzsnfcz6brdlRC0KffBk4pPGBLAFHtLEN/rV9u9b74ZtK9JAJAJ+MyokjTgN4rM0gt028ggFck6dOtusWb2StqFVaFFnylyMNYSq3UzhGI6K1/NjoiD0hp7xouOBvXAUri2o+Or5yCiEVl1TP3qpxfvtn9hJ7XDWxJtbYAEfZbyJXM5Tu6F5p+kOL9/KWm0TZPXwM+1Bn+y3MsLDdbkaE9KQfGe0a7Jj1YW/6O9frlgZtMJNy0ZlobATuYYrFAyTHgLMi4iNkHcwlozT0hSoAQoIUBm5ODtKAEDr0cynYL7C3JCUWZ0KCLfBmkF4ZSuFuVeuWp2wyG6SmE4cP861Q2yJ9SyK9krz/s738Cgvs46VRdVDqwjdXWh27foAC2yUsNhFClYPA7wpEMvaKNZuLMuyrJxP05OxlKIW9R0SeNjQm7CzyRWu13Wcbonm0hPbcAwqdhmo4vnsV0o4PJnBUJLIR3fE09CqD5dwp4cMA5nyz/c68u6flgo75//Ym8I4/wPQaslWWy/CB9nvLE/BI/VoBY/EpcXr41yLrGKyXzdQtApdw4N7yED8Gd6rGx7/4Okn47kom7RW165d27zyysvMPd6gqANLOfAkFBrOK88GDvZGQ8dtxFTWt26iOCBmnxOGUiyjRMp6tC8VShUACnLp6TptK0D6+6EVPRna0qC5CT11UzlKpazBrUCMwOCzlrOKA5lB204v6CUrPGV6oB4BpCXruB2/bRYsNK4QZdyP0kBQZm6XtsSVeDWJy9eVKzwfJZzQJ+0Ic4VmawkXblWcNMchDhxzPnOtwGkVq50zUpFlN/xQ1YUQKBzCbSaZyfZPYZdsWuB06hRGzzvvJiqzadNmPJyNeDsWRHcealrWgI+O/if4cQrTIJSGRPH19TJvjPB2eYfFPrrwCjWg9LIABNcCC96jdAFqW/WmPPwJ+OdqSk7eZCmWnlV5aXdS/nPnTurgfrUf2rHggXwNPBGQCjmVjh6oSY4xKnickHD88pkbKMhHN0jk0XhzhUHJCRKfSJQ7fOhYSls6taKRqHF0A+Vv36UH10CLgbxUcsKWbzlEgP8778oZD8eZc7TZQUuUrec0CCZP5ur7//is+w+u5yvozRrYNE9/xLdrjV3h8MUXX1Kw5AQJWovCHxKr/R4YXMrmA8tIRvocGYmahwfd69YKVPKbRpMKb5ypqX379pFfspOkzYv02/18Nb78HWrVCsqwHLWD77zu7+Z9nzUqHKe8MQkPflepRk4hz4xUDJMgdYHn2YdrhKmnUz9Yxe/GB4ODy1my5gbn0Cu0lFA4S+7qXT6TF6T5Slg00cze5ZXnV4fCE3aX36MXOtfkfKYZmUbAa9docA5+NoV4Ui6WhnyG0xoasKlZftJKaqyLhqaMnvk08XzXCJNf83RxJbJoQINf5ftAh0/748dfrlgjJABYwj0MDKzKSHpqCp9YwiFcAVzhUDPdMvfJmfJWHZgD13KgS/x3HewVFlebzi9habGdOnUZhr4AQXan+Pu2J7eyNdRPSGM/HyBaecUdV/7zP/yvMP0lnkFx7wP7CFW+iNX+ZDYpv0JRivMXqKIEoRouEPAzUZhz55LhSAr8NeqYGrZxwbmWkQKjCAT7iz7KeDmH9aTQSbIEMJYQsmi689lxO59cO/aUgHJgITBw6e8iVxQphM2sNPRVjF3E3sE9P/5pRHJRBHIpKe1vvfNilnga9D1M5KP4bD/ss2E9GWjCB0OUGhb8HGJUCVkL1LkMaU4jwiUbbiFlwoxzP+LvDov7Tax49tlnqVB1PvPgbsvlMpRZeFTOeesFjxm2M7EHAa+ilOlNTrEAgn3iscGHBowbJgt3aUlFY4akBlx25gE3fXjDXdCBSVJOQRqCMpmHSdWiI4SN/KRCjKKidZWNyTgeLr/JrjzQm+uWHadeV2U/imv6h6I3xKZRYQJNKQKoGLi59MZ9VWeznvrcOXZC4VAYjbNFlcUU6BGKGJzycmyW3KuQm+3w4hrhr6Jy4MLdA6wFbxa7qOd5f37KGDUGKkQHr2BceJ9TKq75/pI1tceOnYSOZ6Y6mc+1EIdZzc8+93QMDw3ane/vJmxHIhS5Dk6TyLo9GhHgUkTbrkaCdbKjdHi83ndluLOmESHuMjTXUZpNDpuzHIeoEcXYzTK3tKX9MSIVAclYE86lP6FJhLOGjEq2DAzhXrDIM4BCsrN5pkpWXtVA6+tlH05wYXRBJRuu4I807P7P8rLXOkdddMx4pB0ZTF7mqwabykdc3aGYhIdwCh74rCcLOUVZyaPxtkTnHz3Sk7qCj34TbhqqftaIoFYJdEZI9ehw8+abbzIHPT8hVOnbZX0u/9u4cQOGzzuZF7fgvTWB1651a0KTgzRM7jRnL15gJcSnyLVD0CXVlQC+S3dAJuMBTyoIFPN3Dujp+w7xYbRIGCgTlMuCqzt0KY2ZNT4Fnj6V7GMjhE7vGAUTN+YmDA4OEBmZj6HH8jZk3AT4lffdUN7M3akancBdWWFWu4f4kaboLd94NnCXJ8Ir/Ob19sMoIVzM+OET7r/N/RrLAwPLqeq3LjwNqCsJn3ackjEaefjQYeCFwehzGIviLbrIcUFfTlk53tA3Y88/u/IAh239qePPUqwydVGz9JpvtF/KBlAFKHZQQe0epipXO+61AtEBusZUASsybUuB63KbQixDlji4VkGpx2qGZ+3EYsiX0AqC098N7xoGWLZsGYzlbg49yUJev/5hsnEXZlnM0NBQc+782SBhYGAgzLoCItiNtWOaf4Q1D9Qi0zKWyBT0ppG7ZEfkKowVkC47sE8qW+EvbB2nvykoY7EHMWVJyzBaV5Z69Gqf59ylAiSefRBcMJzEE21pfHgID19QNS+v4Be+xsPq3PANXhEfwUl5/JB9CFXi9xX4w9wKOmGlglO4GNK0AMMUBJKEHMECY/SQgMUIud7dQTiPMFVQWM7x3XffbVatGsiyiH7wYBF1rdelFBp/Gk/24IGDMXQuUN/XJRsMK+My8cH5EY0RYaMHY6UZM/hU+vZNYp+/YAEJERR1p5/WBTVkM4a1m3lbcGfSRNb40S/x0c05DbE2uaY3isG+qwRtF5pEEFhsYAFtC04VQ9dM5t/4rPd3kezem/THuTm9K4EtbhXUFicQBiYb1dwdWdOEoixSIvwqQQJlP12YgUMu1lPTU5mg33AGfVC4qChU9DWfVUl3HfQCIQWHOJSevJbHIcAQSDFaKyHDxC6ujLcqJSrEzDx1Sc3nZIkaMViwgG3CyMYfGFiGYNMwuZP5qB8+TySH5Ub0BuH8JcrVJQsKGnpNn1waggyVsPkDt2FYud+wY5JuTSTSwHC5k6FojRHnURNpoFPVH2tAm9NwPR6tgk36mzr1BsYx9YEhMhWJtKfMcLzeGSODZ02Z4vSQBtZY+DWygOt6uk1kMwzMci8y0S3WcnH0OuFtvHKWhRnCNOFRHjZMmRC03g3jcUgBGu0oXH12O23TciBQtxfpT62b5C7wEWO6Q0fpKg3lnz/bbueoz+2ZCm8G34xXfNpvVzjIE7/57e/ZxH0D0bbl4R2Vh+tbH3/sscwZWjzHrOrHH3scGdcp9Ymh6DKpY8eON/vhL41cTQDb7iFT9w6lJMeIUEgzkRv2rjpMD/3c9rS+1jeVqUaOzlApMhWTjQQGfJS+jdydI4ztPsOnMZxXrVqaZ6icjBK5PZJaEgAAQABJREFUBvnJJ59svj7KRgDQ1TjOSaaceKa40OFRtmhkyhNGG4JXw0h0TJ5X6YYe0jH5ld/gucyREv7V0HM4N5Af/cjUjZseIXz+KPCz4h/3iyNo1OV0n376CTsH7Uu7icLB/9KZcImhh6yQr3229KCMcMwFt3Qgfwp89wPu3m9/6pMje6DD5mtekPdOJ+0QYg3AM6fE5Eb31BkQLWW1UCAub9GqF1z+kciy+F9hg3I1dT7VfhCeU3sJvXLRXZGK11Yl3WBqdNKtW1exzNwBQqulMhediD5x4izzEQdI7d8fy/kkc68mE31BBaZVq9YmY/Orr45w3TkWUH8ZRFkt6fSp483Na5f4DtNRSs66oteuXeY5FnAnrEWIww4b33d88RoYr9dbBUUhkfBKCESGKQv+zl3Dx14XHIWg+iib19MDYTFnYqhQAjbxqQoItAjrMC/PZPSBbUAGkYjobvpRIXaYFQGbAggIDwlEuArflFWjPzwU0eBboMn1ELGfaUPBmaUPeWyF5O9IYDFeuI6WkmRiuzQ1QWiVx6N0yYaW6BCQLt7X+h4+eaL5nJD8EyceZ93kBrwFq2mxfICw45Yt66jJu5Vw1V6U5iXg47w0e3NiUWtkqPCdK3XeWiXjLkFuDWfoXSNMJjPpyZcFRvZ+cQjYAQes5BA+CWXOxbtb0Q0sdkOjDAwB6xpAwk/+xnl3t5E3nVqA74PXRXgFc83Uho7m9C4APi6yH2vOoVRPUEBhDFj00Ec3dnYqwR1iJib6GQchJRQKmxeTz4YAggSgjhRR6KWfIEOoQ4eu1+SZtD/d0psYLLfwYI2M3FJBA1PRZIhcr1DG1aC7yTy+96u4+nh1Ay/7rgCfICPTOUaPu4bO+V3vbIr8FKUFXWgEMl/q9mcHDh9s/uVn/4yCHG/+4e//S7OM0nmuPxWpRn5+9PKzeNlsCtD9z3iVn9IG4WCmO26OXWbs4Bueu8p6ZD3MGRiVLnXSGKYr4ACPXCNLgQfuzpw5w5ivEL2Yx3cKxBCJ0HAdGlrbvPfup+B+DJywLIcSkh6XSfRT6fb0mNjoOadb5CnpWdpGNiA4IXjAgfHCMpUsh0KpGP1R2F/FyzTzVMO8C5rrAx8aUtK5fOC8n4rqLgXcx7nWV38XUzhG0xkDj5JBwAdGFO1CTJSuJFtc5U8UZDqesTw2Bg1dZ9pHxTEdevD5ZpxDvcAWXvJ54OzeYZ9RAN2oOwBkjd+UoITfe7pZj68BhPC/cuU88gYFOTzMVNJ5srkXswes8rK/WThvUbPx4U3NyWMnmqEVQ83jjz7RzJlJHQDCvdKcW/EdxBM7eepE+uLj71CQ5SZTU1af6kHeMPo4DJhc/Ayfa9gBV39xmiqJaTHgAAfviQphPPdgKOrruK2jBoVwNKTqXOZ1NklR5p4mMqhyXYy37bI65/ul32n9s5unn3uBkPxdkqpYXXH9QnjeBFYNv9QfiMEDHuENdyqzToEyxUxunatZOGFGJ42iuKRMg61nKjuWMf7xcZNcMcKZ1nOv3fVbNzZbtz3arF0/lLwM+cT+akCeP0/FvM/3kKB6AB6r5Y3KDV/K34okFMsqaxgxv/n3wY+SQ9+6Pm3ca0Ut8kBHblGAKA1shN4o3H2vdU0qHmPgZLphmZq8ZHJHLISOYlKQ3WG/Q703LQutLfcM7IGJrdsqkmz/ru12ufQF5oDoR6n7q0LTqluzZg3X9xLvv5Q1mAcPfY3VMi3ZwlYfeZMNm48eOY6gvU7o9xCW80UWxv+MzZDfpy93ycxj7offBgdXxHvRi75GWFDhpweVNYiub2KYAh5RSj/4Ild23mN10R8tJdfduYXYHZMLAhgvg5AR8O0Sjtzr/e0RJNRZ4aqQ/mOHffC4d1V9yvO+feO9i0TSN+7yUonQf/c+c86vXOp7MRt44ovtJwsauDm/qCDU0jcT+suv9qWUmhEDdxTySXqSCxbMTW1mQ+9at9fZ1zN6B8bWA5JeNFIU5grPC6wFdS9Jw84Ka8NMrptTCaxYsbw5SNKEDKHQNNwojeihaqipYM1KVfH0ECpSCMpc/gYBoRxIYMMoc0pgcMViylsuyX6+SWqiv47XrEqnEq5Bk5aCm4oS79FI4nkqL0Naw8PsjMR8uoaTeIXE+Vxl/dwC7MABau6y/ZeWuPOfhpMNS6e2cu7RUNGwQZAHqvCRXeSf7bmcS76RV6RzDQ9AwXdgB7xTY9s7gZ20KCZyv22I45zHi0WJWX3sc9Zl68WtHFzVzHl5PoZurY1U0FrUwSkUK4vpeX6yex8wnUh2pxmXwl5XYQrjvwPv3StlqHKuZ6sMnS8fGVFJuA/q7IxDo2YRJUwtZOAa9lGyVxWewiXKE7i4taMVzsJ3hKWVCX0kHDoFpDy4fccIgPtrmnRSBm1yNcCnSnDaNGBGO/ZBBaC3pKeiEre2s6FtLoMGDPmaEawxo3FA1EarF/hpDOu1JiSM8RMup614SeKEkdovgZzQMkLbMomO3xCoOBP+3zyAm0KDo5UXkY+dqaQ28c6sZkPoVkzasvnhZhH8orzk6Vn7vu2JJylxeJoNHzY0mzdtIj+BzbrpkArK+uWGgE+dOhNlpNwT//JOxsuYjSg4Po97XeRTdW3yXdqvaxyPnnzlNwRewEL4KgFMJFX5OqYjR442O957nzn81UQjl3K7vA2fEQK21OJj5LI8w57Kv/7Nb5sRiv+4l7H1vWt/WHmKO/jj/KgRD6cEjfRZ/lGD3UpujDT8Kw9r94xhQEuXt1liYzh4YGCILRBfbB7f+miKhhj+d1DKXA10ad8wsEbBzJnICWA3KSdb3nHgk4f3wlcCqwXK5G/cGzq470T78R5w2zOBUfvlgRWrNxStFZJ8YL1KuYoIrWQHMQ2E90dh1hyDQpqrggSB4LVZ7I0AwQ4lhOGcq9amwhmCB1laVmbnGvM/ffpUrBXj6gryhYTzRqzGxPnh4ydiQatsgS3x9WNYK0dhpHEEjSHiqVEAX7HEUr66g9dl2HDp0gFi9Btg1Bko4OPJ2NOSMruUIKKoipCTwcIoATqkFoDSP56l1SzjtYkYLRK8XoIzTGFYUWHvNW5crXDzt2qnRcNf693OyTG+8wq1dD7nEX72aN/rW/u3xKY/e28p1spMJdwHQzg+LeurrPc9fPBr5ls/iIGydevWCMuk/HONRsvzz/+QOqZHmgNcZxKL4XUllkkm8HCEicrmxIlh1vcdBNbjUbYqXZlt7dohqmRtaj5FABk+E2e2YdEJ11W6RKSbGrQ38U4UWq1XrpBRwOk5+JxbWL9GDVasWEZyyHK8KzZdR0gZ8vJZhrYtS+jOSyVMUNT0Ue9xJtb6LbxQFb8ZhtbW1Zv1WSoR1/T+4AfbkpBy48ZhoCq9Eh3Qs5lwHW+bcciSFuhQka0gcFnOuF4X79KKyV/CVuv9VoSR83MqDCMNivk6JEFxxKXffNGyRqBrO112cg0v0uzS119/nef2syk9XirrDIWbz7F+9wsvPk//DHU3zeefH0RRYgjQflUtw4DBMDCqEEOFsYqr29R9VlkZeTC56PyFs9wHP0HPeqsK9MriXxnYmAVrqNZQufyoAnRc8oJGs/zqmFR64ygvhaA40VumJ7x0L6Vn4eY78gHvXK/Te/VmFajKCPvnIb/pncVIZn5cmHuNHvUUvC4jNwp8DSeVfeiaawy5O/bsYoOCd6oimwPQlutDxxiDcC/eVZrJI3nkt/6AIXDhuIS1UwImdto9FYRzyCYxfbZnb7N3y3qM0C3IoKowN4ddgp555hnau820yhIciYfoB0TMcZUiEAcPHso8+rlzFwIP+cT+mLQjzbtdYkK70LawroN+5mjfO187b9KT95THJ1zpeP3n2fbbKQKibcD/HPWIP/poF8mh25iumYGRqncPn4F73y0Y8tKPXoAuzlGUZDcrJi6D027m+MmXoDvaJ0YmhGOZLyVTVKLeb+ITnBlecXoJZEA7RCjumAtjqctB6PbZVPZaSB16l1WatyCcpanjzAP/25tvYSifS3Y8UuA+ODAskcKhPnKc7Xf7U5+/C6P2mg64Hvjtz1KsBfAO1H2E/QShPlwFMwXF2o2V7aFlJ/E5AOftgOjkQGSIWH3cpyAU6PwMUxAqAEluLeaWSO76cfEie7YeP4b1e6lZO211CvuvXrM6qd0y2QySLiztJcycD9BrcumHDDyL9U3deC21XEFPmfklmMaMvLUo1U0bHw2jaokdOzYcAjPTUiu7EolkkEKGg2U0jMyQjoKshu9YRayEbOjVz3ZGAeGcouFAYWDBAok3Qtk2ve4/5LBd+9m27/v9Lx/afvfzvSN95yfHnHkoxqQiUAjKfFp2WtyG60bxeN5//yOYZm7m9LZs2RSFIaO7jdgTT2xFaZ5mzu9/Mt9xCCPHsN5UPENoBAvYOaSz5zCMhg9TpPyLbOm3dMmCMBcgYx9fLeCNzboPVjWXWKLgonCzRC09aGbwtaujCG13hXGeWAFjyFXlqPDHNIIuDZ1Jk3pRj7Dlm8saXHTvEhJRMEFGiVt6uezqOgoC3s55hYhGkXM5Y4SmXHN9DOVr6G4xtKOCMpNzDjs3/eDpJ+j/lxhm52Doi5xXSTrnTGiW/ugFW4O3D2s7c20oEUAZD62ENP0AniofvQ2XPZksJn+49aKhL8svejjWZOuG3jiX9xJO0l8KRKAk+pl/tOznr974dXOF+cxeDItn2Q9UCz6oB48Dg8sbawqrPG5P/JxM7j0YKXiuM8wLcP05tIpgUnhFwMI3ws0dZdwQwZCdEaHzbKRx+/bq8LtUpyJwrn3duiG8qwOBqzygMaEQ1AAYYWs4Q6sa4LXUgzGCEAtPGHVgmPSzvPcYSn5lXEAAJTQN3JC4hOGiVztGv26rKPlnvzWixm5exiO/ijF+LQqhDxlgREP+07h2ykBcGP3QeIjHAkyEoV4RoOecgr4iE9JWF5GIknXwQ/4VTorX6Fp7AIT8znjkI+nMK7PkDSNJmaisVPgfPnw0hVnmoXjsg0b8cqIqP37t1dwkrmVlK0sND59i7nBP5lg1CjUEWpgqj3KdQonDcGfC6YFZ28/89J0/9lFYGMbWYOmij0o6+2J4WRoQpxbpcEbAJCYz0JcuXYDXuBHaArc8wqiRhSLciUxj1/F+ziYmriUdnyA6Ql0Ay8PeSVESPVWNTfJXuM/N6Y1UzSRfQ1ktDxtlSh4Ou1hNn87yzdnsHf3kY83Lr7wYo9tpOY3YadOsujQFL/98lvuZLS3eZ7Ie32mm+2WayPAfdlLeJ2U73xk4f3zdO8Tdt8/d+/W7n/KszunvVazV/Dcf4vV5kJ3jpcUOLQeJkw1yXgtXorRD4CYCQu+zQis53bEWtFAJgykUIRKte8NgMpAJLwIWFgE4E1hKZxFuFQ7Wa922bWs806+PDOPyKyRdEEz2GM/R+tN7dX5Ty9RqSzKvwkFLEJHXrBlah1LdQmhwIPfr5UowCjprT45BBGEqLetYzUWcjqe8iIrnR9kgJR1//VbXCTmJ26SsZEZDmCpq+5GsPX7/DzmCMvuQjtZ7HtQ5B3zqaN87X9uzNYjgV+9HHJvsopKSZ2Ue57kUrHp37nP61ls7yEDdwk4dq1GyhLTkUcKpFo548cUXUsv52DCbxOPh9AAPFUaFnfTcDfWME+I6RSj/a+5xJySFXq0z28RSgx+/9qPmwkU2csZzPXt2HCW+GNxWbVuNKOd59JL0eF2GZchOHGke30DAqkyG1qzIsoWFi+bzPD3cMsKMerh0YR9hbelPT6kXA0CBptd6JXM7leG4a9euZtOja5tZc7ZBV4SjmXtWYbjx+fPPP8M6vyMIy7dpH4WE0NAyV0lYyUtB6rIg8WLfoiKAgzSpgDADVjjogcgPGmXOc5YFj0sJX3noYfnK+NKaLfICb5mD5DJh54J556ksC/neeztQhhh3wOXZZ3+AgCIUCa/0MZe4fGAZOPohwv1Sc5k55S++2k84bgR4zkPx6xladIUcCBReFxskuLTD9Y0+37D+gQP78faPNk/efJzns2MUvKBHuIB1zhs3PYwnvJeo0lmUnLx7F4+G4iMYvx41t2ciEfOk4Nwh2q5zaVF4CNj2WSpSJAmGikrQ+V7m0qFlx50Qcoec5d87zmMDFddjO91gGNojS7Pon2tjLWQi3ZhQJT2KGqcbNG6sDsYZzpUnrGxRKdtPxAHtV8SBh3zv4elSqI4FONFuGaYl7+ybY7d+8CGiOfv2HWzmzzVZbwEw5VnQjIapWesaIUZdJqApSx5++slncSKcOhMe9qcPmjGB3XulM1WhdGkUoEMd973z8XsP+pR+8SPgCvvwLv6lRfEKUQOD8rbffec9QrKLcVBcR4oxLIzAoSHeeRi+0hQ3oSinp4TsWTYfuIEhpkEjbEyySuITbbuNp7BUVo9SGWyCyIKGjElPTrFZOlNH6smnHm9e2f5CMqfdNs8Ik46UHXYqw5rJ7tzkNnrKWqcnu0l4Uyf4LyqVPhV+xFG9Ag4GXE5Th5C+AaPvO/eNC773y/cqVp/qv28fdhCqcCz85x+ffSWLkk4bthJwrQBo749C8YuDQRu7Nq+sJEOmnINZI0SwnCS6GQjDpcvmIhBqrmr5wNJk+crgpnU//fQPsnb15z//VwC6HwBTMIA2iiIMGZq16VzGtSC0v19hbbGJ/mZw2XKsnlfwqJ4IwezZswdL59N4xm44PAFju9QiViBMZrvOB6koDYvwkTFItDKOISYkmeQMHDQeXGoRT4TnTY917TozQ1BQv1fSTghVYPyBw7ZiHfs78Mx3rm+Jwe++/G4/Oh/SRwlJ3JXgQZHH++YSuikMbDoVgjq3eq//YiTksz9wjeMgoUh86mmKLy16hZsp9KbS32T+8tjRk83bb+9g38+1qWc6I6FSPZeuxlCpFuY55uI+/PBjlJXLA7y3CnpIFxofbm69N3NOm1DO7rFp8Qi8VhI7tr/6UnN+5Fwzgbdk4sTIyFnado0mqf70A7GDEnG+3rmZAoXC11DffIrTb31iC1uo/W0W5avcnIMz/K/i3L9vPxsI7CEp4yyI0RustXd6jVecc1cYEJISx9LJrl1rUrd1HrVRTcIQqC40f4xwnmtJ49kePY4BcJGM2JGEZU1a6wUWGgHiyxCz3KMS1RhU6Jow5++Oye/lUZeQvQvdKJw9NEgqlFahX41QZZ7tmfSnEqk5UkpO4lkqIC9fGW127NjB3CalDAHqtm0qwc44EcCrV6+k5vOr4eHef30DQ+gz+oCRCx05NWLUR+XSBU8p7NzJSG/Wtc7nzp0npPl5s43oxPoN6wI/u2PFsW0UQThz9gwwuYZwPdjcYqxXr9I/PHk6G3rSKBbWRjOkM5OOjAbYcSvruKXgfFYXaPBcwvM+xX66NwjHmw/RjfFSwpOwtXTrCziowAWXXgxql2cJF3ulgnN+b1p23ZHOzp/HEGNsRjiEiR7/VZIluxmbQtuQt/zi+l9pTJ6T54v/6KbfA//6zEPyjOBIwwlZVv0qvpPeneC6FcOdfI9jJ5sd7+5shlauTvlTr02YEhpoy3yOMQ9+5swlFPB+plWoOy5O8MZ8ly7lZQ3BJGvRf4QQ/Xfc0kT70pQDHrxxpj7Td+WahknkM32DfQJDB63Bxx9P1Jj54Lhc53wUGn/zzbeZE14QY20u2y5Oj3NEBAC3dilbF+p1L1++jFoCHzT/9ua/ZbrEpY5ToOdaG+8aar13i5/YT+kdA44+SgfiZM2aQZb0rWue+sETeRkFcdqkLcYj/xtWP0yezZtvvkPxjU+CeyM71zJ/D/zBv0fGDWx814Dzk/JaqvlDBz//u4/vV6w0V124r10eEoXBLy2xtL+asmyY5jauedbt8V2keb1IIvJbRwheJpDIVVqGF0wawUJEaUnsK/BI1z+8jvnPITIrWRaDcBtYvpTkkwHaMGN0GjtCbI4yVRD29b2R9VWumXMe5SaFB4xsaHl24fMb/jHUplBZsXKwefGHzzcvvPBC5mpPkyTwwQc7mZM9CILJEIZAx2AgglL0TyZQmSjUJDBDWSCDV2rXgrCaGxAxQIvxKnh0cGU4bzGc6JyKx/1IKhGQ09/5U0zL/XKBhx/9Q3synYztAfjyWz77nd+mIFxzRLnWx7qI+9OQ/eRT2zZn7Uvu7Vyu0vd3FY+/SXxWSBJfMqDzWWZ6Kqz87Lzqx7s+RUC/HUZaDlO5BMYkBZngh3hzJ0+dyN61Fy9eQYCTuIAw0EPsB79TmHt0naiZ209sPZTdhxI65H6zX01geu217YhId1NZ0Bz7uhRXihrwnHGE7BR4U6UqPvRmTY5RgW/avD73akFbKFwrN33n+YcJ///qV7/Gq6qM8R7mbO8ikHx56E1OJfluGv1zE3Xnl95//8NmaGiIfYG3d2ChRT81Fbaee865sS62IHyPYve72ft0BLpTaGg0mqmKwIO+VCQMDXq3hvItllwMNo8+thk6vxWrO/NSwN8MeOndOeky3sSxuBOHIQp+D1Y5zzl4DU7jjIoE2kMxTJ3JZzxLE5WcD898P8r36R881XSTtaxXoxDasGFtDJwpGAA+8zAJYypE5xyRpfTd5BgELx6GUYyWtxVQbnC/490P8LIW4MUsidBT8S0jo/snr/2YPrlzzVtJALNu8aXR88GBNJYqaIYgWf+qt2U2rQbZPJZFrVnjNmmbwf9gvE83z7Dq0s0beL8qNwS/hoZyR3CYZZrlP0a94AMNdGnT8qS1vhLIMFaTKs02t90TKGrno3V8XF7mBiKGJZ0znEKBA8/Jb4aLzYxWnijTNDRBxbcOOyGOip/kG68bJ4RsG563frT4UawLWxMwd76/q/nhc8+Hrtx0wKidhlWfBijwdt790KFDKNYDiUC4REu5N9VABu3yP7DTky5jolUW9Ifn3HvxZLvIS3jlaH/OaOyVfKvHDt3A74Fr591zlmbEccewuYQh/CVGl9HBnuZZeNxaANKn9CQgNIh0XqyOZN14izmcJCp4C8NID9NkVUslOi8vT1oYJPWngbl5Me6jvWnzJrZB3NQ8vH4N8noJst+lP04dIp+gyREK/RxDyf8rpVbd7UzeMbzsEhunVeThyLpJeVhY829AoKLt/DbJVwWZ/BVn/97jexXr9z3EB+Q8XcoDeaaMoJSQAHzdAVgi28luPREFibpVbBYu7WjNtSTEABMbEjCsKBBWrhxofrz95eY5MsvWrVuDJWtJPBgDYem8k8JdBnSeb/XqVXgi/wsIXNC88cYb2e/w3Fkn9Zl3g/AsZaeHNHuWIa/FTHwPsQzk2ea5Z55rVq8cwiLqRrheIcQyDKG4JswybxSZJmyW+V28NQmxVFV5Gwp8FY/MpXLId4CvkGxx4G9lIRtuBA68wlg8wTBPhOIkZoXqvSMwgpon4S/iDWUF+TAssG0ZV70aQRclWZZuirfzXSaQdLRmfRX06yyNp/8tydzfb58bTxWhZDJABB3CoQSe85h6bypeQ5aWNDRKYHLZGQj73WzEPH/OHAwklllhkGi9Wv5wKztz7GO+7b33Pso6y6T9B47OqePNQ0efsTvOhx9+wlaDyzO/mhCk+Ab/elXz/re/j6DVwt+9+zOWTem9mDmOh4QgppusRR2BSfuaVatWEZ59LlupSVMLFsyPQTZrZoWNho8fb96FEXfu/ChTAIYas4wFOI8D4+soBvvVy/kpeM9mfushfMJz3Vhh48ZHoJPagSWGJNJm9eo13GNNWOkBbwTF7TZ1tuU6XfspvlRcrg3txkAcGHio2b59e/PKq6+Q8EHfp73RvPX2DhRI7Sts+FHr/B6Dh0Joowwew5hQBN9V1IYdzVmoueXwCfRmFq6Rm+PDZ1CAHzYz2K1nFksYHkVgGcGxbZeFWPnn1Vd/BI3dpib0b5pP2eNYejUSUDyqwHYNayUwKdw0MI8ePYVH/BH8+ggwtmjGTPjGuVBC8KuHmldeuYuStaLQl6kWtH//AXgHGADfacxTK/gMwfaj6L1nLmVE12BUu5vL008/DS5Xko06TATgMgbcJ+nDNIQnTh1jxWsTFvCYtFsJkBolbsDRRRThbLzcmf0ruEpz2TD5HAz39ewGRPIWST/79uEFUj3K9dVWqeql6AdAT1vOI9s/mka+FV+qLEUmpEmLJRP9FL4UERxG7MR3buSDy0mUAdORLRop/ubeqbduXoF3zqOk9jYb1q9j7nAlN3XTn5IxGlS25e5b5gFojE6bNovfK6qGyKSrLvczaZRpEeBgX0yeiwblrHIgr/SHjzmKjuyz/ZLX4WzoR5w6TgfHDXp2DF58Kgul+S4Mji6mFW4xtbN7954ozenI5iee6G4WLnLtOSs8NJJoU75av/5h+G8B49uQPIVTx0/CF1fhu9PNMB67/XbdtYp3PrJi4aK58MXS0M5Ky6diEE+HV3SM5B2NVFebXL0yTgTrUCqJ/er137B2/nAUqisNlFFKPYcgj/herw63RIaJHsbK70pM77jHZx0w/QVv36tY/1B7KhXXd4qrMCRICfDTeX4LPvidI94q73WuwieOTotGxeu8SpKAsDw1PN002eowr772SvMIHqu/i81phMlEvspOBpfYXB4xd87CzBH95CevpUj1seEj2fD31MkzsYhErEBbTOH+x7duIVS1hjmBh5rFCxdDgCpsGJ4kC5NaLlw6RwarDK/HMxPE34CRr3INA5Wx6KDztoZnimn0ZIs4+RBYBCkhwvpeSKtQqv0XTjna++rb9/61Lf9NoY/eO4VXvPxcbTu+RIJvRfxa7xKT5xUGmcvl3e8qel+ALm1mDPmNnztHQlBcI5nZcM2V+935KuczxNl0mBuLEwNKg8f5LJcs6D1+xTzlG7/+dbN00eJm8xZL6pn9OUYIf0YyZ0dIQtu/n2SXkSPQAFnjLDGwH9rv1tU9cuRE8z6KdxVGj9WR5rEMwfWCVsCag7KeRzGGpUuWIMAfxgs9k2QOce08YsKphGRnMtfqXqQPLVoSQ8xEI0timhSTuS7GZyj7EHNbP//F69kdxEpJ+ADMExF+NkxJnxRgXcwnmhhzlzEYcjSpbZQayCpXLeQfT7wM7WyIstSDM3S5fPlg89qP/waP8JnmzKnjKJ2jHU/tbAS14xIvvi9ZvITqO0vY6HprM5u5x7feepexXAidK0iEuzj/9uF58ZN/0knIwbPQLkJN/LWRhZsI3buG1xjLdQT6sa+N0HyCALPowPRUztKAkRQ0SKz52v13r8G7CHfwrOfq3LXLxjQgDOGpUO2/9ORcmWHvne9/DI6siz2HiMN66I8kNYwJ8bFu3eoIxw2PrIEPNzdWxdEQc7s9eVkvUpkwn/Cxy+mc9x0cWJ4Ig3ONcwhhm5FtaDJTMBjMdIF7nEfEeAZf3fRN+uxirEatUNWErG8QIjyCwD3EsqNlMaRvZ222RsRKjIhXEfqPsOaRalXkCpxnvn0RsuEhPCwTn9xt5jOSb1wzazlT51nHWfohnJ3PLCFc2JDXw5/gS/YOTsCSmMoBjswOFm+W39QZyfwg1oFLbz74cBdz0huiUDRmMl1CQ9KhZfkOH3Y9PkoIuOqV3uAeN0ywDTP09VbFo4bgON5uDIw8veRB2xONLsnFo5VfyvRM89BG5EdkCrEP+utYNKbbcpZGFa8zdy+Nyb8Wd3kbQ/AihuBVdtt5AWMl+2+Dm0SdUGAeS+BbS39uYvnQldGLjIv5b/jQMC6YjKJU3utAORc+G5kxi93BprlGnD5owAtv+2zI3iVyx0nmem/Hh80vfv5G4wYBRsJc027kx0iM13lz4cnx2hMOutTCoE7wl9+K1b7zCz/xY3vv5A1/+sMfVKxth+5vIkKeHuqd+kA7a1cihCHwdIATeirt/SXUnZPhepDou5Z4LBDu1+rUCnTrpJdffinM7qR3kj241ifYlkJ4eHg486EHDhzBO3oKxtiYvR8XLtrSbGBt1SOPbIDRzwewhm8Mp5lFuooi1s63KYCd95AxJbHFTL5b7nBgxbKsDXNdqlbbKBVdLM3ma/jocIhfQjGpIgSJMquEC4tWEO6FKII4+imja1TYvvN5NzOPJlEAJwS1iUDfj6h7Y1XJiWnb6EKB4TdMoqGUJk0Am1zGpYaduhF+Yyw/kTnED7qE50lcrM1EUMogHsigEgwdGMQAog3DuobXXFStVWgnE0oRb4xH3GvZcmkWu8fKpU3hYdtXSH756MOPmkfWrU/VrcEVSwNvjSF3wHBDZ18KsLPnRqOkDSVWWIg5d56/m8xU5yBN5DGLdcnyRY4mgt/iDCaCWepwzZq1hGYvRjgrfKQhBZ9RDYWzISs9DOfGnKao6kAueL/ZvI0C++Uv3mA5yn76LlzwrGkD8Y7XKoRQRAh6BZieqvCfQciL3B0W4t+Ipf2Ln/+Ke26RWHeVMNU6QtQL4zHqJbhWduXKpc34+lXMQa4n2WQknqu4qjlBl+t0cc8irP3ZZBbPoniGtEoUIHRUc40qchVkCmeYkZqjfZdvMGzoq3Or4moMGIiTmmPlYTxDvGlATqUIxHQ8HZOuXFqmMNIzmT2LOtxrltMv7oduEbHJFn7pJZZMEKa8evXX8fqEj3iXho1COU7XIfosjU8LHnyyey/t/TK0/9hjD4f3kpxouH+Knsg8pnOWZs7bhKZrTN1IZ4EJvGV2ud6qnotLoqQrFZg8M0oZ0wss7dFAUkE5fdSPEJYnralc85L2TbzhLdG3m0QKzPbfw7KWLYQUXRftHJ7ecR9zcyvZFcXX+g0bmuMx0K4gKxYwH97XHNh/mKUtB2m3QuUqmXEMDXnAlQvCIl4RsLWf0nHkHT9oZDkl4SHO+bH4kb777ISIgaF8KK3pMBwlefLI4SNkcl+CLuZFtihHRlFYJs3ZF+fjVRbSpRm1JoSKe5/HA8ODtpjnKX/AS45cx6V8kQ88Ilfga3lfnKafnPezckWeaYvM5HphzK1Gc0qul4LrmjIDPryQBEZx6TKgrY9vpVTj2sjbPIl77bPTYhoMSxaZAe2yKcPeRljSIQyf0ifqEvEESUfOVN90DnSubiUZzoSvXR/tad55aycJdEeAAQlwtG0UUbi2sLURjQ75rfBUvAJV1UP53fH4jBqXULr/ECD5f//JB/rc3cJfIOTwIX4uFd45RescWv2xYEQW/9tSa9UxfmMALg1QsdrbQlynZ512BZzyIAeKLqFjXHtDBZthAOdQJUATPnyGMXiVsUx64vhw8/vf/q55h0Lin3z8GeupXiBs/DyWDQp0/iyE6qIIVhWJwnmcRAj3NRy9dB5BOArDzmz6+1hwDSJElIyoh7PhkfVcpxcmwyBAYSK9mo8+2IUgfgdvbH+EgGncKlQJ0HlH23BJjcsGPBRsCjjb9XMlT1nrUnVXSE5FpwjEDrwdpAfM6ad4KTCs1nyQDhGE4PkjU4ZAIHxholduH9SiCjyZ0fuAVogtZcDI7nSzcZWIT4jnCkMmgSnILwGscppKQhL6KfjnEbFaRYLjM7zj0hGf1zKkCpye5jfDxVrVb75pHdSFzey5L0VZ6O3LWAMDeHOv/Rhhfat5+52d9FUjRkWgNUqYiYSi86xX/f2b78BQCBWW0zzx1GPNzNlUpGHN2jSMJPuswjHkZTbuMmoWCw/HJPxqblcYGhZUEEpDt7PmWaPs9JlzzT/93/8cK9ts8W4UjstiFAqWBTTEZr/EX0UAzCYHPihaJYuFFqw0ZHWvGyRYnDl3ljWiL2LQPZI5xVKGGiHlAep5uXxC5lbRqaCc+7yBta5S0PDTmDM6oiKIMQkw4iFADJpJ4sEsSQ+XlxgpsLnsbgP/SBP+Ko7st+UZpQGNVw0EEwUVYEYJuslQttLU3i8OMBZLMs5unh97plk1NIBgAk/A0X6tX7+2+bu//Rv6OwE+32mOIPjbuTBhbdTCLRXvuqMQfGNCi2sIf/7zX9A3n/efMv0yF6Nh1mzC7PRFeKqgrAOt8SPe2mkV4SUNmLCid6KycfQu8ncp3d7PWfT/9dcoE2CBEnF/UM1OrxdWN8G1BtxU6NlomNMHmMDMoZ7CG/yoeZgox6bNG1Hsy0IPXUwVOU4uIe9ioFlMXkDBaGozOnI9RfKNwnjYb8tIXidLW+Gf3YTgXw1CI1guD1TJxRgWZ/ClvGnbGiryYnZOYYDyp+FRf3aaKkoSa+7c+ZHmk0/3EunZTE3zJxIdMzx/iZyEHTt2oli/jnwylGzuh8maGjTSeNbeQpvCsNYKY1AyNg0/4aXMVuEo18ah88gNflAWCEtpxD7bX3ECteddovJ+Wqh3+m+IWDmsEX4dGp4Nb/YjNy4jF//tzfdwRI43X790vHnllR9BQ+sSJp7FNd4zxrORWNgCGh4atDStUZg8GGUN7SILkoRK/+V1C5hIb2bIuzJEQ8mynSasfoz8P0n1vT5WgQgPHRw91W7o3ChLDFJxIM1kTCXnOMVRf/2tFCvA+yOH1907ygC49/37P8FrGaFwzEPsicJSIDgogWsIImEIiNhfREpeIkKEQEBm6U0hdHeb8oYqX2vr0iLnVIrczzeVzVQmpntJu7b6TS+I1buYTlhhHKFj2r8bhBsOMe36DnsTigStmrv8uW3oBya+hDX9wcgHzVd79zc//R//QthwTrOYpRqDCG8TV+hOFPYomZkjI2ewji8xBzaYeZsfPv+jZsGiZWF2QxsuO6CTZFHqPVEJitCz6yTnUWJr/doVzQ+f3cpC+zcijD/fex5GLsIbJTzlVkl9MJsF023DTMopjMnMYEAFQVymTTdC19LlREehqfBcm1aHkOR24c59qio/C1N/kNRjlfqZZ/gcz0YY8VuIH6aJ9c8jrH+sZadgSSQB4Xftxt3my33HmrkLHoIAxbdhtYaQ+mi8c5WfSs61tuPMUbse0PYUHgprGdIepX8I+busL3ZZi4k1FmIwgUGhdvnKjea9D3c205nXdpPstWvXch2WOsLXuZehVWubZ595luU1ZzNnJNMaQtXWUrHJTDeRAL97691mzxd78QaHmiEyA7dS0WVw2WC8PL1DEx1SNUfBkDFrhAheBZ5Mf4351ovMr51JBOMrGPGLL/ZRLWo/c7PnudaxIKQalo80REekdZJBpNteM14dK2N3ykBwVwUhBD/PnUOixU0qdx3+mrkiQlmu0V3NXNAzzzzVrF61KvRryHoG4VLrWcdQoo1uGCUeFs9wScmlS5RkRAkePXo8sDC56Cs2rh5n7a31l0068jrASOk9AMRxjXJ4x74+3Hz5+Uo83fnwlWHcnuYs83QToTEEFsJeYa5XI95ci6FFP6ESRChbWF+4f7Sb5Uusy/1i3xfNqz9+kcjPYBSFuLKykeuMX3zx+ShXw6rOV1pVytstg0jWWbyQnh4zsF0WdxlaOtf89Kf/A0X4IUbyhiyLGxpajTKdmxBhJfPpvRhJgQpjGCBoUU6Gji9iAJ89fwr6OIfHfDFzaIcPD+PNHScj9ih8Yea2pfTgCeSC28UZRVJpmJjVwzjvwsMmpPjM6zcuN3tQyv/4f/yfTEc8lSmJdQ+zReTgEuSLa6DN1iZSgCyyKJbK9RoFQawvbs1w+VjIa/wBWHhE5TgFr+kCeDvJnCO0QpU2vcNT586Q7Ws2NXyDnHOph6sLQD14tBX6DF4k1KKJWteJiQ59jTQff/olMuxdyhISxcBzV1bu33cAvh1uRkZNgnN5ELLKjjI+ZUIUs1EX+ICTPom/ymwomufcwBA+ypzmHqIzA6PLHEIiQkYMTjKddhXjkqbApzIBmQU89b7to4Z4fbZN6Ugge5XKkYQ25MwlIjbuAGUhFQ3DU8MXmzd++Xvo+EAzNLSicbs7k/NWDC5n447F8ANRGHDkZLfOl3zsM4WPOQJZJ43naZRCw/HooZMYHHtSGOMz5phP2W+qTtkRDeBejHGNGjfi0OCY1kcJxSiLWlInP3sou0AtQ3Acjk38aFRoBPMbY8k0J1fefyh7xVsM9/zGGU89wAFZdI5IJtHiGcmhlGf9Wt/bz3a0rvFaXp1GtJ6tP9tanYbptMpVLB4CTOvVtaKW6pIgjLMrBIaPHSfDazhzLJlXpfBzDUqha4r2DSrgnElZL4tC96J8LzHndYHQ4pTDXIrlk36AdS1EX7dIPnDpwF0W2S9YMBvP9RLIXt/0z3Q/URNsJB6UYcZKEwBN4W7VDw2Gvj6KH8x/HKFAOjlEcO7sOZQ/z+NHwxoz+qlliSHgvIAC2PMmG2kFaSmaHdlWpkkYB+GmsjJ5x/DEvUMAdmDKx+jpfPcK8eDf+r3eGWrnGbX1GoSGkivc6bkpWPUUOZ8C2heaX7KU4sjXh2Bawpok5NjiCZjuCyxAE2y8XgJ3PZlp7CrUQluHDny8hwPlUChVlikaibE4/6p3d/nyBZJUPkBpjKFYawmGSUbWhnWvUJeljDHHouBw7s4KXWY+6i2alNCL4LxJYsTXzJsMDx9rFu6Z2+z68GMSztbE6x0aGkpWp/Ouzqt5GHJ3qsDQqcx5BsF48BCb2bN93RHn9Eh0uk4Y2EiElaPccvAuSkv4SGMFNz8VjH1PMhPGXeaBkUhmmSvIvMrlRjfxmk7R7gjexldf7styoVV4Py41WLN6dTO4fCWFKQgtMka9hFjGsIHhU9fPjoxcIQR4nK349hIdOQhtnw4vOHfl7jSCWeHPX8YEjDlOIVTeIev41JkRoi9zY6xomJrBe+DAgcwvablrqMjOCQPjCVjrWdl4FzxJdmLUsODhI1TFYnmJgt0EMadqpFmN6CWL8e4QYKPsEqVgUfCYVW1kRBWh4NY7LAWuQVNKZgT++IgktAPMbZrcMrRqCMG6gizclfFU3QXJPZOFa1t8QsF+Fo/k6PBhah3vz/IJ59BOnKAWMWHmri6UCi+XLjn/ay1lYaqHJh0pZKVdd1ly6Z4wc6meyvcilbU+3YN3c+oUynlf1kNu3Pgwc++uqTWkanY7SgPcXqG6kYp8585dCfmbrd7HemUNCb0us/5HRi5jZL+fvZj7ybpOkiQGzCG8SnFq5EWDqCI1wA1kRAlKWzJyDrm4aCLyB3iLf6MDGhjCR5o2tGr2uvjQMyv6a9upxupc4TR4Zjyi25wQo3Af7/40kSaXvpgxb6TtkvO2VKcbGbkY3Nq16ly1WV/pYR7luxTT4Xl4DPMicNO4NVLShSzs6zXJ7yZGxzkUIMUs9nwCLHpY2jQ/We9bHt1MqN8IRj+eLLKA+tLWA9f4lGfEoziUvkzG8uGHDh9s/vd//MfQqVvWTddpAhZdGOFmRuupKrec6rjLtJdZxhpa4hQqiZwFbeGFGDOBPQaEvMznLmS956VFp03iwOSa9k8g0X75s96hRB/hA6oD3h1kMQCfrvckg6m981HOjIDhoem0SkRirg5rMVhf9epVCm5j2ZuSbUMKFi0EkWX41AL9hkVMFDIBRUZ0PmRgcLBZxc4p05iMd55MgJuWbjj2412fEw44SXOk8FP42X7A73hZzLPh/qenKhX6mMQIkjaczNbrtQrHSbwVt82qOREZseZDY/EpPLCerF9p/F/C9loLTqxePQRDPpks0g9JNLhO0YTp1gYGa1o+dfj0ekmIIkshVWsTVdjCSDgGaAXCzp05592xRulH2lHx2t53j2JGhD8/x1uEuAzT2n+FlPOUbZ1mw9Hnz18gaeVD5mt2MmYUJ16rBGy2quE2iXXGjNmBkxaceJbIg2/7INLsd/6qdop5w3BROBVmcsyWyRs+dgbl8Q4KdnfGG1yY0AAzaJQJWwWlbSZciycSowxv4CZhJhMz7P/Fi3icrOEbYb3hvi++jnHjHrcKZ40zPcAKSxedWDj/EorAuVEVRxk2KF2UmRWGsgQFC9uKLcJaL1oPJMjQmslRISncxHjkKhQFgV4AMRNowsIFeOAWiKAizG28lKsotn1fHWE+/kS8Pvs2j+UnLhtp60ULT0N3GhEuC7jOzjKGNJ1eKLxZ+o2NAVAcrl1UQFgkJR5Rp2s3z19prlz7jEIOh0pwIxhU8uLM+WPDwBoqKlSNq6BN/OV++I8T8qAVcKbHo72eijWvY3QpBPUmyuAz5GlIjX4gnKVhlRnDDl+higIpcaeC0yM2JCl9G9Iz4jV66RYFDQ6wHOcwhgyF+ElE6gcuGkNW63GJhcabhqeVmJQX4u0a0Qa9FaMhJsn1slVcD1MZ/WTRZg6NPlWWMsqL8diGazF1RiKY4YXyQjUUSeYCr553KuAcXuXu3bsy52+5QOfOdb8SVqfvGoMqnTMY0FbtshykO1LF5MJZFCfnz1mj/C36b1U1ZZ+RBSIt4FV8JixJf+Up4ZdoFTAvHARsnT9t6HM8Rj5WDfLpNOH0X6a/tqkxXiFnpppkxjBkRz50aKIa4xxkXLKa3gIDI4Ly/qFDR2IEGBkymVCDGHAAl1KwXisf3nt1uvedN2QaBkTkAtdLp7YTow+6kH3kWWlOw135bSLZIapLHT9xguzd90IXM5hzN8FJ+E+HLh57dEvzd3/3t+QmLAs+5dvQIO0YXZu/cE5z8rS6wHHxDOiG+B9tK2MLCJVU6nxt0cR0jEvp0jHZHz9B/fkrLj2j8cl/+LpkEJTLT1751zm6VXg5eCu8tT25jxiCNTvEwWcJ2h7XvRIuAl3FiqRXAFnSytCQirXCCBlimF2mVJGZqDEdL6enmywzAGT4x0XHDtSKPRseXkOiEXsVYnF+8skeMkY/IK5u9R2yQPH8blLc3VBXMiERllpPmXNkHFp4zr9MgfBNENFrdZec/ulzmIt1Sy1KazlXhbKTQBy3aybNANSauc31CjQTKWQ8hY67djz22BbS8/chBNh/E6Wtt2pCTZAISLI0QhSi2GUMPbNaX1ZeVbxLlEvNyRQ4hYzKxsO/gjreDWf5xDnR7+dvHj4jO5zw7vWiRCEjbiR+Qy1azf6gpW8Wpla8xQisO6qVbh/FxXSsbA0I9GK8plvAQsUzFeXrRtJcVl1IN+2TzxDXeJ2E0owoSAMS9pzZC2Mw6UFfxLq/hVehQrVvExMU2WaAEa4YVwqdG+DRcynaAFM5fzNrlmv4nDMkMxvmlNFuoWwuX7kEk52PNa5xZpsqc8fruB2zkQIFksZUvCvhQ3g38SuEiQrdUKkC1/HmPIqgoJ8B8pvGmfNnLpWqOWTnx5zLnoJ1nGkP7nCtnOsdnZ8UT15iKNqNH06zd7BJGEmYi/El43M9nKKysu5w7mUcwtAQn16w7C4uFEzC1RCctWo9hIVG5OgoJeJUPDxLy93r+/HCZ87Q0LCoCjBz6oEjtMTtjiyKFeEhrWjsWFfYHUVMBtKIvIOHrKHiUpWJ2zwD+nXpmtMlRiMU6cI13lhozAxUBR4Qpa+Gae2/dXsNj4pLvb7rKKwLeHO2Lb3JBwrV8jidV6tIiYLSucOaj63nuoSHn6PoSt44l8jYMeCjoPGWnEZQFpiwKP6n0n8VnYpY2jaJbWJc5WQ5xcvxDs+euRA8228NGeHv863V7PykO/bI22YSyyvFV8o8ZY/8gQFLpMrM+HjNlFiUbpRN2UREAQ5/xFPiuXJ5y+fixUMeztJAPjvGLOvC0HCtrbi9xvpeFcDMmc6tgrdWBNtWkQR31gfbbw95AkDwVbzII+yqQ2TQa53+sr/CVU/PaakIHYkiVFI80Lbbtuk1VY9Z/nKs0D/8fpNXFzyiTJCO7afz0MpjI1rTeLYRKCOLwmLkwm0iL2cJcx9EftxhuuZ0oi+vvPIysnluxm0RD3G9adP65r/+138gu7wf+f9hIgJXKHjSg7GV0prwsdN30q58rdEgz+tYyLeRC46Jzkr79tnRZacvYRjBpuwAsAGuv95/CFPh+OcfHakpwdAo7Yiw9kFaQEUO/laeSnWNB/Gbv4vrKQwIXuGlW67QvR3FqgehBxuGYkgyoGFQBx6Cj7WtFWI4cJxw2lcRGsPDJ5uN69dTVLobb3WERfyfx6M9Qnjwzh3XtLqbhoIIxR1kqiBoHwHklmHj9Msd7nv0eFESWr4z+slMXLgMJM0JY5uc4LynyHCyW6B7fw9zwBW+dZf6GRC35be4n4zTLVs2kUzwHuGOkwib7hREcD7EexNSMAQEgiy6LTwN+2Wei7HTpQ4s/QCyeCtYcnO+8C5yPZ9XB6HxpHKxN+SQIO5gAESZKExgJAWKISSVu2sufW7CJIwv4VaulyG07uxM6p/Sz/L4MASwAA2DKxAVADKFAnDyyXaTQwZywCoI5w1r/pz+8Pzbhu8RLM5N6sEQaYOgXXfsvJjGjJ6YnnVlqt4iS1Um97vr42iNJxjiv0q/MAjYhrCvl9q0KCgNIYoLggsUEv9c6+ca2jYErvfqBgp6Ws77JBsQz0ydpdJTgEbwgZcIKeCqV6S3Qy8DE6/MAR60nFXeIsOyjsK3i1J6lpOzbxPxKBEo9N0KWypCoxK38TItNqLAUlg6d93NHKn9D1/RniFL13kr2AzdmhSTcGRwTfQBj805Wtdaj1MjWbh5aOhYwMKCFVMZZ2+vxoG4LIWqAeEzzOpUaMf6p6+OwX9mpItvhYVRA6MLrt0UXk6/tMaJ8JhCzW/7qeHq1IBj0S2JYgX/zm+KN/4HnnrNGgYaINKn4dteyhzajnjyWgWp+QvXKMIwetnpB71nFbJGhNurmYCnYocPO5GgcTPdcx8eJDDTa1TAW/TBsUp3WYoDXpOsx7XSiAaNsPVIUg+4Fe/SZV+fVa6EqZnNZCMYAYthKT6VU0SCyI5HRfC8Mpjkce+1RGbtvMN3aIphg3dC5BknsKA/RkRaY8jnZ6cklG7g6onJw2eV16+xMBUeWMQ6TqNgVvGCesCvOIUPA2dvFJPtcd+nfBRJhRPp2m3+lHH2XaWnUnXumIQVYEMYFZlgn6ShSeXK+L3Be2zr/qNoRzgyJuQLzXFvXeFvesFGRHxBAUW3RIq6oQOnBL3R6Q2na8AiY79LMtJ+vPRf5d4XXngu5Sa1CZRpJkH+6OXns2zLJU+v/+p3RB0ugVAMQMYHlaTvyiJhJd4Mw+tFyzLKiYR40RUmuQlHadwpD9drGzIuUcxgM27buf8QPv++w97lkKDSlYKoPJROFfPYAR5CR4xOq/0VqFnTCgFnCQnnvVUvsAQowCPmDhogFADNYGQIFZmC1hqRhg54CEzCnALKy/VJZlwaPvgNnqb7LDo/51yMAlQm6++fQ5x+Hs9xIT9KEyGk5S1iVSo0l75bozVhLNe/wjwmvcydt4ghyLgORcEtIO2h/db697uEqTer9WymbBkK/rZ4yeKEgBSWKnLnXvVavaeyL832bPtiejieMtlzLUJBewh9jDCTswD2Q4GiQeLzNEjsj8Su16XF76Egb48Iks4X4R2FBix8936vrSUmeg4KuN7AWqJzD1Nh7GczOWV+Q3dRWhGU3IuwMGSqUjakKC6TxOAzeWD1BCLlqzBQuGngODfrfQqjy5cV/M6fzokwrb7xUMarcJJp9GT9LKw1vqLkuMe5bAWjGYJ+FjYWJVDZW4+2h4LqAk4BLnz6CA2pAH1Gq6THx2Vq+jdW45GBxXsiBcBEuDk+hbf0HYVnsx24es6LooCBp9eiVnm+SrXoTKGiAO1FGajQ3bPSzFnh596SMr4tOr6a07FMnSFLowngmXvMSPbcdQqUiH+Vts+IRws/yEsaSEmOozWbFA4aIc6hKVD00sTRNfCq0IiSUgFzveMSY4U/x6Ry05sso0xBqEIUVvHEobkJ1hU5XsNwU6fKB9JR57mc11v1OehD2iq+9vlRAPQnggu60HP2s0luGggllIEZgBOfwZ3RHq4p41uhPL3py/yZEQM2oCfidZUQN0Ckj3rupSxVsGUQ+9zqo8/zVdEg2lQuACOfpRGhcSXd6zF7r0dCwISz3cvWJC8jFE7vWCEpcoLxKFCkH8cSo4J29NTccLsUE6867dwAAEAASURBVLQRcsETBzYa5yr1VlA7DhrhZRtipT2gL+BunV2VDq2nbzocwmYWa4IlQ70xx6VRrPL1SJPBcNvW/e9FAypS+3mN9aXCSBxEZoMz+Shz1iSBGXVxOsNxSlvVtg/h4Z3u2o+whOPLgPxBg1EagS6BnTQjjn2WvK2spknOYWBpBPHvdrLa+Q0jXhxOJ9rgtOEH5FAAnPTx2eeezdKo5E8QOXQJnRt6GJXQu9/5wW6W611kbTNOG2Cu0Lv0IF/JC+JZ2qMvwHeqNO4HIg0e6iDHqJFXh/wkjxRNdE5OvjlSfuZ+/kwCZ/Lnb3y4D3pEW/2JmwqobeMSB2cCWDpAZznjhRFGCm6tsDAohOaDQ/icF6FZa2ZIBevSRkLINF2KQ2BQYYX1iK6jk6mz7REDF0h5Dv1xLen4mBtHG25kkpz5jl6SiuyXykFido4sggSim0BguJmwwLarChD1ZC+WaDfCQi/O0omx/hAmLi4njZDvWrcqID1VK61Yp9S5N5iH73e411CbY7yGBy4h6Jn43RJcjtfPPVJYQo0QGCfMqjXr02UdEqUWl/OZht1Umt4kIShUtLwMPQZznDekLWOXMKJxG8iwCgv5wh+Z3X77swTlMgUVkeFB597sg0LPaIBK0mxPvb949zSrp8Mb4Zza5cPn63lJZMLXe2Wk0EL70LwXvah49HBhCcL6KBRCWNevWcsVODIGl784VqthXWU+1/HEUIGoFcQKC8N0dkKvRLgaRlLQTNzQcCIkD1zKkJEG9U6KNm3LcJZeuobX9WtXUTZ6HtAQSktvTWPO0GLxEAMCXr6kdeEhnfjwSaYSkLlEPgBu4EejMTSGkHUZkNnpXJJx6amGmYD9ZFg8Aqa8YJlXpq4lKNCTudr0W35TwU7wbpa5BfNVyNNQ9JnSQNj7rKnQvcl+WuEe7bs0DKiCm0rckPb1vqvtCDjaz7ho3xFzd17SiaHi2SR/2Q/X2XpuJriTnsyWdnNzj8x/019+LlDRkpnvPdCEHlFZ/OKD3znvdYkUQD+G6fWa6WSmVkzKUV643tCokTAsIwOjSUETmtNUKHzdZSxGWvqdU0OpGmHy3THJc9KliUPSqLSjodVFH2YwF2ti46mzpzKXbRWwmTNUUsoReQy6kofpS+boUb4a64aDpa8eeELlbLRJltaLjsxgkCqqMpSIusFjE+BJGLrnqP3hP0fBo4VYtEudDm35sT0kwfABPKCRqUI1+UuZUMYDsgWF65hVFiqzBzmEYhXlF+fiQoMXJWPol/Eon6rIC+PxEq6517kMwpMc0oEvD3APLSuPcwV/pBf/mejnZeIzMjg5DCpeIh4oUJV60RY0Ddws5qBOcCrLaIZy2ez6f/7pz1jTfavZvv1lkkbngE/Wd6OUrXbmUkzhNQOHy8imDtgIO+cYDdLgusVm78JP2jfaoBysCJyOnrRsVA8+og0NpFKm0ns7vva9Rtv+rbHaz/bMH3m/75p7Hmvu9BdfCmGJtrSUlpnECxzRk1qJReR23g5G8IGbKFsIWKtU6z2MEGor4peYJRoBvZiqM0uWLAUIX0LUIqFCQmFWnlEM5AM7oWSIVyALiCukeWt5KNgUt+7nKnMagtCDEdn2i3gFTDSKstAaawgxjibJgy7ADIYJnbszNMl3iFdFredqHx1br3OxhKb8fA3BfeDgAfpq1RNDm32ZgHfdreOs0I8egSFDIAgyTYAwG9Xw9J0ZnA8hOQd9lXFVxRGZoEJXUrheFCih31p+EonwMANTrPjHseUj40sYlnfHWhaYlj3tMD/s/FPm5MBDvGKVKGNEPDAm8aqQKfRrkSt0MucD0SVJJLjnefQzyixPrT/2wPMyixmZlV3dxXhVAMyrEIFQELqLSjdbsynU7JfXSxsaZuLOpR+2LYlIO/4m8es5hDFg0HjdumodGlT8qZz0iMVpJSqpZYCDiiWwUOAp04ERikmYidOiZ3vvnXUIf27iv+fa34SjfakIgMaGCk9joTxE6JXxG53gQub7zB5WAZelrJcZbIJv18DKP6jX0Jkek8YC7JXD847NJSd2xTm+a2Zpc98M4Chsrt+si2saBVeRw3HzuCgHhsxYPdtRoRI0LyDLsPgxY/N3zvPZf66pLU+oPOQbPCPzlhi9hsnMzNRok8a8p22CYWr2Mx5HyPho3ncP4e0yA8gMHAJZvrt+0bXdXhhDgfHbJYV0hJrnwVFCwsBFo1Ke9JAXyiuS1lhnDJ+bjFhGmQq/A9MMHriqFJG+VoiSBnsxFhyzHqs84jIfHs+zpIXqv3wq7Vv43UhKvzuwwBsqVnnKc0Z15J04Cox7uhnHPlPjnPMxIhirbVaSYrrPH+FSsKkzAq895F9oGGBcQ07IEypxL9c7oxMxntqoQnmrbVv3t9O2175zTfhcGAtDnA/krfJ4DH6aLj8A5zGK3wtH+Uy+9ChaqXaU95OHTUJLMXr8y/WOX/zaX3nUtloe78FBauW4of3QDHCzzcrmddzQGLQurA3dOv03yi5Irg83+vXq9pebASqn6QBJT0Ycn3zySYrPLMy68U8+/YztGveTGMWyNzZokMdkf2lbRdvdzX2MVb7MFAoGtqtU5D+YtuiaT5GJ8EpLD5Njzoc/BudvXim+Qs+d07JzkMgTePdbMUSsQTDjafqXB5v9qycloTkIa+uO0XGXCBiic5d3CVFicVcNlVGZRMXMWinyvDRpluCiRawDJRzmjhXlO0vQ5V2p9Ax3ebFWsJVhphAiNFRjpiX6NlZ6mJb2rDwkkbi2TwWhAWD4uAgHb9PsQ8rqjYKECQhMIYyszWfnNCSWJOrAzCrPKEgYRaXkYTLWkSOH8Zad/zOc3ZcNo+cvmBfE6+HqJTdYsXdRiu6ucJbsQtfzajToVZmwocIEjR1EmsmssoN56bceltt1WYYuxCq8ER5KNQWD/zr/favDU/zmfKhFw1VormN1mY3CoeCtMBcHdI9BR/CDo27CVsUglSiTSARjdl66FF5r0YVqJh9oO77UCap855T1mK4y5j6zOFGMMp190WhQNrs0I4lh3KMil4ZUpBmblojN8WwVl61aKUiBZbjV8REszvcK41W/rjtfxFyr1yk8ZBrpwfXOgk2BzS88S7oTYh2otcDjnOcDV0fU0R6OXeWtZ+YtGg8mtEH6tFX9Uai7nlVa08jTG4uHB4PH2ICzXN4S+lOAIszyrLSn0gYGnDfJbjoKWjzdJFTvBul6q30KBZ4xzktB42F3VLg8KrSmN95NpzK3Rd8BU36rkCNfODjLX0cojOul0WWY1SIPZr3qAd5Emd02SoJQZwQiAzwV7dsuZJrbpSJ5PHPGtCqexU9egZembik8PQwNB/GSovIQgnCSJ3xJE9JtDA3a0LjiAtqCQ3i+ChabFDiV0lHRI2WgCdvX6HE89NkOKn15U/GafNTPmkmX9I1SQu8GjeQarjYjXjlnVEQcKtRv3LhCm0zZhBdLFqhszTzVEy7lWgJZRW+fzXzNXCv4Fjw+vDUgPVE0lR/u+2N/PbwDGUo7yoYrzOF7r5E8cWPfVAKuUPBw1CHf3Fc4zA/f+VPtimbpSaVRRjVTEPRTfuyGn+4mXO3zMTSUr8DB/vgMW4iksAE+OY6Mxd+EMUfJDBWr3+Fj+u49Xi2ONELFvcbsBB/cPF7ezhiRbUap5AXhK71xCnl5OTJz794vQhtOp0xl7bEbbwCmrHk2krh+/cNZE7uK5WGHjhzKBgVnKfximUe9dBWpkTmNXiOg1iVWaR8/fpLxU5o1vGY/xb+lIPXmMQCZOgjQMsL7/oT47/v+Bz5m/IKsc0SxhvmCuQ5iAJEE7sS+jGOWm2Eo59L00AScFpCCXMUyf/5DhJSo20pVnQgDOjk8fIz1TKxZhDlqQTgDBkJTeY5Cyy2hHnqIOUtCd2bZKixkTslIpaqlLDKSSg9RiGRZdoL2vEplqAUkAru8nu9+0QpKeIh76TUL6WcDcJIlWLx+/ORwdjNZhqe8gK2OpCdDcDILbB3lJ9IN/WaCnWdZKNwQ7lmq7Jw8eTKFB1Si7t4g0l0PK4y02JLsg3DSytKKOj58grG5NMdQMkKQPrpfof2+wFZq0qUK3lCgBsUMQlJmJsvIEodrJ1NsAiK/w8WRW5JBBIkWKQTNGPwqg6TiCOdcQiLTyzixxhlHniXggEpCIYT8VIhalmWt+Vt9dizFPAVjz9OiF3T+Ai2ukfdsS3yayDHFLdZQ5hM+m7E6TxLDANgqYh13+hF44RGhXGMwqGi5XsvS0Hvm8bjGf/4u3uvZ9I+HBu/gV4WpUi1BX+3LsNKMc1cqyCh39ETGkPGnKb7SJoLCZygc6uVzfCksFRye95kuWMfLAR+tIvEy+2I7UZ7CgavznbGoVIXrWAwuaBKYSGcRRoxJ5dM+K5EeQCTd2kgZIbW8QwNP/Hp4r9ELw++BN+cVJN5USrDGHMMgN3VoJXf7BzzaFi9zHEw2S5EP+q4QKpgpLEtZw7HBn/iNscpPaZt2sq4zytxn0KRGCe8KT69JBEUhB4310r40lQgAcBEOvSRGqdDFYX7DOBF2mpnBK+c9pDzDjxU9QEEbVYJxTYqTfgz71zyxY8dTgeanTKt7zlO1ybWnM1iaF4OW9hW+oUP1JH2W38dwCMSh8M02ZvRRQ1dZFPkHTWlIyL/85/kV/XAVRBwQ2kVzTeIvgKDf9r09Wv5pv/sevuNZVuySp8XlFWSB3rsjh3xyCF+nDBTeD3KEjni2sk1+aA3pPrx4laOGX2g/bdrivX6mfR4jjHwut4cHvcZhhv/op30vnPMceNCeiSdJ2AIZ8pXYtGnxZETGp7TyLUo/Bjg4U9nBD67cOH/B3c5uNf/zZz9r7jCn/Or2V1Ih7DKOjX1aQBW26f0LmznzZjar1w02L409C2+ytI7IYClre1J5O9LewQNHm//+T/8PBT2+BpfKGeHuKI2MMHXGd+WF31vD2l/rsMfSoe8PcvjsOoBI3SjQBFQpN4QjwNHiqHOS+wRzFZRBI/VZwtYreXTL5uaJbU+BqLvsMPMrlMgIXejnvuuU47raXCK13TCvFqZWZAiG55mksQCl5NZAFkkfYSlIrFwtRJ4ZwQ9jJRQlJctYMJ7PVQB7jcwb5qbfDieCHoB5XkAU40/pWObG6qelys0//ff/N/O1L770AkqOxd/AzAw85x5dHuHEu1asRa27sZBMQHINrTvTW0zBOSl3S1m7dh0FAB6KEJDIZApDLBFwUJeJESYe3MSS0uoN42CJPrp5C3sLbm0+/mRX88HOD7MI3PWDM1jao+VuMWsJfxpKSu9cReUIJVNJsyVmUd2GUlWqGi0KGJWpwsCwIZeHKRRcEhPsUG3BXF5bCWslqDkF7CAvxiE3RZByUnh2QFrvtJD+0LZjcuziw2c6n+q8quNVECkg7wkmxYIhZ71j+0pfEjJlXMDL5ws7hsJvpVTC3Ag4d4MxCSvhWdq2I0WnhXfH78tDA6U3MPCbMKvnhi4ykDrv32qnvDKvrcN3oSvM+Bye0HCgJRjTPhlZ8HIFj9donUbp6bnyDPFoXwvehp283wQrlA436ak6UPGsRw84+KpfAl58vM8WD7kWQxNPxsNnGyr1OmHo9xJw4gtc2O/OGG3GKIVn742tg2SuLdlq2N7pleqLvOAG5lHmNKBRJPSmCu+0JzTpFn1XIrTteo1HS4dlTNWvZqLSzfRPnBlJSmRGfEk70iYKUUHrHHGmmgCCSjL873Ucwkk6VgjalyTWGXmyL7YbRaxBQF/ot3RX4KjeZeoC/NkHl8zkuVxnApvGl2HneMz0w3s1nlNsQp7mnPfZpFGpO/CkODNZSRy3tJXxcV3m9tJrn21vOXzr4Cbf/SrcOCe9+Lv3yx9GQGxbA0uZF2+PsSvT6khjbTPfebc/NNWhEXoYnlE2yPfypiFZDNnQEJI36PNPB7+dFuuMz+JV/8F7XeMzMm5+rUhmGuF3r6gDrNS9vAeGfHOOWp4RT6JM2nA9veuUrcw0MlLFXHZ9tJsCDu6rOpYa4+7t3E/tA+lAHBjxmk1iU1eXy4akEfFXdKIu0MAyd8cdptw5SZ7yHktJ9pmHQf+zMxAZxqHzwKxoLYPljnvv+fIn/9DE5MFSUZCKII0QAw5EQOigao4F62wvNXHbsCghCQDRTeaV6f96CSsGB5sf/eil5iVeZ1l4/fs3Xw/Ia6kDIZnrlP46NcoOCHqsAJHMMXAK4VQoawaDnYfVMX8+gDmqQCKMSMUZLaRSHhAUwAhjSoB2kzcJLbYAQ1B0iTuTFrQY+QtaPcAW/ZU5FbQywVSsIkvQfcr2ZG8N7kA5LqQ253oUPMkOhpGRdRWCwSuRwZnTMbnILavepbbt73/7DoUPTkMgLHCe+xDVQgZJSKJIBYdEPJ0QaBbMw7TXrlxpLlMV6gYEY7UamVblYwbp4PKB5hXqyw4sW5jNu3e+/xHKFORqyDACCd+EDQdjeMr5NwWOzB6+cpAtMwMhz2uVJwxNaK+FQMuDMj48WodwCpRsS2tW8QjEeEaEdsc4UMhJIzK0UPW77OQ4v3OEQardNrlGhvGwTdtRgKhQ2vmiYkj6MNkxLgJlk9dK5HmuZ/T2eDpzNVAPvdU6LuXaeYwEyxiK0StqQFivBUCn4W90ffILD6X9gglvOWyr/dyecgTSmU/kVcPNjyYbOh4jC/ba//HW6GM1w70YMbfxrJxXR99GkCncQ8jAXsbIvdzBMDivsoFmwZHCVrnYPgxUcI0ueNRoByfVZ8iA7k1ChQu9hptbxPlMzgTvGQv05vM96zv8cjd8JL/mdJ7vxy6FYfrGu7Dm1bkkF/pNA1tGzfppPnl9Swt1Ud2Rv/YJvEpXUSxcIJzsn6gTf469DhVBOy6NfdoNrdf1PhWo5qXXMjWAyEmbC2xL8YobAagxYfShwoEqGa+zL/nA3yjmPNJ2C9a21B7cHhi017fvRfMF07o2HeB5GWnndtvhxU8qnPSdr23rLmPzmTGa+FS48JyH717Zfvdce9Q54ZOXtM9xTyEjC3lc4QRcQ3ceIRmFq4f9CNzDgYWD9pH8XO0WP+R6bgjt+CX3+Vu1VfjzZl626zU8R0XoPdJHGVTWIOA7J0xSdS7degU7du5qLrBm+/S5kZTH3PjIOiqCsZkCeEvf6X9kNc3WO7SEfgG9nkHmWrQDOUx9bzOfM1XD+alEYtVh05hP96h+igf72envJHztZC77E3+UZ/cuRBJLyLwCbUBCZxXunktiDg8yo9OdMSIQCVGuWrWW+qLbm+3bX2pWrx1kuy0nl+c3RykfN4aH5qCuocSGCYUepUyh5cPc4US46xHZvgB1QtrNxz8jrn6DNXAOdHq/1ViYm0Mhtow12V0+tEi7f5QFEtHWviSoUjZaSAq0DBrEXWaC/KOPPkKJdhHWPctuG5vIkHSdletiCbGBGJOcLCd2gonxXbt2N2/8f+2d+b9eR3Hmj+SrK2v1IhlLlgEbWw4YMIEkMCHJJx9ImBnI3zrzQ2Ymk5BMBhiDMQbjXfIiWZZlWbJkWfu+zPN9quucPuc973vf9+pKsQ0t3ff0Ul1dVb1U7/0v/6b7XPeLbp57okPA+vBD0buUQmR9GSVBZYM/zsEe19NYvKtJRbNRgeIKr3iBRUd/7v9z0cXVjPfqijQ90qsCRGO7nukbVQgul6DCM5UL/8gO7qieFHl72ifRh2SQGfCjBiQy4IlfCjculEJ87S85AdnhGZM6OGqj+IG49rSdcpPKFGn0cQ/Bo0JXiRfaIlbQ1FHW2YLmJKHzV3q1Y5jcCNFj4PghqokweIMnfSMdQ1ay6GJ0OROIeu5Cl2MXFBOkKiVj009+ezBjjBrQFFYppIwdKH/CC27be1idVkLmFwhihZFv50jP/rcXXmOp7YGmZYM4tL58ajD745F/Bik/Cqxh5Uu+JZ7IwzqeZGF48q/z76VXMddH3Xd1VAz8cbrB7iCwOf8r0NbaWgK+T0vEjJAZvwXHZNyxOCHjLqTvBlXfR7QPaOxkLsgQeImTMQNLdKaj/MWyQbRozGyibHnnOa4MvdR8rBv5fvfi77W7+xNdG/qGHyj49p8+0zz8hR0akPHus/ZhuL3UdD5HkURU0EV7ozaNGRG1z7Q9zGzI6TY8j+XEDIjaV0Wi40OO9P+QSNKPfboZykNPGVKg+FMkEcPGFXo4HCw+o3tf1+nFE3YKbd7MVNzVhouV/+7v/1YvlfxAV/3tCSEq7hc0LcqI7xPdP7lF2+QZsjNtelTK6ZlnnjaDKDeG6VzQjuLerYuZn3pqr147eU4L+McUhwvg6T1KyFKIKMwJYzoHvj2uEATNNz1h7RzWgW6U9AW9lgJ9W/XQ8wdHjzT/+I9HtctXVyQe+kvxxOX9XH/G+uq96hAc0VVs+zVaPeS3EN879L4zha37GN51ZWqCNwNJmgxyb5+NS0qedeXD7x/WBi5u32GDQkwNbtPUBYoVOTyo6eS/+v5fStYcQteTaS+9pivNTniUyJoFMHBCgaAYhoLGRwkqUcTQNQSpuBTuQq3AFU2OZJAV9CuuGzEaWNIJQxqUkdsxnWIdYIGJERPcjQTcMa+V+QMC8Qwhvc5a6HJ+UCCAtRT70JFfBRhcZCX/PGohC/Agv/EnLkDA+weLTOAP+0q/go1E4tuLW3C36EijTqfgxmsIo7IS3YmV0q/DWyS153R7pmuyiFvTthguZNlVCyOs0hWuTKvyvR1rKQIVCujNv8r7c2Pt54flbaHWeUY7Iym0M6RdKxNXjGoyV4MapnQ5crdhK3t5LnoDLG/4Hj78ntriA83LeieXt7uffOJxv/X76KN7vM9Fr7u4zfR+CLX3jGdYxjuldXYGO7zVqklDz6qgD1CyHEdU6yZKmQVhyp8ZndrU9Nf+K9s1rxaNckztkJAaVmm0azd0j+wl3s1kbl7z01IOX9H7hT/+yY+aH+tJqb17n9TGIx2M145elAfrpVyWcPTIh0qVNcYbWmc9rVHfh97hxvEKXrZhypLdljDG6/Dg4XmpQ++9p57JCY3+uCBAI2ZN7fDXr1ByloanZg32I9vwxYVyYNqZW3zO4OnjMRwBuK5t5hc1mj7py8fZ0HRQI2fdY6pNWazjUgFYcz318WlfA3ZWd4d6m7YUINNTjFZ3aAT+0ENc3aepSWv/OCLA1nbMeR0Heuftt72TmKlv6GAa4n5tXLr/AT1bp9kBHgLftOl+PX33Xc0G6L5Qnc/6hToYH+pqRzZQ0HNLXml8rbyNnYY4Kin+5lY/KK+YQsdntgkFEVOV0UDSW8x4SBJcSIK/6CyEazbeaaFWrA6E0IByB1E/pDE0kw3TEGIt3fA7RsUgjY70XgC8YVKp8gUbJXDIXYa1ZdV5BlRORUa8GN1k2Rd0kZkTWvhH1Dg+VMWf6Su9hMj2aANmJsTUnXhzeSltxnykZLrzQRuKwqG61vE9hgO/eU20BwEtYYjpiF3hSBlXXvNi78MpP0cLsFvWHihJDctID+Cz6oAxyrZLSy1Y2hIaTP0ZBgbZiMftX7osRNWAzafM1nEDHoMObr9DS17RGf0D7xzSS04faQluk9rfHc2eR3Y3j+55RBtUHygv3ejNZU37chrFyzEqR0eP6iWtV/aXM6/sANayn/aCMM3OAJJTKezpYSDYN0l333del/YCwKyqC9O/4hdFwBoWt8Fw+BalwDTplx/b0/zDP/xnKdb/0jzxlccFy6K6dvdJQRAHRbEsRcNRGAtNgjuv3bRMp3LpOOuGvug7NJGmS1EeG5rHH/9i88QTehT6pB4o12Izg79rOmfGDSyNLhaoapfsauapcANDQ8V6bG0o28DGRihtBNC2ajZQoTy3KmMefFCjau0WPvrBEV1ReNgL5+x2ZiEdOrx5RAWASwgeeeQ+K1eO2uzWaHXvU09oy/dDHomikOgkUFxYO+AyhmPaDf3W229p7fScKhnrCWzYkVLWDuWd2kUdPbM458qjzj/QtV3sXl7WRdnP/vL55tCho94Z5/s8FZ9CwNb0UJ6SQlbcLJyloQvlOEeBUDxvIlFOR4+NOMgvKkOMXOUEPw2qGv5siuSzsDFFohGEbphFf9ugD7Bl4313G5zZMuuHIpTKIHs5vYasb9Id3/GY8AiWKLFkRsGHFaWSbqQuQVl0BWSxD4gomWlaxE7CFzMkiWTIaEIAgINvAJvjUdhMZ/jt0q1DAlv41BD2RzhZzutIPXsdqxcwcFQpic9+rHSVL3xF4RzgmM85SjLJC32Wjfkw/cdBQWeU6qChkt4UolKGXXCUW9qO2kRbSQ64DniEqDVPDdqYkWPmLvce+PEBDz44j39dR6f0lJ52C1/Q26w8enFMCnP/vre141sPJWgz0gad5ECH8WQkJzqsi7SnhcuEzuk5S5Q366+UZTY2XfVdDKxjQ1/UMberEOyyXSjvMwDwXEb7YlgbVMOtaVOqurdT62gA5724+mrr1mUNvXc2P/y7v9a66g8b3tmjN8HtJTC8kUuupXxRrvQA0JtMhTKFyfz2MT11xXnOHXrRgIdx2Ynm4ySCZdi+Q4rm+9//ntZgt0qZcHkEu7kYs0up6pxsbCQSd8pd71Ykq/yfnyiq7HlgQF8bXCgiH3BXGIfEebD4mu4qfUBvWXLshfNrZ8+dUpoaTZZnyLghhuejmD5g/RPFyGsll3SRNIryW88846ltjtuwVoyBJ/hmpyKXV3yoJ6o++kjvMyqD2eDkHbLqwDAy36lnlFjOBp7df+yoY433W9962seGOLv73/77/9Qa79k4c6XelHehOqX4cQEQb3y9liCBsBgfI50KcIrVHSkXHqQWChU/lGjIlmoVhQ2cmlSfgmkx7+gYKLNknN5I9A6my083hVNICLoF6//8RJkYQb2wF7j9V2LSwRhrOMkHNqHk7lGDGzB4zYRZ/sAkzi40bZmnKrcqU85nMdZP09IQloxjlKM/QOY0cw/AeQ8GyasoEfb7xKaVHqRppWNnObdBlBm3SK3PNEsns45ecOUUOnbLzx3maXnXxZ2Wziz/yQ5njS/snVSjTs/Ct6owZeKQu75MV4V1TSJ5A1UtEmGNslfQq2xMN4OIBowI7aamEhlf9pCwtMQfAx/aLQYkXFjBsSB2faNfPFS6qVMVWh50CjpJgq7hNAobUq9oHwsXdrA5ad06HVe8pSlftaVsoGQQw36W5WWOyXESQXE1A8hVuihuHwmUP803J0DW645tb6iijSEx/kodkW1VZgklR8ELxaCjMZqX5kLunVoDPP7RUV00v9MblX78k7/TeuhXTDApMdoMAekwu0apTAXv0AYmRoY3GPGp0l7QGc7D7x/Rc1pHmsc0jQytKAKOY9BLQfkS58c/+a/NX/3NX8svLiqgUV8vAd2SsH1kQ40Wft6tLGUtLM74yHwVVyqlt845C0IQSotr7TjakNvKfc5KQ2JuOFmvaWGe5eKsbuwI5kJ0TQdrKz3CpkFg1+ZlHdT2jS3SW0zRMn1NpnFRAFMObI/nAm8OejOFzXrA/v37dXnAZY9o2cpPh2O71mcf/eJujX6/UDoLOq+oEb73X/s88HYdXXpG6V3T3ZkvaX16nzsYPpohjnzESNDLOnYC39EwRSmg4aXRdv9w7gIRhV8oi2ktrfzc6A68E3qRL1SCBrqzwvKdv2FZgQgjXwFmlOCV4hCuP8tUXMDI0MATfm1wiRNeQ+ieW1GFmh8w8KdSzohKAZxbxM1fKAZZbRI23bO/TL0Rw7iKEgWrlWrBT6jzpkDixri+GgY7scJQ0mwCcfEd/4TohoC4xWuFEzlYHgpBoig6lxUlS90fM0OsYzDE7v6AqGOFPTau0KoKtpU7sHfYhBjucCIro7ecVwabEyLzKuWe0chRJJxlJ/If5cZxIHQJG5HY1e9je2qfubULgyLlzeHSwumN3GVtXNpp3cDUMe2uVKP30tCe06aSFs8dcqzQZ5u16Zb7BbiUJm4wk7L1jXxBp2kz6f0OI2VxHvnUZRmal3ykQiMVTTh6KM2VXEyFXrvOVn+mQrdIKT6mh4o1UpUS4RYYEqJnwe59yiF3tD755BN6jeAh90IUqIMR0eNmeM9BbZSVL3zWBiiUqlArHd2sIsXFDq9dWpC+RyNfFpgxG9SFXqceCL2aljExHkcZSDf8YdxTWo6FeDDxjelc7MA6wCNRj5hFOzuD6Xn7YgVVcnpD0tDu5TBFQNoIjPpPL4iXOkIRc33fZXVAUHJxkQXY6dkfP35ct3wcUeY6l1SSxIeS4fzvI3se1pRvXLNGcChW4eWguWE2Sc57PJqmA+KjRU6fHl5Z45I7OkMh+5SN04PQwjv0TDWWhRIEHjsfCyinbvAAlwOQnkGn4psjIPMLUOeI0hsWxjnQjIAIm/kJRswGpM9pRMVUyMjDIoepUCWAfEJmKjc0Hn1lGDDgC1lGmtjDUA6LUZCVq+nKtAPe4LZmvIw05VuiWW8Xu/N0iNuiAwBLjRt624glkaF7Stq1twnoPAJDplWlWwiNaXXKR6FlLMnSSeiwzrKBYIgkcEcaSQtQXa4kxlnlNOtfwk79KvkoT1MhPuMByDBlnPJWZWjzSdyrTbulAZPmdzwOYnCAokOGHElcL4XJLB57WvzeqrQuSpZZRx5TQOF4AKElSF5Sio2ddBy1h0UKmjA2ivJMKDuOqYy4efaQN309UtVgi81R6DVgLujNWmYefYY62zznRPLC6DntDhj9cVNaiisAPHlqhcptOTQGvDLPTRmXdeSFEdzOnV/Q30OeFkXZxGUATBOXg/5Kc5OOyaAQdunxWtZYmW7lWSGuJGNn8Ntvvd2c/sv/1Nz88m4LEWXODUoeQYoibl9CiZlBTZl6BEqeSNtkFrlhVvujLBHZKvxuQYNHKj+ZZgFkZUTcmnOF4VSOCB4euQWEw/OMJhE+o/Ul/Vh8RCiGKsbNLEzxcoftsuxMkZP5KFpGsqwFRMVjBHtRR44Oe10Z5Wd6vOljySNzLpbgzCxEgRPcTPNyKJ8LHjBcUrF12xYdO9KzYEu8kSoFy8hb4THdq41hgmftOORALPiPr9PEOsNE0yF+0eY+1yfZWW6sBxMR4Rc58AGukvcM1ONBwp2NE/lGPki0kc/DGJ34hyGTbnC0dMGViZ9HBBUuEhxP1KgpV0JbFYsqbrEWGmgozKe+nKUcYjUO4wtKg3bJJnlQBHNARMsfC558FzcoCZusE0ZTfBN/4ga0hLcpOTplo/XpLAV15zHNBuAYcOcXyqyGS3sHM4EdYc4I7sMDW5hoP8oDy4XWI9MrYCN4s/zWeLuyV/uO210aSto1xCI46nifLvuIwNpyC9PlT+U8ntxj0KU2RXqA5wdp1ePVpBjkoGz99J7u+2WZMR4RUBxBLmkG0vdJ634AHvdgCpfp5UYzeVz3uUGDFEEpxdL+ysVgifaNoz4sWfocs4r1FS05MtqlLacwZTveFXj8RzINlKOmkwOtsxsnMhiFhpKBWJ5r4z7MXbos/5E9j0ohaAu0112ZAo6zQfQSuCPWU7tSYnu0Q4vznYcOHvacNhcccAbplVdflbL5QJcnP6FL8vu3f2zWbmGmbMGBwuVOUU3eqmmn36/iKMWDRL1+JUsorEJzYY52SWSHyUZELotEFRB2s+3iukQaMs7lckUj/KIgOUDOaP2WekNcnoDSc0dCPIZc5FajSAeAP3pCnp5VIkxf8NTXkSMfmNfDhw+LTp3LFS+caWW0yu7nXTpexGavuOzAbFmWPF69Ub0oCKVjskPrt1DPiJUpEtKBBqaBMUy1Ex48USDkcscCPuF2BeNGiZ4eUiOy4rC+GhKTPzgsPfmXcPutgHdasHAETvJRtkLjGKWT6mgaUvwLVsg3fUFroXxWxCpM0GOEAJGNN98pQHVUKqZ75fq6Ha8DQae8DEzkHf1sE97hBt5p6dvKv7JjXdDEiAwe9Ze4nR9CZCKhKKgqBapLoYXvvFZlsxwqYRivmRU6vuXPIOkmJeyFNpytwW9RQ/kWPspeGx38tRm6u7AxxQq+UpQ7wGm2ludpAJ9d/7aYtOJDwClkvpK9y58A3M7wjeXHZQ0k3MZxT4IgUbjLUn7UI64gZJaTNpq2yudS1ShzLIZrIJ0K+kHt101uMxMhqZtI3+MG+XGDFu06s4s88UjalzQqBp+XBVGsSg987Q8k2j1/i5TtGtGWKDDeeAFhwsTIjJcerugC6J07H2ge2b3bjy5DtJthlSSSYmqSobiHvHAuevc+8WTz9a99rfnwyDERrO3S2rF1URdMH/vwWPPm/rekXB5vvvLEbl0EwSPNrEkqLW2jtjBZm4VpbRpyO68frk6LIT2kijz4lwCCgZZzird5KFBAWj5MBUfBd0ThL3Tr+BAjww1LOpcqITtDxR2L354mVrr0bljn4kYQ+Ga0yAI7d12SIbzSwBV8TImj1nkq7aj4PKapYO5fJYzzqOvWX9b0r44V6bwuDw9YSYscRjfuODh1+DIX3uzEPcpkODfReGFfUxvcVRsXdEu56tYZFyoKTfkL3sHj4pHOKV8RIAzBecLj5yLgbyGr9YnQYVD41hjwqWGJQdknPTKjLXwCQrUPjdX7gAeg4MvfjjC7kRrgJEE4bhunGVa8LCecJbiEGJ46PzSAGS9hbXjIewiL23KPwiacSFaUtPEiRpc3wp40KQ4loUDIX5HMf+HEOCiBGBwDBuxf0i8QeHVQlmjB2RFEEu5YmUg5qHRVLHDYXTps4a5+O1QRVUFRnoSnS9z29eanimA0EEC6CR52B5kmkFRyccBqf4TLxzzAWROnNItP2IrLsnBQ/DgQHJWfQZV3SWKb9wOY1lmn23p+TiwpGL7lr2UXC7ILD5RdK0h5oUOYWfQ1qOy98cCFtjhwMmOHfqD99Qyb5O22U20w9cnTwdYTuBWIfjAO7lsOP/QI7Q7lE32ypCeYXBcZyIoulgKhyVnoshckmgLItoUf1clgQ/bZZonRGzzzCgHK0D0IJcTjyg9LsX5Bfzt0FGRJbqZPuQiBlJguFv0iil6Fpo01mnrysceaZ77+9ebZnz2rqeS4Gxg62JF78N2DWn881jyx91Ede9EUrHBxlMc70kQw71zqfjUpbEleO7aWdJsRmYDgEAJC08DWAmLEGA10KEpUH+mEsRRsjTtIoTN4FHbhlAD1Z6NIucYCDl4gWeepaDJWsNClc7fc+wtdGoTKaM5fcuLqt4u6x1LZohGvrkvU4vq+/W83h48c9SXUnI+iPVkvBbzrkT3N1ySXbdp5zCXqkrYYiYJBfeeaRB4Gpie2SRdlb9bLLtv10PG5MyjyeAj5it6LpGeHvG5Cv+hzYYRO8YdMuobb3M388Y1UldQMbCEKjxzIJfApTdMcEnYYVqXpwhrejk4YpFVe9o+p34EvwCNmDJYK4Z6o4J2044nnkpJHgpQRuam3/KXJds90y7OfLLwN6HJE+dk7oMFMzLqTl/iRQ9KBTcVVJspsC1MsUWaLQyhJGty38g25QYScqhxSaKqGnorbTkXL7rQMUzYtdMmq7RHfrkNBubPXPA4IgEYLwim2gTQDEkbrxgovtIXRiEkITlsetHVuM1pwWybzOXOKqK55Luuu+8JldH0Uc7qIOSwVBZ8YCbz5BSV81SVIsAJSztJMF75FX6lv0Bf5GvUBDGMGHLfDxRjOT4cf/JN3yK2YHq84Qp7YQg7ABTxlQ02Y8oGd8LQ5DG5cK4CWouVuaAY4MUtKTBsGnvoXkLFOG4oVH/CQR9IvZYktyzgP0d+8qZedBJM0FJDAG5o/7P4FV8UbqSpqry4X6NpP11Kqckkw9AwgyEdHlBIbkrhNiT+mJy9rFLtO539gPq4/pG3neA7xQknufmSXRqVPaOfr7uadd97VFK9e0diil2L0isDbb8fbeRaiKGPUx1CfF1YQnpWGBHFF70KeOHGyOX3mlI4AxUYpBJBDfObcYZSdZCFC0SMe+Dc0lgc/EoRhkKDo5Q+qSTP+IShN7YomKgwZQhpcPr5F52937tihaV3d3yvDtLHXPZkHF17WiddL457TUZyXXvq9jtoctR/wlzQa59KMvU891XxZu6IfePB+xUWp8qC3Gl/hCwWGXfSrMCDr3ZoluFfK+sRljgItK02dwRJNjKbj1hCtD2u0T+NIxyNNnbHpN/olYZdwCtfA4O9yhNzSblbDewDeOkHleK3PGlpKYR5gzCQVWoWEvQsrZE2CWN5VxM5q2BJBH2wuSx1EaytQxW3BtmELWZxIHaOPmZAJkBp8YXviT6zprhHRaOI/CJMw0qfOckCBjyg0SLgDX8In9tlltS/HYdzEMf93EQwzYF0IqnAzjzv98js/ZZ8PSDJ6jJNRz0lA99TknZWMaMi2XwympJHoBFzBh7VKv7JGDCDW1tQKWDO5UQHwjHITFYNF3vt0tGTLVm4AinOgXDXImU/uy2WnFsrdi8s67+q1SSmGh3ft0v2739GU6Alv5tm6bWtz9dRlPxL+2muvNz/44d9qLfZhK50LuleY0Z62EEuh6tpBHV858v4x3c/7suDf0tkkLk6mR8ORIJEhRcJl3CgYFJScSp+L2UVI1+GtpBXroniwDsp0AlO7bP6hd00Px718hfP0HIaOAgqWNLZqjfTRRx7RudVnmr1PPqm10u2igweP9RqG0vXmpXXXpFTP6lKIo7oe8V2H8eYf9AGHQv3mNzRa1duQdESY9qAzgUzJa/7o7TNzoJlo631uaOISC9a412mkvLQU1yDyWg6KnIxigZ+XSVC4dFLoIIANfCsaATldA3YxsLk86GtxUiBEl/0J0x+pcG54voQEtwaG5FwARnFB0crGXAiReTBCxcHt3nI/fq/Rp14UGfShPv+unhxqdosc04ua4zJRPByPCivDb9QsO9ufMdx1w9QC/tHyRwl8BiQwLLvMNovsaJxiEVnvgarx3qKdvtu3b/d6KAqNbc++ZkojVioFr3mw7hcKjieIGM0uN9zd+Nd/81fNK6+81uzbt98XSTAKvqhtzfv2v9m88vIbwqu1RtU4zhixFnnx4pXmrTcPNC9Kob788uvNa6/ua44e09WIGtH6jBNTSVJEKFKUeTwfFsN/bjFiOm9ktqlwBW8xsmOEh/Ji2zXKjErP0Qb+XdfaMp0EeI1NQ3q6TaP2+6UQn//1C8139ejut7/9bZ3lfUq7dnkRR9diqdFlhHnqyMei+2Vt1OLZPOi7JaV6zYr46ae/pssfviX7VitW0pIqlJ1bRiJtiOG84bWrOlurWfIt2hG8Z88u31l89hyPlsexI68nSHCky1QaO4MjL3BH8+XpENEw24hKpRkqs4IkU/QHD2DLkoGbvyglBmnt8r4rhvTHTNI0Flb7wRq8uTQkMjnMcg0ImEEDNvprjjWA+sNwpqh63NozQvgNmeqXMqX601OsKqtjOEYVK4kI/o/mjxL4LEqgLrpLrLe4caHRkXbiJfXLWhPdpGM3HLfhJXaaGqZHeXXA07eFa7Y3e9pUbs6+ahDnYyVf/erTzTef+ZY28xzX+3qnfN7T76EePtL88le/0dTonzR7Ht2l66eu6kL8Q83vX3xJ06ivNr/VxQjvv/+hbz7ivCxTzowMSZNzTGweYsSKYmXUyUYrlBNrUfzrmVI/GWHm+iMKT2Ne8RvPcaGoxJZbUta5uAYLNFd1DIfR5bJGuGdOndPo++PmnQOHmpdeeb35nhTsN5/5RvPU3qc8moe+AwffbX79/G/8ir2iKa46JrpE4qtf/Vrzne/8efPFL37JShA+YqFcyVgR0hhJueoD/Szc31THhVkCLvpHaV+5csZ5kMebaJBQnpz7YhTuqXghYJcy/JmBniDGHMgq//rh+PZGaMJN+aD15BM/8SW1NHQRHG6PzoZz2JvLOESYyLc2cGDpo+wCRURNRxcwaTMK/RjeaY9LwTQ5XB0yoZkl1qm8TSb/6fKh0FU5NkacIYocJsIdP1C4E6ZCEqNWRSh4Q8FGTHxXMsDMm5cr4VptOOV41QaZuLKsGsPnJmIWj7kYkthmST2KarST4JtXxHctOwrxdVugXcGxTgrBKBO2JjO9uKQDtdx8cfrMed3je0YK6EZzWVdIsR7r9U61NsYnpcYIinOvvMW6rGlhNgI99viTur7vlebkqdNya0Srhv/EidN+xeW7b7yjxluvu7/zZvPCCy80P//5L/TW6dHm5EnBalPQsg70cmn/sqY6mZJepyunzp0TDaKL4yrcXYySvayduGyA8pZspdGO6MSH13/1Zao51iVjM1Jzk128uttYO5N9jZUU2WWthdIWbNZDu7SkPCDOaJwWlZEhZ1UPHHxfnYCPmjc1sv6Lv/gzXcP4fSnOp6yMf//SKxqJv+aOwr0bt0jp62yu7hjeu/dPtEa9S5u19CDB6QuijyNF3BRyVfINhU8HAbo3qhPD+vKVK+rY6IxWdAKiOWJKmUYq+eOWJ/iDLwzTy6FUUYJzNGFknOFGYOWlQXxb0MEHFH/K6vjarnwvUP4qDuVgTFGSXF3o5LTx1hkQr2CIG/ytAEiwaRQV5rHAyy9oDE9GVQblI69wFdj8yB9+nLbqiOFWkC2wrhUkc7eNmED2QWKXCzcHNDMOR5bReXKkoHSEZstF/uap4gf/tpwZCA/9iX+Mrf4JFyTgTBP5GXMB6cfXZc1509GPP/B3wjiVmjAndnspLUKrZThMfw1oQNht/lTsmLaBKIFbmOYK53SrSs0grVmw/bDIf8od7Rw0MjjCRMhQaKXc2bsOw792G8WCP8lE4oEvUSEn7TEm9Cb+CYuGkaGyGVJaxZt8NDK9qVsuDmu987lf/04jz6NSIChQbsRgpKiNQ0WxRp+enb8cQ9HjsRu3SuFd11253N1IwhukaDROlALUZq/m/SPHm//xv37a/Oq532gU+Fbzxhuva1T7iUZcG3Xt3w4pVuLERh2E6JuNpOCZLkap79AuZd5+5dYkBn3wdk1pL/v4ixxiGNpgliloRnpMpWJg+4po45wqdxNf1pGii1LOH504obf/PtELCGf1FJwuw9eOXl7BuaA1TS662KoR5Bbd+XtVd/8efPcD3SR1Vq/QnGy++c1veAT93HO/bT4+dVYjSI3wdd4XpXnP+o06anRVU9wH9ZTeGdHAOS3Wdq9ZsXLrEvSzo5pOx6ZNrFNrylxxTp44o9d+3hcP4q+MuBmRmgHxgJ2bSVDQ5CV8RuCcilXQixjklhUVe2soXRDV82xDW8u0YPzrwkgEMGZauOcxxFGkAHViVEmZknD5uGOQ9HZpqKwkQGAwDcVa6As+h7QmTO87wNULk6NLdxhye+6oK+AocpCNjoELyBTUSMk7jw22YNkJoVeYV2C8gsQ6KgfhzCWNGpy6vOZGad2jDYvzGPK9/VMEsz5Bknwpg4Kdl15kEHW3T0UpvX3PRVzk57BQK/4YXdNoWCS56bCLlQnwDKpx55ZcodWyoVwPTJR/58wgZD7ntLrd1asaD+Wh65C0ZYMOeDHrduz8gahkhy4HcVnLjO3PKMmtehPvwR3b9NVzO+sZHXHPIvcvsvUZJkgWYTBikuKVUly6h1uUdEZVo7Yj7x+RsvrEB36Z1oyMXaezmpu9Xnvx4nmNRPUYuLAwSl2vp9/BQXyVDCkn0mFkpsuWr17U5RMP+LHb7373z7RJaocVngC1ZqqbkESDqYmy7QLO1v9Ik3sol3Q8RbRLxzK9zXGYT06flgI73Lzw299pTfh1PSH3oa+6Yifude2Shh4uY/A0rKag2d18Ux2L67rQgc1FKHheVGDz0rkzl3wphpoG0axzWTrYvGv3Lu8K5rIJ7iXW7K3lx7o0I21ugeLsLL0xLuAQKnVQNB2v9wcYvfNSzmXdd7lZTycxeucaRXYDQw8j+RjZknfiXYWOQsl3ReNyWebAh8BEV3gWFoIZ/RVvQ5P18RcF3Q040VTgxZX/DFh+fMRopDI4eEAv6fgoRoUAvJlG5T1uFWxNL6yWoupRmiMpTfyA0+z8dFNoJn3MbTd4whE1Rl/R4Iai0JIChn/kbzkU2uznuA4iOAD4zjDIbKwxJUqmH1xFCnE/8QyEGSQC1Ce0gRb/CYVnBcQP5dHHRglQWzOlpAWCwe+EjIWD/RxrbciHHAUNcWcepX/WhVh2ka94dYdXvNoUd8JPk3mGt9+MV9C0/sjtDpgJ2SqNkEPm5gqJJr09MIhFb/Q83Rb0faa7sn7VEFHlwB31BFFDa7QDkwJCB2V21Hjmag8VYawjAh7Hn+CtsIt/IQW60FUfHn3W0N4VDEUmPH4EoCffLuriY730clxHXxode7mul2aWuC7KU8EU9GCYxCGKd1TXa5R2XecxWcPkbVKI2rC81SMyzoWyNkqqJz4+ozBGlILV+ddlKTI/1SbNwiYpLknmmr9G089qGlxROX6yaZN26e7Z3fzoRz9svvil3VJG2uUrJcXFCTSSLjiQaD6gkHO2is9OXNmtLAu9rA1f0oMDb7zxZvOe3oJFKFu3btN6sC61kEIjeSs0cAsf08VXr+ru5E1bdVrmil66YUR7TIrwki/lX1rSxfzrdYuUzuDS6bigkeehQ8ckmw8UPzos63UxhUeuSsuVWmvaUq0K1whXo1AUK82QFTqdFI3ieZiAs1h14cuKDpvggTfop7nDb61NL20hl4j1p4RuI60WZ9SgjmQx0Fvj7UJu0xbEmnZkRXkJRqazIVqI5Q05st0Gu6adOvBpMK4fIgQFQJ2Bs6gz83JIGQ9OLEJFs3ve6FOE0JaJQTh7CW5f+n2k8D2tMR3NaJcFFJDkhV1/wJmudJOE/OYdCQNuJVxkiTtN5lG6F/qKhpymHMYbyjHbkiHcmDt4HQsZ8xMRC5m+EBBvSFcWyzddXdlbCP0KwJF6n4aIMpSYs9g/WV7JKzSML7Ao6fjipEzTmSyFh2LcsmWbp33X6TjJ+vXch8uolQYJZRAE0GtDKfgyBa2Zsr6q2UmFMjrV9K/ucKTBZwTCyIzn4FCm98g/FCvKQxcsy3898TWKXJJCjtFvjI6Z6mWd9JLWcNkIdU7v8W3U5fd+b0+vwtzQuiS3IDkfpNCgjEyBWRhHqVLIOD7Dblxv8tEIl0siNnKps/CfOfuJ1pFPCO82wdMpUI9bWu6Spo3hz9O2Gr2u0/nTG56q3iBlSsch0kbBX79ChsdVXBynuVdXN9IgMLLk0DN3ZN64yaUZHFWCWkZhaFLkTUVgZzUj9Zjm5UIKZEIvmXdkAYIPdiPDV0xvI0squ+SgDgY4sa+96QozIz1mmdqKH0Vh7ZNcNUbJqYiAj+kFV/FzQyI5ZaWILlcJLGlmmH2RuyK7PJXwVX9M0Kpjrypim09VbDpjrLNasaosMbNDKZrbKM9TRmR//lnIKcoZ5SLjDtOb5r8gdUO0U91j6Y3JCz/asBp+Ak58ZxPcPQoyNWkH1PhmQy4Y2mVIL6JpzvzJEMEuRseMjE2c+kpccxt3ykahESp1jw/S5R8ldbKDukByoymFDIa8RdrDCL50QkRrqOgg60HptZoPTU7SAyOcAP1JITJFuV5Kg4v5b2ra85YUqvSLemIC97pEEIDS8WhQjT+3E/kaKoVbIajixnlQvbFalBvnSFFa64QHRXBTo0nNGCtlHZnRVC2VnelNFAyXIuiKIY0S9Yaq0kfhsb778YlTvth/x477mg1635XYNBCIPBoKprQlfjUWCAuFBY+GgV7xepPOg/x5FJcjMqdPnylKbX1z8bzWchlFMzWr6XDe8+O1BdDQUVAyugg6KhoXOK+TMmVDFDuqESz9f775wDpKiIEKg6QbdDY0Dc2SKMeIomOC7AWkeNaNspGmMWmGgCnsvGox84mp+BJFsmRKmZG5M1HxxkyGgXcFIxA6TsguvmZ5MpLCY5aghBfUmVIdAb9hylSUxSp0jXG6HVlQFlqgvekpAAAdwklEQVQja1RFuCkmLWRUCDVDZn5vl17oipdrTOTMtNYi0LIY4S/kU4SQpAiOTlzfBORQidBZaYWJvTI440+86t8gOCDlOSrLUWDVFdHVy9MqvVHrFDw9WNgfgcN7SBv8s9ER/+BJEfWfEW+66zi1vZfmwDENbijvjDbvcgjxae9qg5/TM+mRN4SP02Ap1NGLXUtrE2WkBFGXKkN60/iowIpVUnR84nSh2MONpwkvWTbsBvbT7jAsYhviqAhxqhFOOTRfEMamIYzs6MKgNbykI5iKBIkKjjYasWmJp32adWzGUUT0kkIc7rwCNhLF1428Rn/rpC2s2BTBfoJBWO4do3RUCL2mqKMsQQAbfKSoCpz0DCRb8bEQyq7hDdoMdE24r2tdkVHpRW0e+uijU83h9z7QOc/dmhrO40BSmFJ2FH7palELMogNxQpd3O7ENYwiyk/Vsfnp3FldSPHBh82Z0+cUn1E0Cp8pWeHSdLSKkeJlARW38AnFsrKpiQ4EPQ7KGooUBYiAFSpYYiM1xUDoClefQslrZ7A3UxGKjPRx00/mMIIW3BIXVBBQRrUSmEemhoUnKnnIHlnTeYD/cUMnI9JxWvoBjaEHUdrwAoObPIxKEtiJ2xZrOcIOohZrAFa/hI5VsrjesQKcYiVum+YUmPROlihLUIRxeTNz4TbzJjehi39+ooCmq+Vs4N2Gz2uBpiL5NgOSxnlxLAIX6U3GyMbU5UjBjMaQcfp3MSLvO3fYLLVBebOf8ahe8y3yHxu9+XicYOY2C4DSWZ3LgBPhj2RA1JAOS4AKUJaQqSzUkVKmgMfalrgWrsMxZhurE8Dl0kMdx/WwLsN14NBuYqAmmEMm5LWVLV6FPtMfIEMMchPQDwRf8D8Cfhte0BEkF+IgUCbYpQwG8nrDUPis/a/5Qz6ZqHiO9pb6wQAPBRp1Jb/404+pN6JJMxQD8a0cKZx9DZxgk18iqUeJQrYWjrhoyLjrFAWCIVNSSAoTccEEypQ4cJPpEhIbe5g2JeZ1jVav6QWEEyc/0rroazpL+lTz8MMPRJTIAdtRrqHYeQ4IfKJNaaFUr0sZXpdiR+NxcxSj4/f0MPm5c+dNA8JhWqx3jUxQpt+wlDxOJzkQdrStTCtGdeuxm0/zReFBzfIlBNowstudfo4l/zYzShL4TzGF//HQSC8aAdkF5EoKui6J8ai1b/JZ+/Xs0+lDBkMT9Ax9p7vHcIxCT+UpyhSijpxR7Clym6Q2UmrjjSY8h+c0xHNEvVMgNUlzy3iQn+AIsaumIlMJ2Rev2L4GlE/N00nc7YzAZFDPx3WAulcLoEBM5LNh+r5DkhIN/mnvJTjFQaM9NHPnwzBicZs2yd51TMRQ67O+gTvxR2ugSBPMwMEkF4Nsn5L67XuTMrQxgxn0xjdpuqN0mO1J3vtchTxDptgJDb+E6xRr+vhLIWI0OZR4D6g4CgzKg2lRTvAwXSxv6wsUNCNIj99QkRAdmYsdwcW5OvmKQiseQ6OsUY6Aa/MQx3m0VnnmzCfN/jf3eTcxqBAyx2BYz4y1UKl3RqYEiogbmspmvZIpaJ6Ku3D+vEaEWs8VSWfOnNVZ2gP+XpKSZcqaYzg3xcd1jRjRldBjQ1pWhrgDt3nC2hoc5kqxiBD8BXyE2J+wVpkSJeIFmrTnt0W+eotzvioMYoH1gbFxYOF29WktEDMreB3FFan2WCM7Ikb2SNWNqmVOnlA++yYbob7v59vl0lZksjpOoyH0rE60NAi8bdBXh3MVseYswIAN853UXCZHAia85OHz0IP0JuBmsOCyjswHkVxKB340n2P1ZQw9UdsyXDGa6SWeaKkm03fGgfi2ysMYZYv6pdKKeB05Q+Esivf24NkQy+DNM7Qu62pFNJtZd5JGFatAJNPJntQ4OVmygA+lqonLACVRaacQA78qHVIokcGlPFlagqsKAJGlbuUVl1VAChuFfBmERpwffPB+c/ToB3qC7svNfdu3egqWl3dYZ4RBjgxZISpJhuncpcs7fH7kXFOy9967xdPAB3Sb0rsH32vO62k7pnMlKitdNiGxngtp2RibJo9K4QNiMbLjbA0OUo6v7UWpiRD5E69gtHwzsr708ltkXfwurTaRhS25RZ3KFhWO9ECTfBSU8qayDXwXTm/eCFnB54W/HTg3IohVhg888o2/EiA3pm2UwvmH8dsXweI8S6DItCtj2O2xOK7biUGacxr6tpSL2kzN+xFYx+1HX6jstLIa0jzACX20HQvVFzVeWZNzKpj0ou2NBJhR9FT9MH0S7LQYrmLGADNs7b8hX/3Ci/mJMrb2KS2IkXaU9XWJwzJV9DYvC6pRxRrNjYeKc6SYwkYZg46jIShZMpEwulp29gTUCk2B+bQPcUOAIUg2N8lD4Zo41ZQwl87f0CUVx49/1Lz11tvN4195TEdk9nqDj28f0giX9ViU8D0aobLtHX+UK4bzn7fulZ/WMY/ozdh9+97SRqhPNJpd9hruZe0wZrctC/SMohkFt8RjGy1sBUQftyzmVT/6n4KP9MkFOguap5d44qwmwMRjfZsvkYqfhZb2lDFAixkyHBO0RNwoDPIf8gNoJhmgd+w3K8odS2CIWHw5/wrbySblsB6zWgSSS8ptiObz6kYOY+WbTlnKakXeKWTITv/i4gmkefeM884/q0/TDaTqfm1cVj0L1vkir2mCWaTseN2zQ2ub0xvWTYWM5c8gauuM9iWcjKxRrk6r1INWUU+VF4B9OcQSVt+vTXBoGYLNXYgKzeJ/XZF5bgxC5jlIGCZ3+24IHBIN1knCWWd19lu5RuuBjOt8t2K1R8FJ5sWaZ0SuCS5tdCQF4/ojg6JwJAEgip5RF1ewoWujwmWAEPoknRQOb5F6c5GaOehhWpjNQBukVXknljRYHF6vkef5cxf0DN2B5ut643Tv3id9HaCPAUmxIht2J3Ocho1CS9rhG4vPFMzY5HRJZ3QPHjzUvP7aGzqPelGwyxrFaqOURsPsAObYD+NXHizn4gkbFTL+dbxhR/Hri9U/koHoNlfuDosOhUhM8peskJmbccVznII7oFo6gQVOqAzn+LLWBpQx9RB5UIfNY3cBLR2OGt6VGg9oVSKeuTAhNZQ4h88Rf9a4g+EOHjjyL8oWlMuA23yHM38tZQpsCMhxiFecCbbwF1I7rBE98BZ6CkZcPlpRhN4PXTjZVUcI2UtCortPg7hw2Vk1akcc8hjlIcor+ZflwBvflB++pAFaFOZGu8gnqTC9pVNIvkLitDJCHHBY/olgxnduuBk4RoNEZJazOnwivX4GGNRlSXK5E4b0B+JVMiNEzEi8x4PIZLCQ9TWWgZSPVgaSwSgbSm8iyfnLHvU9ZJu8RH5P8gUTFQGyuumUL/tgJmggXH+Bp8MdvFV4FN8KGfRzGOQVcgi5CLMTcV4ovtNjiVOGtOo/AhFV0GSQprxuE478BahPYoakb0HUgyMsw/PLSJEGlTVWpmdRRP7fgroKFoogFmtsQIJQ0lmnG48Yhcbok4iXL19sXvr9a813vv3nOjer6Vu15Rt9s5NeiJFypGcVO455HEATvHKjuBm9kt7JkyebN15/06/osIHpfj2Px/27OiKqHcEoZtGsQrdOx2PgBHkg9dgYgVW+2ZtLVoFJYz/9GE6x0+1wihsY809WN0jABazBxTtf1qdBM2bqylPb+7Ckkw2mbAUXch5DCzSZELFwCMqe2AdmxN+yyUQKuNMhwTQF/yjNAkZCNYoqZmK4ra+5A+mYAOQd5e62kri9yMmwhGASKzqx0mRNo32ehEE/wWOmNcgbi6ntPAZ2FKY3KY0k1uVpRfQI3KJeHd5FYxb4lGlGn0XeANblxSKfFSkRr813mFLm2WqxR52iXtHG0h6WjvsIwkgbhvtUDJwjMTuv9my0CI/6pl+l6/ahA7ONvnjiBqbNa+LKXRuc4RVwGZ4nUWpY0upzUIf27UFX4XwQqeesHEELdDBbC28dTl3CX7mKP35c4BANfgfcxrRSSWkQnz8EwBdlGgI0Dq2TchUiinWa8YhS0ejlYF/vu3AZkXE+VGdLL17U+U+epYsbWK7rBqOPjn+ijUfvaY30Qz0MvrN54L4tuuWJTUox2kSh0iPjsokNusGIzUi+5F7TvYcOva8RK2urlzSVvN18XtLbsBy54ehK3JAjgSn+MGfarLLcknc4SztxChSFIO0KDl8sBFTSIKqMPwrjX4Qrhj2Rad94JNn3GnVFIWSqmcZQIJluplPHcrIBAGh0yL3i3sUr8ECZzip+xDHBlW9Yc4TiiiCikowJwMojKgYyoCFQnGCmgvicWiVCpEjeI6eUaObMWJ1dSBIj8ke2ztMi47SPpRW0JVVdypE/WWZLkRGiKMMd3N22UfZbIfYSnyyH02F7Ee+ow+3voIZA1+2Wf9pXG+WJz/JnXpdvzVTk+7Q8riGn2amv0Ua4HRU/uGM6uR+H8uGyDryAnCuyj5mQAbgCn93EB3llosx1o/QqaIoVXgMHvEc56NLpRRKoZ3hcqIAhLvorvtilWPkMjTLRCnLSP3yEDKQWgr49JIlQpDE1q9uKGl00EedKiZfrlhXujCIvnwnS2iooGWXydirnStezPirC2YTE7UeXdO3giy++2jz5xG+bf/jJj5p193E/L2nGvbu8fsPaJYqS6xK19Cr7+ua07i7+zfO/1frqm8JzS1PAm3TX78W4k3czF/ArHdFxzQ+KI2p1IGqjQAtdv5aBoQEIJiJD+MWtX8moLaTOMHAGtOOLXoxjO5yMkodlS69yrEMScRxxjh/jK9R2MZ3IRGwKqqmnkEBPZMQo3IQnMUMMvSDSj4pgi/l3OmPAxIQGTV258IoOYLt1+B7qz68D2cOdfjLPcDtvpsltTmkgz6GJxgRfynWUetLCPq8xWhHpEbUiOZ1kYl4kdwJONJiMAe5oEAf8jcKOxQ5kY7IcJLOw0zk/SHJN0oHVAd7FiAPBQF5TELg80YaoUMS5ZWLqH4OVCSN/KSd49F9Jo9SAATQMJCO0E07C8epqQVkMJT4fw7mshoACT8RzmR5QQLvkqW4DYofuvp4YHbG6wMHoAGE4STCQCJ29zASK2LSEHw0jVwD6BXJPBcvOHLXOuw5N3KwSONH6V3RExliYrtDcLHfmQg3Pp3ETEU+zXb16Weus7zbPPfdC8/Wnn262b9MLNFt0+b+UqEe9vvBBghfTXF7PVYIXz/PazIHmuV/9Wi/3HGkFCM4NepGGwsDVh+ZcdjJmTLDBJ9kuhktvJZgX1cTjn75FRdke4eKccIF5R14KIvIQbADoD8kCRPpg6WcaUJYPljlMVMrAq+QLT2CYxGJYg4pO5UU2uJOQ4Jn0ZZZgaPABNuHTDu6hcRj+BCGrEZhhnM+fW3zDVPJeiamyrinb2VhEsVOZc96Wi0kGKY2tsQJC3lHvM88inzs2BmjumjPLcJ1glFL9DorrGCwy94xJjeBO2pVgKQFrmor3zsBy1kV4n1KgQlH0Ay2qgbymERhVGEbAUdovxb2lwUwfK/SAJRFHeM+rSsT5I5zBA5iiXcmylqAkS57dQufMYdAZpEnqmQbROoXbIYlOgOZgpSvQV/wxO1srV727EiZIDLsb9Q7PpM3KhAa/MCaIICpGmhEfRUs4BsHqXVV2/fYUK7GSAtlkjYrJZiZh8W5Z3QelqWHftyuU1zWCW96Ie0Nz9swZjVp/1/zbl/c092oa+E//9KuCZfpYlGnUS++I6ePNurwfpve992bzr//nX5tX33hV08Dn/GbqJT0dd0OabssWHdvRyPjqVa0Fa5QbO5yTfngYmqQ7YVL5FelZRky9yC27ReHRKQqcDEwTthAVGQQe/ES/ZcNv4s44fHtI6oCBncYOwUIvyj6wD4BaJ3lqivRDYcUgTzjBuACHxe76B0pLlNrb9sSFw2kEwxNwzrvaN0jw6BVr4A/JQGcJrmPcVXtMCY0naQVUgoAL+vsU42rlbUviinxAHl2MzpZQq/mCE0GSXItfqMMeaTDqdKnr0RSpkQfkABRGnlPGCqACweA/fkq5i5glfu2o7NNkOferOxWunhV6R/jowRSHy2nykgDw8Rk3ZqHwkYrBueS2qS8cwCyH2+DbgzPynv/+GyLLNPHPMJUoxXF7ad/074RP1kRZI36UtcTUQYWtbnOGYaNukivIMi7fLNu1HzrNCpUIbfueraS0HRqZiHVkFNIkSyGgTghBBJWLnhCJcqk8Q2QWrr22qDRd9XSpP+H2R8oD0/nocgfVZu8sRcD62yBc5lZpbNAGI9ZquRCCEeZGKdgzp082v/n1r5qHd96vR8V3eL2Vh9DZGcx7pdf0BhuZxbGal1/+XfOLZ3/WnD5/2s9asRnJlVmKVOCiUUd0fMSGNPlDUJ2w5Ag+OoLlAZyMOgGWjcOi0TL3uIUbNWlY0UKaw7prIPCQXgmMZivSdFDvpyaiFzDh0CCiGOLoj3xxGrIMTfGyUih5FWvOooY8VPTYNT6MGDizHNWhES8KqMsawpZJ/xo27JFW9Ba7UOISBxNfGOnC/yNsY/yaDpOJvLqKCalBfUcpbm4O7Rv56r/LiQIyGNYts/SoIk2lo4JJK3VWiFxHSQOc7t27rpU0CC9/k7ihWvQpH7kZDTjXe/AIR6kRhiEt12e7Vv6ZSCuSWjniDIgcqc0AaYOS59ajWPCf1ywCuwjOCdnMikxZGZQ2K7tSmkoTA5DLQo3KXp55qnNyRptRRy52y8A46kBRBEqVG6dPedGf9c1C8u1wUhWitR3JH8ugg51li81PfQjzoAQYmVo3iB/KM2Wdsu9BYIlC6oSlmXKOleARQjNW9QUq/zrvLoHI3EmIDnbc5kIkJaT/QYlQ4scRHM636sl1r49yReHr+/brgfJtzZce+5J2+H5Pr9RsVmZxREesKicv6sHyF198qfn3f/+/zYEDB5WgRrF6nYYrDnmW7ZZHqlLCWoe9/74HlcY6xWEzE0pknL5x3w4YWyeFGjpgZpUjwpyps4BqlIva5+2+F7w+z1tocn4W5iYqerC2KDV9eNIhx6ERAbZuwLoEJtLuY/nMuDqO+iSPl51pZaofd2XXtFRXjrkqiDmTc7G8U2V+VYSvLhINbLR7q4s/Fmuh8i55T01/NC/6pc2uvlchadRzjNy2U9YPrJUSHTqVZwYz+rsTnZF+2iu5RgUTTZDoY4mLDgBT2WncOdBP+tQDgRmKNaOv4VcUcIZqPkPvgNEbRUTEiwHpSX1543WjzpheVmbcoyMy9/qawtdf29f84ufP6v7gh5qvf+NPNF0cl1Xc0CYkdgH//Bf/r3lem5ZQptvvf1BfXYavxwbulWK9rPOq9EI4enNts65OlOKNNeJ+j20+uleGmlWIyF7CQ7HKkbm2MtqFIKZWvBEsHsWLMOeESxNkjRM2ine8zI6k1DUI9GTVv7Hx6BkbctGHspCpz5KlI/+B/Hya5TBaJsbyZYFyMhb90+Dnkkk71ZbQtaFqbhkquRZ2DnkupLDBPQdOOGaEF+dkJQnqq/+ouwqMH31cm8NJpP9AM1Z/klXaHzbBAoNOaveewBP/xBNyiWW8YOKuKtaWiBUEGLJ36TTBdisO33u0hspFErf0oDpvtHLDEiPMEyc/aX79/AvNw7u+0Dy444HmS3oInVHrwYMHmn/6p39unn32uebjU2e0lqrjNVLIbITyG7B6oP3mTV0MoWM4vFBzRf68p0oaFrYLwQoELxicGTYRjczhn3Mp7MhsrY0r3lQiJlPLQpeVMCvKEHJRvMP46Sa9bichBbZPrMuD8sVwGemP3wk5jYnEpekOlOmxtPAb5t00uNb/LtLWprmWlrWvrqZu0XZgEblPE3lMHQ+F06+Lw9DaDV7+ctqUpsx0MQ1oOZWp4PlR1ujX1B5NzCQh9hG9jEbdLBfSoy1UrjArWijJ9hHnHVKskBPJ8VuTW9shYMxEbAjmxhfWbGRTDoHLa6e6dvCeezaGgpX/ej3tRk/iXY1M/+l//7TZdt/25rvf+zMdv7nS/Oxnv2j++V/+rTl2/GTE0S1LnHFlDZV3X233+ujNZtvWbRoVh2JjPdjrRmMELuSXYq8iiUErocorrS54JRx7nVkJs1bfeStfSJ4cLfnA1IFMxnd4YTPpXzWNLuFl3S+RVPLKAk1QlokE40vZCdPZ0udufxHJqqkYKTaz6EfuTmuFBAmeZ87ItFPnSr3LtJ3X6Zjzm+VkJXBwj9aLFXhaEa94GDPz0jUWd5bfInX2TtEAfRN0IMehLCyaEfnIi9xYrfEsI8lpJjDuaqeN5lrZuJsgaEuFtWA6IBpEGbKVdLs5SccK3xq2xad0yKP2tANpl8CublBPYp9BJhGKlcj809eaWfaJTMkYwy9xSw/EBLD7iExJnDU8RM1hTLvgqGhSrZ4CxhU0avu0cHPFGkdpOCqzvFFnWLVJ6cLFK80BXfzw05/+u29Xunb9WvPLX/6yOf7Rx5o6lgLWsR2tqkrh6qrEDfc2y3p0nFdzLire0j3LutB/i3BckrK95pFxTAcrsVUaxyw8Bxb9FnQzKxTy41+bu6skYBXRptLVZUpgpbDAS/HPQjY2eQ5O4wW+tOpTeat4HtLSxcmEha6CT3bZf55yTr9pX4ru0BjlCN4h3MpucjFEtDJsBwGfY3wZArpGaM7NQ7lelbIayhAcbDjCQJvXhcbSw0/hN7Vxo2cUieNxpJObkkirzeMecDiSlpGg+byUZkhyPvAh1LT0x2QzjLsa97T0RnG5qI5k6CjwfJ6kz4abvqHcTHapXI35GRjLZuAttHO3SaTkYkbdlyWGR5FI4KHspcIiISGf0wCZpJl06MqGpcIRU7MJWQWMppVwSUuk4o25orMtKwr2rVI+VsZRHjYyxaZd9SFaE4q15UmxaqpbsBUsZqzrbfrqv9CskxEhrBVLESeSHhr462U4HlY3YoXRJK6SMRpxbty0tdm6tF3HaE43v/zV881bb7/tZ+J4zJz58Y06+8qFEFw2wVlabmNijfbC+bNeb9183zZjZ9rCjYRTGxK1enebMatHseqYt502+as8qhs3u+VPrmBSZnaMZOfwFY2VaBqGL9RYmYj5fhh8Jw8ZAyU1b3rmu1dOEwt44x8bscaKeAc53TaUgyFH5DuBIaoLGTPBXw1r3gXDo1C33BLWoeN2Y1TEGnPSmd+MiSzHOglDmQMfZSxjrt2XtIZ0Jfah/7R8R+RjNCeez8I3eB0Wnvm5mlLMp7CuMu82OiSnfpjlh3yhI6ZWnTOKP6RpCkp5m9r2p9DOZxTFpGfWw0legs5ElOWCr//BgAz7TcCReAzPjKcqUI3TF0RkYTIZCk23Ma30o0jekOTIs4GNF6JGpJCMBAZUpsygoudwm+ladRuEReurYopR6zVND1+4eEGbmTbq+sN1zclTp92j3qDNTRd1QQRJomDpgV/XbU7LyxAskQnPfVKqG3VR8FVdwM8oF3xIzvTW0griPlO/8DBvfvbzoM9m4uBLQ5lfsiiPW5FprDkMDfnNvcsj2T4Evctu8UJHaiTVWbKowaPi1T7FToUsf/AdxWhSNiMxZ3plPswEmhFoCpR/rTFhyID8qfxbgEnLmLyAgrYhfWN+wFq+E4igYj4awHG7ZiZtFXLzBG+V30xrZPZMEAJh33Ifg5yQzRjQYn60dcN108jySc7MLe1sZWBr3npBvfIRFkXKeGCj7eC9bNpijKeKJdl58YIsd48nXiMa+Zmdv33eTIvLb/DoXcCmvcApDBrpELD0yBvfpM9zpehVqdseD61iRbToZIiZm8kCT2OacfILvknS5bmAUdYUaDCpyumjlKRTuTM4M1nX1KvRRumu15opENd1HIf23T1ltfwoUgTF83Ce+hLeG7oIiozfqJdsNm/STU6aHuZlG/yYRLlFGkjuD8i4AZnCr6ueC140nl1jo7UFydz9OQG5MA9xyL/uI1muFNoh3KfE7d50TfAsuihoYwb+yh/BUbfGAO+2X+QfqQZ92EwdlvnMSL1ACvxN5Kk82l3dFXbLeBK6glg7q89hq+zWJlxuTWrv27ZbBiPyWQRx1I9BjD75g8B5nfMjQVxjSnggxqkJZzvgxxpUBsIdg7aYFaRtpxtFeSStqah6AQEnYP7LYVn1IDpH0LoYz27XhIJOSCp/Zl00IrNfzGZlGlAfZiiX/w/C+7rJTAT8cwAAAABJRU5ErkJggg==;" vertex="1" parent="1">
          <mxGeometry x="640" y="160" width="272.98" height="230" as="geometry" />
        </mxCell>
        <mxCell id="H-cOPBI3KehKyMTL4nlX-9" value="异步链路支持携带traceID" style="rounded=1;whiteSpace=wrap;html=1;fontSize=19;fillColor=#60a917;strokeColor=#2D7600;fontColor=#ffffff;" vertex="1" parent="1">
          <mxGeometry x="250" y="240" width="210" height="90" as="geometry" />
        </mxCell>
      </root>
    </mxGraphModel>
  </diagram>
</mxfile>
